<svg width="64" height="56" viewBox="0 0 64 56" fill="none" xmlns="http://www.w3.org/2000/svg">
<path d="M21.545 36.67C22.99 35.565 24.605 34.6935 26.39 34.0554C28.175 33.4185 30.045 33.1 32 33.1C33.955 33.1 35.825 33.4185 37.61 34.0554C39.395 34.6935 41.01 35.565 42.455 36.67C43.4467 35.5083 44.219 34.1908 44.7721 32.7175C45.324 31.2442 45.6 29.6717 45.6 28C45.6 24.2317 44.2757 21.0226 41.6271 18.3729C38.9774 15.7243 35.7683 14.4 32 14.4C28.2317 14.4 25.0232 15.7243 22.3746 18.3729C19.7249 21.0226 18.4 24.2317 18.4 28C18.4 29.6717 18.6765 31.2442 19.2296 32.7175C19.7815 34.1908 20.5533 35.5083 21.545 36.67ZM32 29.7C30.3283 29.7 28.9185 29.1265 27.7704 27.9796C26.6235 26.8315 26.05 25.4217 26.05 23.75C26.05 22.0783 26.6235 20.6685 27.7704 19.5204C28.9185 18.3735 30.3283 17.8 32 17.8C33.6717 17.8 35.0815 18.3735 36.2296 19.5204C37.3765 20.6685 37.95 22.0783 37.95 23.75C37.95 25.4217 37.3765 26.8315 36.2296 27.9796C35.0815 29.1265 33.6717 29.7 32 29.7ZM32 45C29.6483 45 27.4383 44.5535 25.37 43.6604C23.3017 42.7685 21.5025 41.5575 19.9725 40.0275C18.4425 38.4975 17.2315 36.6983 16.3396 34.63C15.4465 32.5617 15 30.3517 15 28C15 25.6483 15.4465 23.4383 16.3396 21.37C17.2315 19.3017 18.4425 17.5025 19.9725 15.9725C21.5025 14.4425 23.3017 13.231 25.37 12.3379C27.4383 11.446 29.6483 11 32 11C34.3517 11 36.5617 11.446 38.63 12.3379C40.6983 13.231 42.4975 14.4425 44.0275 15.9725C45.5575 17.5025 46.7685 19.3017 47.6604 21.37C48.5535 23.4383 49 25.6483 49 28C49 30.3517 48.5535 32.5617 47.6604 34.63C46.7685 36.6983 45.5575 38.4975 44.0275 40.0275C42.4975 41.5575 40.6983 42.7685 38.63 43.6604C36.5617 44.5535 34.3517 45 32 45Z" fill="#008951"/>
</svg>
