<svg width="96" height="96" viewBox="0 0 96 96" fill="none" xmlns="http://www.w3.org/2000/svg">
<g clip-path="url(#clip0_206_6908)">
<path d="M64.96 46.0407L71.24 39.7607L56.24 24.7607L49.96 31.0407L33.4 14.5207C30.28 11.4007 25.2 11.4007 22.08 14.5207L14.48 22.1207C11.36 25.2407 11.36 30.3207 14.48 33.4407L31 49.9607L12 69.0007V84.0007H27L46.04 64.9607L62.56 81.4807C66.36 85.2807 71.48 83.8807 73.88 81.4807L81.48 73.8807C84.6 70.7607 84.6 65.6807 81.48 62.5607L64.96 46.0407ZM36.72 44.2807L20.16 27.7607L27.72 20.1607L32.8 25.2407L28.08 30.0007L33.72 35.6407L38.48 30.8807L44.28 36.6807L36.72 44.2807ZM68.24 75.8407L51.72 59.3207L59.32 51.7207L65.12 57.5207L60.36 62.2807L66 67.9207L70.76 63.1607L75.84 68.2407L68.24 75.8407Z" fill="#636366"/>
<path d="M82.84 28.1604C84.4 26.6004 84.4 24.0804 82.84 22.5204L73.48 13.1604C71.6 11.2804 69 12.0004 67.84 13.1604L60.52 20.4804L75.52 35.4804L82.84 28.1604Z" fill="#636366"/>
</g>
<defs>
<clipPath id="clip0_206_6908">
<rect width="96" height="96" fill="white"/>
</clipPath>
</defs>
</svg>
