<svg width="324" height="204" viewBox="0 0 324 204" fill="none" xmlns="http://www.w3.org/2000/svg">
<rect width="324" height="204" rx="10" fill="#F6F6F6"/>
<rect x="28" y="140.775" width="104" height="8" rx="2" fill="#DEDEDE"/>
<rect x="28" y="56.7754" width="133" height="8" rx="2" fill="#DEDEDE"/>
<rect x="28" y="92.7754" width="82" height="8" rx="2" fill="#DEDEDE"/>
<rect x="28" y="74.7754" width="61" height="8" rx="2" fill="#DEDEDE"/>
<rect x="28" y="124.775" width="29" height="8" rx="2" fill="#DEDEDE"/>
<rect x="89" y="124.775" width="21" height="8" rx="2" fill="#DEDEDE"/>
<rect x="66" y="124.775" width="16" height="8" rx="2" fill="#DEDEDE"/>
<path d="M243 56.3087C249.167 54.3087 262.4 53.1087 266 64.3087C270.833 65.3087 280.6 70.4086 281 82.8086C281.304 84.4443 281.591 86.2967 281.837 88.3086C282.328 92.3242 282.654 96.9755 282.628 101.809C284.252 102.475 287.4 104.609 287 107.809C286.5 111.809 284.341 113.309 281.67 114.309C280.109 124.102 276.417 133.044 269 137.309C268.55 137.684 268.048 138.071 267.5 138.459V142.809V144.809C255.9 155.209 242 149.142 236.5 144.809V142.809V138.231C236.165 137.937 235.831 137.629 235.5 137.309C230.524 133.736 222.558 125.142 221.61 114.309C221.502 113.309 217.5 113.309 217.5 107.809C217.5 103.409 220.816 101.975 222.474 101.809C219.475 89.0989 219.879 65.0265 243 56.3087Z" fill="#DEDEDE"/>
<path d="M223 103.809C222.667 95.8087 225 80.4086 237 82.8086C252 85.8086 251 88.8086 266 75.8086C268.391 75.9753 274.907 78.7086 281.837 88.3086M223 103.809C222.817 103.18 222.64 102.512 222.474 101.809M223 103.809C221.687 107.465 221.32 110.992 221.61 114.309M281.837 88.3086C281.591 86.2967 281.304 84.4443 281 82.8086C280.6 70.4086 270.833 65.3087 266 64.3087C262.4 53.1087 249.167 54.3087 243 56.3087C219.879 65.0265 219.475 89.0989 222.474 101.809M281.837 88.3086C282.328 92.3242 282.654 96.9755 282.628 101.809M282.628 101.809C284.252 102.475 287.4 104.609 287 107.809C286.5 111.809 284.341 113.309 281.67 114.309M282.628 101.809C282.606 105.937 282.326 110.198 281.67 114.309M281.67 114.309C280.109 124.102 276.417 133.044 269 137.309C268.55 137.684 268.048 138.071 267.5 138.459M222.474 101.809C220.816 101.975 217.5 103.409 217.5 107.809C217.5 113.309 221.502 113.309 221.61 114.309M221.61 114.309C222.558 125.142 230.524 133.736 235.5 137.309C235.831 137.629 236.165 137.937 236.5 138.231M236.5 138.231C247.76 148.11 260.943 143.114 267.5 138.459M236.5 138.231V142.809M267.5 138.459V142.809M236.5 142.809V144.809C242 149.142 255.9 155.209 267.5 144.809V142.809M236.5 142.809C228.1 142.23 214 145.901 208 147.809M267.5 142.809C271.667 142.475 283.3 143.009 296.5 147.809" stroke="#AAA6A6" stroke-opacity="0.37" stroke-width="3"/>
<rect width="324" height="21" fill="#DEDEDE"/>
</svg>
