<?xml version="1.0" encoding="utf-8"?>
<!-- Generator: Adobe Illustrator 27.0.0, SVG Export Plug-In . SVG Version: 6.00 Build 0)  -->
<svg version="1.1" id="Layer_1" xmlns="http://www.w3.org/2000/svg" xmlns:xlink="http://www.w3.org/1999/xlink" x="0px" y="0px"
	 viewBox="0 0 300 200" enable-background="new 0 0 300 200" xml:space="preserve">
<path fill="#F8F9F9" d="M43.5,54h214c0.8,0,1.5,0.7,1.5,1.5l0,0c0,0.8-0.7,1.5-1.5,1.5h-214c-0.8,0-1.5-0.7-1.5-1.5l0,0
	C42,54.7,42.7,54,43.5,54z"/>
<path fill="#F8F9F9" d="M43.5,79h131c0.8,0,1.5,0.7,1.5,1.5l0,0c0,0.8-0.7,1.5-1.5,1.5h-131c-0.8,0-1.5-0.7-1.5-1.5l0,0
	C42,79.7,42.7,79,43.5,79z"/>
<path fill="#F8F9F9" d="M43.5,66h96c0.8,0,1.5,0.7,1.5,1.5l0,0c0,0.8-0.7,1.5-1.5,1.5h-96c-0.8,0-1.5-0.7-1.5-1.5l0,0
	C42,66.7,42.7,66,43.5,66z"/>
<path fill="#F8F9F9" d="M43.5,148h166c0.8,0,1.5,0.7,1.5,1.5l0,0c0,0.8-0.7,1.5-1.5,1.5h-166c-0.8,0-1.5-0.7-1.5-1.5l0,0
	C42,148.7,42.7,148,43.5,148z"/>
<path fill="#F8F9F9" d="M43.5,135h43c0.8,0,1.5,0.7,1.5,1.5l0,0c0,0.8-0.7,1.5-1.5,1.5h-43c-0.8,0-1.5-0.7-1.5-1.5l0,0
	C42,135.7,42.7,135,43.5,135z"/>
<path fill="#F8F9F9" d="M142.5,135h32c0.8,0,1.5,0.7,1.5,1.5l0,0c0,0.8-0.7,1.5-1.5,1.5h-32c-0.8,0-1.5-0.7-1.5-1.5l0,0
	C141,135.7,141.7,135,142.5,135z"/>
<path fill="#F8F9F9" d="M106.5,135h21c0.8,0,1.5,0.7,1.5,1.5l0,0c0,0.8-0.7,1.5-1.5,1.5h-21c-0.8,0-1.5-0.7-1.5-1.5l0,0
	C105,135.7,105.7,135,106.5,135z"/>
<g>
	<path fill="#F8F9F9" d="M292,200H8c-4.4,0-8-3.6-8-8V8c0-4.4,3.6-8,8-8h284c4.4,0,8,3.6,8,8v184C300,196.4,296.4,200,292,200z M8,2
		C4.7,2,2,4.7,2,8v184c0,3.3,2.7,6,6,6h284c3.3,0,6-2.7,6-6V8c0-3.3-2.7-6-6-6H8z"/>
</g>
</svg>
