<svg width="17" height="17" viewBox="0 0 17 17" fill="none" xmlns="http://www.w3.org/2000/svg">
<g id="Path 1">
<mask id="path-1-outside-1_1813_9316" maskUnits="userSpaceOnUse" x="0" y="-0.5" width="17" height="18" fill="black">
<rect fill="white" y="-0.5" width="17" height="18"/>
<path fill-rule="evenodd" clip-rule="evenodd" d="M8.64825 0.500262C8.73264 0.497137 8.82015 0.522141 8.89204 0.565899C8.95455 0.606531 9.03269 0.690921 9.06395 0.753432C9.11395 0.856576 9.12333 0.950343 9.12333 1.4348C9.12333 1.93489 9.11708 2.00991 9.06082 2.12243C9.01915 2.20578 8.95663 2.26829 8.87329 2.30996C8.80452 2.34434 8.70451 2.37247 8.6545 2.37247C8.60136 2.37247 8.50447 2.34434 8.43571 2.30996C8.35236 2.26829 8.28985 2.20578 8.24817 2.12243C8.19191 2.00991 8.18566 1.93489 8.18566 1.4348C8.18566 0.950343 8.19504 0.856576 8.24505 0.753432C8.2763 0.690921 8.34819 0.606531 8.40758 0.569024C8.47009 0.528392 8.56698 0.500262 8.64512 0.500262H8.64825ZM8.62637 3.31327C8.80765 3.31327 9.10145 3.33202 9.28273 3.3539C9.46402 3.3789 9.72969 3.42891 9.87659 3.46642C10.0235 3.50392 10.2829 3.59144 10.4548 3.65708C10.6267 3.72584 10.8799 3.84774 11.0174 3.92588C11.1549 4.00401 11.3519 4.12904 11.455 4.20405C11.5581 4.27594 11.7394 4.42284 11.8613 4.52911C11.9832 4.63538 12.177 4.82916 12.2926 4.96044C12.4083 5.09171 12.5802 5.31362 12.6708 5.45115C12.7615 5.58867 12.8959 5.81371 12.9646 5.95124C13.0334 6.08876 13.1334 6.30755 13.1834 6.4357C13.2334 6.56385 13.3116 6.81702 13.3553 6.9983C13.4022 7.17958 13.4554 7.47339 13.4741 7.65467C13.496 7.8422 13.5022 8.14225 13.4929 8.35792C13.4835 8.56421 13.4429 8.88614 13.4085 9.0768C13.371 9.26746 13.2897 9.56126 13.2303 9.73316C13.1709 9.90507 13.0615 10.1645 12.9865 10.3114C12.9146 10.4583 12.7646 10.7115 12.6552 10.874C12.5458 11.0365 12.3145 11.3178 12.1426 11.4991C11.9707 11.6804 11.7863 11.8835 11.73 11.9523C11.6769 12.0211 11.5831 12.1836 11.5206 12.3118C11.4581 12.4399 11.3862 12.6431 11.3612 12.765C11.3269 12.9337 11.3143 13.2338 11.3143 14.1027C11.3143 14.8091 11.3018 15.2779 11.28 15.3842C11.2612 15.4717 11.205 15.628 11.1549 15.728C11.1049 15.8249 11.0112 15.9655 10.9455 16.0374C10.883 16.1093 10.758 16.2124 10.6736 16.2656C10.5861 16.3218 10.4329 16.3969 10.3298 16.4312C10.1485 16.4969 10.0923 16.5 8.65762 16.5C7.29488 16.5 7.16048 16.4969 7.0167 16.4437C6.92919 16.4125 6.80417 16.3594 6.7354 16.3281C6.66664 16.2937 6.52599 16.1843 6.42285 16.078C6.31345 15.9718 6.19781 15.8186 6.15092 15.7186C6.10716 15.6248 6.05716 15.4717 6.03528 15.3842C6.0134 15.2779 6.0009 14.8153 6.0009 14.1027C6.0009 13.2338 5.98839 12.9337 5.95401 12.765C5.92901 12.6431 5.85712 12.4399 5.79461 12.3118C5.7321 12.1836 5.63833 12.0211 5.5852 11.9523C5.52894 11.8835 5.34453 11.6804 5.17262 11.4991C5.00072 11.3178 4.76943 11.0365 4.66003 10.874C4.55064 10.7115 4.40061 10.4583 4.32872 10.3114C4.25371 10.1645 4.14431 9.90507 4.08493 9.73316C4.02554 9.56126 3.94428 9.26746 3.90677 9.0768C3.87239 8.88614 3.83176 8.56421 3.82238 8.35792C3.813 8.14225 3.81926 7.84533 3.84113 7.65467C3.86301 7.47339 3.90677 7.20771 3.94115 7.06081C3.97553 6.91391 4.04117 6.68887 4.08493 6.56072C4.12869 6.43257 4.23496 6.18565 4.31935 6.01375C4.40686 5.84184 4.55064 5.58867 4.6444 5.45115C4.73504 5.31362 4.9007 5.10109 5.00697 4.97919C5.11636 4.85417 5.3164 4.65413 5.45392 4.53223C5.59145 4.40721 5.81649 4.23218 5.95401 4.14154C6.09154 4.0509 6.31658 3.9165 6.4541 3.84774C6.59163 3.77897 6.79479 3.68521 6.90731 3.64145C7.01983 3.59457 7.24487 3.52268 7.4074 3.47892C7.56993 3.43204 7.83873 3.3789 8.00126 3.35702C8.16378 3.33514 8.44508 3.31639 8.62637 3.31327ZM7.5793 4.40096C7.44178 4.43847 7.18861 4.53536 7.0167 4.61975C6.8448 4.70101 6.59163 4.84166 6.4541 4.93543C6.31658 5.0292 6.06966 5.23861 5.904 5.40114C5.73835 5.56679 5.52894 5.81371 5.4383 5.95124C5.34453 6.08876 5.20388 6.34193 5.12261 6.51384C5.03822 6.68574 4.93821 6.96079 4.89445 7.12332C4.85069 7.28585 4.80068 7.5484 4.7788 7.70155C4.75692 7.87033 4.75067 8.13288 4.76005 8.35792C4.77255 8.59546 4.81006 8.85488 4.86007 9.06117C4.90695 9.24245 4.98821 9.50187 5.0476 9.6394C5.10386 9.77692 5.20388 9.98008 5.26952 10.0926C5.33203 10.2051 5.44455 10.3739 5.51331 10.4677C5.58207 10.5614 5.78211 10.7865 5.95401 10.9678C6.12592 11.149 6.3197 11.3678 6.38221 11.4522C6.44473 11.5397 6.56037 11.7429 6.63851 11.9054C6.71665 12.068 6.81042 12.3149 6.84167 12.4524C6.87605 12.5899 6.91043 12.7681 6.91981 12.8525L6.93856 12.9994H10.3767C10.4048 12.7681 10.4329 12.6118 10.4579 12.4993C10.4861 12.3868 10.5455 12.1992 10.5923 12.0773C10.6424 11.9554 10.7267 11.7804 10.783 11.6866C10.8393 11.5929 10.9268 11.4585 10.9799 11.3897C11.033 11.3209 11.2175 11.1178 11.3925 10.9365C11.5644 10.7552 11.7832 10.4958 11.8769 10.3583C11.9676 10.2208 12.0989 10.002 12.1614 9.87381C12.227 9.74567 12.3145 9.53313 12.3583 9.40498C12.3989 9.27683 12.4583 9.05804 12.4864 8.92052C12.5146 8.78299 12.5458 8.52357 12.5552 8.34229C12.5677 8.14851 12.5583 7.88596 12.5333 7.70155C12.5114 7.52964 12.4614 7.26085 12.4177 7.10769C12.377 6.95454 12.277 6.68574 12.1926 6.51384C12.1114 6.34193 11.9707 6.08876 11.8769 5.95124C11.7863 5.81371 11.5769 5.56679 11.4112 5.40114C11.2456 5.23548 10.9987 5.02607 10.8611 4.93543C10.7236 4.84166 10.4704 4.70101 10.2985 4.61975C10.1266 4.53848 9.87972 4.44159 9.75157 4.40409C9.62342 4.3697 9.38275 4.3197 9.22022 4.29469C9.05769 4.26969 8.7889 4.25093 8.62637 4.25093C8.46384 4.25406 8.21692 4.27281 8.07939 4.29469C7.94187 4.31344 7.71683 4.36345 7.5793 4.40096ZM6.93856 14.5622C6.93856 15.1123 6.94482 15.1998 6.99795 15.3029C7.03233 15.3717 7.10734 15.4498 7.17611 15.4904C7.298 15.5592 7.31051 15.5592 8.64825 15.5623C9.9391 15.5623 10.0079 15.5592 10.1266 15.4998C10.21 15.4581 10.2725 15.3956 10.3142 15.3123C10.3704 15.1998 10.3767 15.1248 10.3767 14.5622V13.937H6.93856V14.5622ZM1.92829 7.68592C2.44088 7.68592 2.51277 7.69217 2.62529 7.74843C2.70864 7.79011 2.77115 7.85262 2.81282 7.93597C2.84721 8.00473 2.87534 8.10162 2.87534 8.15476C2.87534 8.20477 2.84721 8.30478 2.81282 8.37355C2.77115 8.45689 2.70864 8.51941 2.62529 8.56108C2.51277 8.61734 2.43776 8.62359 1.93767 8.62359C1.43758 8.62359 1.36256 8.61734 1.25004 8.56108C1.1667 8.51941 1.10419 8.45689 1.06251 8.37355C1.02813 8.30478 1 8.20477 1 8.15476C1 8.10162 1.02813 8.00473 1.06251 7.93597C1.10314 7.85783 1.16878 7.78907 1.24379 7.74843C1.34694 7.6953 1.42508 7.68905 1.93142 7.68592H1.92829ZM15.3651 7.68592C15.8777 7.68592 15.9496 7.69217 16.0621 7.74843C16.1454 7.79011 16.2079 7.85262 16.2496 7.93597C16.284 8.00473 16.3121 8.10162 16.3121 8.15476C16.3121 8.20477 16.284 8.30478 16.2496 8.37355C16.2079 8.45689 16.1454 8.51941 16.0621 8.56108C15.9496 8.61734 15.8745 8.62359 15.3745 8.62359C14.8744 8.62359 14.7993 8.61734 14.6868 8.56108C14.6035 8.51941 14.541 8.45689 14.4993 8.37355C14.4649 8.30478 14.4368 8.20477 14.4368 8.15476C14.4368 8.10162 14.4649 8.00473 14.4993 7.93597C14.5399 7.85783 14.6056 7.78907 14.6806 7.74843C14.7837 7.6953 14.8619 7.68905 15.3682 7.68592H15.3651ZM3.55671 2.59126C3.56609 2.59126 3.6286 2.60689 3.69736 2.62564C3.79425 2.65377 3.9099 2.74441 4.1912 3.02571C4.39436 3.22575 4.59127 3.43829 4.62565 3.49767C4.66941 3.56956 4.69129 3.65395 4.68816 3.74772C4.68504 3.82586 4.65691 3.929 4.62565 3.98214C4.59439 4.03214 4.52563 4.10091 4.47562 4.13216C4.42561 4.16342 4.32247 4.18842 4.24433 4.19155C4.15056 4.19467 4.06617 4.17279 3.99429 4.12904C3.9349 4.09466 3.72236 3.89775 3.52233 3.69458C3.24103 3.41016 3.15039 3.29764 3.12226 3.20075C3.10038 3.11636 3.10038 3.03822 3.11913 2.95695C3.13788 2.89444 3.18164 2.80692 3.22227 2.76317C3.25978 2.71941 3.3473 2.66315 3.41606 2.63814C3.48482 2.61314 3.54733 2.59439 3.55671 2.59126ZM13.7929 2.61314C13.8461 2.62252 13.9242 2.65065 13.9742 2.67253C14.0211 2.69753 14.0805 2.74754 14.1055 2.78505C14.1305 2.82568 14.1649 2.90694 14.1836 2.96633C14.2055 3.04134 14.2024 3.11323 14.1805 3.20075C14.1524 3.29764 14.0617 3.41016 13.7804 3.69458C13.5804 3.89775 13.3678 4.09466 13.3085 4.12904C13.2366 4.17279 13.1522 4.19467 13.0584 4.19155C12.9803 4.18842 12.8771 4.16342 12.8271 4.13216C12.7771 4.10091 12.7083 4.03214 12.6771 3.98214C12.6458 3.929 12.6177 3.82586 12.6177 3.74772C12.6146 3.66958 12.6365 3.56331 12.6615 3.5133C12.6896 3.46017 12.8771 3.25388 13.0803 3.05072C13.3335 2.80067 13.4897 2.6694 13.5741 2.63814C13.6429 2.61314 13.7398 2.60064 13.7929 2.61314Z"/>
</mask>
<path fill-rule="evenodd" clip-rule="evenodd" d="M8.64825 0.500262C8.73264 0.497137 8.82015 0.522141 8.89204 0.565899C8.95455 0.606531 9.03269 0.690921 9.06395 0.753432C9.11395 0.856576 9.12333 0.950343 9.12333 1.4348C9.12333 1.93489 9.11708 2.00991 9.06082 2.12243C9.01915 2.20578 8.95663 2.26829 8.87329 2.30996C8.80452 2.34434 8.70451 2.37247 8.6545 2.37247C8.60136 2.37247 8.50447 2.34434 8.43571 2.30996C8.35236 2.26829 8.28985 2.20578 8.24817 2.12243C8.19191 2.00991 8.18566 1.93489 8.18566 1.4348C8.18566 0.950343 8.19504 0.856576 8.24505 0.753432C8.2763 0.690921 8.34819 0.606531 8.40758 0.569024C8.47009 0.528392 8.56698 0.500262 8.64512 0.500262H8.64825ZM8.62637 3.31327C8.80765 3.31327 9.10145 3.33202 9.28273 3.3539C9.46402 3.3789 9.72969 3.42891 9.87659 3.46642C10.0235 3.50392 10.2829 3.59144 10.4548 3.65708C10.6267 3.72584 10.8799 3.84774 11.0174 3.92588C11.1549 4.00401 11.3519 4.12904 11.455 4.20405C11.5581 4.27594 11.7394 4.42284 11.8613 4.52911C11.9832 4.63538 12.177 4.82916 12.2926 4.96044C12.4083 5.09171 12.5802 5.31362 12.6708 5.45115C12.7615 5.58867 12.8959 5.81371 12.9646 5.95124C13.0334 6.08876 13.1334 6.30755 13.1834 6.4357C13.2334 6.56385 13.3116 6.81702 13.3553 6.9983C13.4022 7.17958 13.4554 7.47339 13.4741 7.65467C13.496 7.8422 13.5022 8.14225 13.4929 8.35792C13.4835 8.56421 13.4429 8.88614 13.4085 9.0768C13.371 9.26746 13.2897 9.56126 13.2303 9.73316C13.1709 9.90507 13.0615 10.1645 12.9865 10.3114C12.9146 10.4583 12.7646 10.7115 12.6552 10.874C12.5458 11.0365 12.3145 11.3178 12.1426 11.4991C11.9707 11.6804 11.7863 11.8835 11.73 11.9523C11.6769 12.0211 11.5831 12.1836 11.5206 12.3118C11.4581 12.4399 11.3862 12.6431 11.3612 12.765C11.3269 12.9337 11.3143 13.2338 11.3143 14.1027C11.3143 14.8091 11.3018 15.2779 11.28 15.3842C11.2612 15.4717 11.205 15.628 11.1549 15.728C11.1049 15.8249 11.0112 15.9655 10.9455 16.0374C10.883 16.1093 10.758 16.2124 10.6736 16.2656C10.5861 16.3218 10.4329 16.3969 10.3298 16.4312C10.1485 16.4969 10.0923 16.5 8.65762 16.5C7.29488 16.5 7.16048 16.4969 7.0167 16.4437C6.92919 16.4125 6.80417 16.3594 6.7354 16.3281C6.66664 16.2937 6.52599 16.1843 6.42285 16.078C6.31345 15.9718 6.19781 15.8186 6.15092 15.7186C6.10716 15.6248 6.05716 15.4717 6.03528 15.3842C6.0134 15.2779 6.0009 14.8153 6.0009 14.1027C6.0009 13.2338 5.98839 12.9337 5.95401 12.765C5.92901 12.6431 5.85712 12.4399 5.79461 12.3118C5.7321 12.1836 5.63833 12.0211 5.5852 11.9523C5.52894 11.8835 5.34453 11.6804 5.17262 11.4991C5.00072 11.3178 4.76943 11.0365 4.66003 10.874C4.55064 10.7115 4.40061 10.4583 4.32872 10.3114C4.25371 10.1645 4.14431 9.90507 4.08493 9.73316C4.02554 9.56126 3.94428 9.26746 3.90677 9.0768C3.87239 8.88614 3.83176 8.56421 3.82238 8.35792C3.813 8.14225 3.81926 7.84533 3.84113 7.65467C3.86301 7.47339 3.90677 7.20771 3.94115 7.06081C3.97553 6.91391 4.04117 6.68887 4.08493 6.56072C4.12869 6.43257 4.23496 6.18565 4.31935 6.01375C4.40686 5.84184 4.55064 5.58867 4.6444 5.45115C4.73504 5.31362 4.9007 5.10109 5.00697 4.97919C5.11636 4.85417 5.3164 4.65413 5.45392 4.53223C5.59145 4.40721 5.81649 4.23218 5.95401 4.14154C6.09154 4.0509 6.31658 3.9165 6.4541 3.84774C6.59163 3.77897 6.79479 3.68521 6.90731 3.64145C7.01983 3.59457 7.24487 3.52268 7.4074 3.47892C7.56993 3.43204 7.83873 3.3789 8.00126 3.35702C8.16378 3.33514 8.44508 3.31639 8.62637 3.31327ZM7.5793 4.40096C7.44178 4.43847 7.18861 4.53536 7.0167 4.61975C6.8448 4.70101 6.59163 4.84166 6.4541 4.93543C6.31658 5.0292 6.06966 5.23861 5.904 5.40114C5.73835 5.56679 5.52894 5.81371 5.4383 5.95124C5.34453 6.08876 5.20388 6.34193 5.12261 6.51384C5.03822 6.68574 4.93821 6.96079 4.89445 7.12332C4.85069 7.28585 4.80068 7.5484 4.7788 7.70155C4.75692 7.87033 4.75067 8.13288 4.76005 8.35792C4.77255 8.59546 4.81006 8.85488 4.86007 9.06117C4.90695 9.24245 4.98821 9.50187 5.0476 9.6394C5.10386 9.77692 5.20388 9.98008 5.26952 10.0926C5.33203 10.2051 5.44455 10.3739 5.51331 10.4677C5.58207 10.5614 5.78211 10.7865 5.95401 10.9678C6.12592 11.149 6.3197 11.3678 6.38221 11.4522C6.44473 11.5397 6.56037 11.7429 6.63851 11.9054C6.71665 12.068 6.81042 12.3149 6.84167 12.4524C6.87605 12.5899 6.91043 12.7681 6.91981 12.8525L6.93856 12.9994H10.3767C10.4048 12.7681 10.4329 12.6118 10.4579 12.4993C10.4861 12.3868 10.5455 12.1992 10.5923 12.0773C10.6424 11.9554 10.7267 11.7804 10.783 11.6866C10.8393 11.5929 10.9268 11.4585 10.9799 11.3897C11.033 11.3209 11.2175 11.1178 11.3925 10.9365C11.5644 10.7552 11.7832 10.4958 11.8769 10.3583C11.9676 10.2208 12.0989 10.002 12.1614 9.87381C12.227 9.74567 12.3145 9.53313 12.3583 9.40498C12.3989 9.27683 12.4583 9.05804 12.4864 8.92052C12.5146 8.78299 12.5458 8.52357 12.5552 8.34229C12.5677 8.14851 12.5583 7.88596 12.5333 7.70155C12.5114 7.52964 12.4614 7.26085 12.4177 7.10769C12.377 6.95454 12.277 6.68574 12.1926 6.51384C12.1114 6.34193 11.9707 6.08876 11.8769 5.95124C11.7863 5.81371 11.5769 5.56679 11.4112 5.40114C11.2456 5.23548 10.9987 5.02607 10.8611 4.93543C10.7236 4.84166 10.4704 4.70101 10.2985 4.61975C10.1266 4.53848 9.87972 4.44159 9.75157 4.40409C9.62342 4.3697 9.38275 4.3197 9.22022 4.29469C9.05769 4.26969 8.7889 4.25093 8.62637 4.25093C8.46384 4.25406 8.21692 4.27281 8.07939 4.29469C7.94187 4.31344 7.71683 4.36345 7.5793 4.40096ZM6.93856 14.5622C6.93856 15.1123 6.94482 15.1998 6.99795 15.3029C7.03233 15.3717 7.10734 15.4498 7.17611 15.4904C7.298 15.5592 7.31051 15.5592 8.64825 15.5623C9.9391 15.5623 10.0079 15.5592 10.1266 15.4998C10.21 15.4581 10.2725 15.3956 10.3142 15.3123C10.3704 15.1998 10.3767 15.1248 10.3767 14.5622V13.937H6.93856V14.5622ZM1.92829 7.68592C2.44088 7.68592 2.51277 7.69217 2.62529 7.74843C2.70864 7.79011 2.77115 7.85262 2.81282 7.93597C2.84721 8.00473 2.87534 8.10162 2.87534 8.15476C2.87534 8.20477 2.84721 8.30478 2.81282 8.37355C2.77115 8.45689 2.70864 8.51941 2.62529 8.56108C2.51277 8.61734 2.43776 8.62359 1.93767 8.62359C1.43758 8.62359 1.36256 8.61734 1.25004 8.56108C1.1667 8.51941 1.10419 8.45689 1.06251 8.37355C1.02813 8.30478 1 8.20477 1 8.15476C1 8.10162 1.02813 8.00473 1.06251 7.93597C1.10314 7.85783 1.16878 7.78907 1.24379 7.74843C1.34694 7.6953 1.42508 7.68905 1.93142 7.68592H1.92829ZM15.3651 7.68592C15.8777 7.68592 15.9496 7.69217 16.0621 7.74843C16.1454 7.79011 16.2079 7.85262 16.2496 7.93597C16.284 8.00473 16.3121 8.10162 16.3121 8.15476C16.3121 8.20477 16.284 8.30478 16.2496 8.37355C16.2079 8.45689 16.1454 8.51941 16.0621 8.56108C15.9496 8.61734 15.8745 8.62359 15.3745 8.62359C14.8744 8.62359 14.7993 8.61734 14.6868 8.56108C14.6035 8.51941 14.541 8.45689 14.4993 8.37355C14.4649 8.30478 14.4368 8.20477 14.4368 8.15476C14.4368 8.10162 14.4649 8.00473 14.4993 7.93597C14.5399 7.85783 14.6056 7.78907 14.6806 7.74843C14.7837 7.6953 14.8619 7.68905 15.3682 7.68592H15.3651ZM3.55671 2.59126C3.56609 2.59126 3.6286 2.60689 3.69736 2.62564C3.79425 2.65377 3.9099 2.74441 4.1912 3.02571C4.39436 3.22575 4.59127 3.43829 4.62565 3.49767C4.66941 3.56956 4.69129 3.65395 4.68816 3.74772C4.68504 3.82586 4.65691 3.929 4.62565 3.98214C4.59439 4.03214 4.52563 4.10091 4.47562 4.13216C4.42561 4.16342 4.32247 4.18842 4.24433 4.19155C4.15056 4.19467 4.06617 4.17279 3.99429 4.12904C3.9349 4.09466 3.72236 3.89775 3.52233 3.69458C3.24103 3.41016 3.15039 3.29764 3.12226 3.20075C3.10038 3.11636 3.10038 3.03822 3.11913 2.95695C3.13788 2.89444 3.18164 2.80692 3.22227 2.76317C3.25978 2.71941 3.3473 2.66315 3.41606 2.63814C3.48482 2.61314 3.54733 2.59439 3.55671 2.59126ZM13.7929 2.61314C13.8461 2.62252 13.9242 2.65065 13.9742 2.67253C14.0211 2.69753 14.0805 2.74754 14.1055 2.78505C14.1305 2.82568 14.1649 2.90694 14.1836 2.96633C14.2055 3.04134 14.2024 3.11323 14.1805 3.20075C14.1524 3.29764 14.0617 3.41016 13.7804 3.69458C13.5804 3.89775 13.3678 4.09466 13.3085 4.12904C13.2366 4.17279 13.1522 4.19467 13.0584 4.19155C12.9803 4.18842 12.8771 4.16342 12.8271 4.13216C12.7771 4.10091 12.7083 4.03214 12.6771 3.98214C12.6458 3.929 12.6177 3.82586 12.6177 3.74772C12.6146 3.66958 12.6365 3.56331 12.6615 3.5133C12.6896 3.46017 12.8771 3.25388 13.0803 3.05072C13.3335 2.80067 13.4897 2.6694 13.5741 2.63814C13.6429 2.61314 13.7398 2.60064 13.7929 2.61314Z" fill="#777777"/>
<path fill-rule="evenodd" clip-rule="evenodd" d="M8.64825 0.500262C8.73264 0.497137 8.82015 0.522141 8.89204 0.565899C8.95455 0.606531 9.03269 0.690921 9.06395 0.753432C9.11395 0.856576 9.12333 0.950343 9.12333 1.4348C9.12333 1.93489 9.11708 2.00991 9.06082 2.12243C9.01915 2.20578 8.95663 2.26829 8.87329 2.30996C8.80452 2.34434 8.70451 2.37247 8.6545 2.37247C8.60136 2.37247 8.50447 2.34434 8.43571 2.30996C8.35236 2.26829 8.28985 2.20578 8.24817 2.12243C8.19191 2.00991 8.18566 1.93489 8.18566 1.4348C8.18566 0.950343 8.19504 0.856576 8.24505 0.753432C8.2763 0.690921 8.34819 0.606531 8.40758 0.569024C8.47009 0.528392 8.56698 0.500262 8.64512 0.500262H8.64825ZM8.62637 3.31327C8.80765 3.31327 9.10145 3.33202 9.28273 3.3539C9.46402 3.3789 9.72969 3.42891 9.87659 3.46642C10.0235 3.50392 10.2829 3.59144 10.4548 3.65708C10.6267 3.72584 10.8799 3.84774 11.0174 3.92588C11.1549 4.00401 11.3519 4.12904 11.455 4.20405C11.5581 4.27594 11.7394 4.42284 11.8613 4.52911C11.9832 4.63538 12.177 4.82916 12.2926 4.96044C12.4083 5.09171 12.5802 5.31362 12.6708 5.45115C12.7615 5.58867 12.8959 5.81371 12.9646 5.95124C13.0334 6.08876 13.1334 6.30755 13.1834 6.4357C13.2334 6.56385 13.3116 6.81702 13.3553 6.9983C13.4022 7.17958 13.4554 7.47339 13.4741 7.65467C13.496 7.8422 13.5022 8.14225 13.4929 8.35792C13.4835 8.56421 13.4429 8.88614 13.4085 9.0768C13.371 9.26746 13.2897 9.56126 13.2303 9.73316C13.1709 9.90507 13.0615 10.1645 12.9865 10.3114C12.9146 10.4583 12.7646 10.7115 12.6552 10.874C12.5458 11.0365 12.3145 11.3178 12.1426 11.4991C11.9707 11.6804 11.7863 11.8835 11.73 11.9523C11.6769 12.0211 11.5831 12.1836 11.5206 12.3118C11.4581 12.4399 11.3862 12.6431 11.3612 12.765C11.3269 12.9337 11.3143 13.2338 11.3143 14.1027C11.3143 14.8091 11.3018 15.2779 11.28 15.3842C11.2612 15.4717 11.205 15.628 11.1549 15.728C11.1049 15.8249 11.0112 15.9655 10.9455 16.0374C10.883 16.1093 10.758 16.2124 10.6736 16.2656C10.5861 16.3218 10.4329 16.3969 10.3298 16.4312C10.1485 16.4969 10.0923 16.5 8.65762 16.5C7.29488 16.5 7.16048 16.4969 7.0167 16.4437C6.92919 16.4125 6.80417 16.3594 6.7354 16.3281C6.66664 16.2937 6.52599 16.1843 6.42285 16.078C6.31345 15.9718 6.19781 15.8186 6.15092 15.7186C6.10716 15.6248 6.05716 15.4717 6.03528 15.3842C6.0134 15.2779 6.0009 14.8153 6.0009 14.1027C6.0009 13.2338 5.98839 12.9337 5.95401 12.765C5.92901 12.6431 5.85712 12.4399 5.79461 12.3118C5.7321 12.1836 5.63833 12.0211 5.5852 11.9523C5.52894 11.8835 5.34453 11.6804 5.17262 11.4991C5.00072 11.3178 4.76943 11.0365 4.66003 10.874C4.55064 10.7115 4.40061 10.4583 4.32872 10.3114C4.25371 10.1645 4.14431 9.90507 4.08493 9.73316C4.02554 9.56126 3.94428 9.26746 3.90677 9.0768C3.87239 8.88614 3.83176 8.56421 3.82238 8.35792C3.813 8.14225 3.81926 7.84533 3.84113 7.65467C3.86301 7.47339 3.90677 7.20771 3.94115 7.06081C3.97553 6.91391 4.04117 6.68887 4.08493 6.56072C4.12869 6.43257 4.23496 6.18565 4.31935 6.01375C4.40686 5.84184 4.55064 5.58867 4.6444 5.45115C4.73504 5.31362 4.9007 5.10109 5.00697 4.97919C5.11636 4.85417 5.3164 4.65413 5.45392 4.53223C5.59145 4.40721 5.81649 4.23218 5.95401 4.14154C6.09154 4.0509 6.31658 3.9165 6.4541 3.84774C6.59163 3.77897 6.79479 3.68521 6.90731 3.64145C7.01983 3.59457 7.24487 3.52268 7.4074 3.47892C7.56993 3.43204 7.83873 3.3789 8.00126 3.35702C8.16378 3.33514 8.44508 3.31639 8.62637 3.31327ZM7.5793 4.40096C7.44178 4.43847 7.18861 4.53536 7.0167 4.61975C6.8448 4.70101 6.59163 4.84166 6.4541 4.93543C6.31658 5.0292 6.06966 5.23861 5.904 5.40114C5.73835 5.56679 5.52894 5.81371 5.4383 5.95124C5.34453 6.08876 5.20388 6.34193 5.12261 6.51384C5.03822 6.68574 4.93821 6.96079 4.89445 7.12332C4.85069 7.28585 4.80068 7.5484 4.7788 7.70155C4.75692 7.87033 4.75067 8.13288 4.76005 8.35792C4.77255 8.59546 4.81006 8.85488 4.86007 9.06117C4.90695 9.24245 4.98821 9.50187 5.0476 9.6394C5.10386 9.77692 5.20388 9.98008 5.26952 10.0926C5.33203 10.2051 5.44455 10.3739 5.51331 10.4677C5.58207 10.5614 5.78211 10.7865 5.95401 10.9678C6.12592 11.149 6.3197 11.3678 6.38221 11.4522C6.44473 11.5397 6.56037 11.7429 6.63851 11.9054C6.71665 12.068 6.81042 12.3149 6.84167 12.4524C6.87605 12.5899 6.91043 12.7681 6.91981 12.8525L6.93856 12.9994H10.3767C10.4048 12.7681 10.4329 12.6118 10.4579 12.4993C10.4861 12.3868 10.5455 12.1992 10.5923 12.0773C10.6424 11.9554 10.7267 11.7804 10.783 11.6866C10.8393 11.5929 10.9268 11.4585 10.9799 11.3897C11.033 11.3209 11.2175 11.1178 11.3925 10.9365C11.5644 10.7552 11.7832 10.4958 11.8769 10.3583C11.9676 10.2208 12.0989 10.002 12.1614 9.87381C12.227 9.74567 12.3145 9.53313 12.3583 9.40498C12.3989 9.27683 12.4583 9.05804 12.4864 8.92052C12.5146 8.78299 12.5458 8.52357 12.5552 8.34229C12.5677 8.14851 12.5583 7.88596 12.5333 7.70155C12.5114 7.52964 12.4614 7.26085 12.4177 7.10769C12.377 6.95454 12.277 6.68574 12.1926 6.51384C12.1114 6.34193 11.9707 6.08876 11.8769 5.95124C11.7863 5.81371 11.5769 5.56679 11.4112 5.40114C11.2456 5.23548 10.9987 5.02607 10.8611 4.93543C10.7236 4.84166 10.4704 4.70101 10.2985 4.61975C10.1266 4.53848 9.87972 4.44159 9.75157 4.40409C9.62342 4.3697 9.38275 4.3197 9.22022 4.29469C9.05769 4.26969 8.7889 4.25093 8.62637 4.25093C8.46384 4.25406 8.21692 4.27281 8.07939 4.29469C7.94187 4.31344 7.71683 4.36345 7.5793 4.40096ZM6.93856 14.5622C6.93856 15.1123 6.94482 15.1998 6.99795 15.3029C7.03233 15.3717 7.10734 15.4498 7.17611 15.4904C7.298 15.5592 7.31051 15.5592 8.64825 15.5623C9.9391 15.5623 10.0079 15.5592 10.1266 15.4998C10.21 15.4581 10.2725 15.3956 10.3142 15.3123C10.3704 15.1998 10.3767 15.1248 10.3767 14.5622V13.937H6.93856V14.5622ZM1.92829 7.68592C2.44088 7.68592 2.51277 7.69217 2.62529 7.74843C2.70864 7.79011 2.77115 7.85262 2.81282 7.93597C2.84721 8.00473 2.87534 8.10162 2.87534 8.15476C2.87534 8.20477 2.84721 8.30478 2.81282 8.37355C2.77115 8.45689 2.70864 8.51941 2.62529 8.56108C2.51277 8.61734 2.43776 8.62359 1.93767 8.62359C1.43758 8.62359 1.36256 8.61734 1.25004 8.56108C1.1667 8.51941 1.10419 8.45689 1.06251 8.37355C1.02813 8.30478 1 8.20477 1 8.15476C1 8.10162 1.02813 8.00473 1.06251 7.93597C1.10314 7.85783 1.16878 7.78907 1.24379 7.74843C1.34694 7.6953 1.42508 7.68905 1.93142 7.68592H1.92829ZM15.3651 7.68592C15.8777 7.68592 15.9496 7.69217 16.0621 7.74843C16.1454 7.79011 16.2079 7.85262 16.2496 7.93597C16.284 8.00473 16.3121 8.10162 16.3121 8.15476C16.3121 8.20477 16.284 8.30478 16.2496 8.37355C16.2079 8.45689 16.1454 8.51941 16.0621 8.56108C15.9496 8.61734 15.8745 8.62359 15.3745 8.62359C14.8744 8.62359 14.7993 8.61734 14.6868 8.56108C14.6035 8.51941 14.541 8.45689 14.4993 8.37355C14.4649 8.30478 14.4368 8.20477 14.4368 8.15476C14.4368 8.10162 14.4649 8.00473 14.4993 7.93597C14.5399 7.85783 14.6056 7.78907 14.6806 7.74843C14.7837 7.6953 14.8619 7.68905 15.3682 7.68592H15.3651ZM3.55671 2.59126C3.56609 2.59126 3.6286 2.60689 3.69736 2.62564C3.79425 2.65377 3.9099 2.74441 4.1912 3.02571C4.39436 3.22575 4.59127 3.43829 4.62565 3.49767C4.66941 3.56956 4.69129 3.65395 4.68816 3.74772C4.68504 3.82586 4.65691 3.929 4.62565 3.98214C4.59439 4.03214 4.52563 4.10091 4.47562 4.13216C4.42561 4.16342 4.32247 4.18842 4.24433 4.19155C4.15056 4.19467 4.06617 4.17279 3.99429 4.12904C3.9349 4.09466 3.72236 3.89775 3.52233 3.69458C3.24103 3.41016 3.15039 3.29764 3.12226 3.20075C3.10038 3.11636 3.10038 3.03822 3.11913 2.95695C3.13788 2.89444 3.18164 2.80692 3.22227 2.76317C3.25978 2.71941 3.3473 2.66315 3.41606 2.63814C3.48482 2.61314 3.54733 2.59439 3.55671 2.59126ZM13.7929 2.61314C13.8461 2.62252 13.9242 2.65065 13.9742 2.67253C14.0211 2.69753 14.0805 2.74754 14.1055 2.78505C14.1305 2.82568 14.1649 2.90694 14.1836 2.96633C14.2055 3.04134 14.2024 3.11323 14.1805 3.20075C14.1524 3.29764 14.0617 3.41016 13.7804 3.69458C13.5804 3.89775 13.3678 4.09466 13.3085 4.12904C13.2366 4.17279 13.1522 4.19467 13.0584 4.19155C12.9803 4.18842 12.8771 4.16342 12.8271 4.13216C12.7771 4.10091 12.7083 4.03214 12.6771 3.98214C12.6458 3.929 12.6177 3.82586 12.6177 3.74772C12.6146 3.66958 12.6365 3.56331 12.6615 3.5133C12.6896 3.46017 12.8771 3.25388 13.0803 3.05072C13.3335 2.80067 13.4897 2.6694 13.5741 2.63814C13.6429 2.61314 13.7398 2.60064 13.7929 2.61314Z" stroke="#777777" stroke-width="0.6" mask="url(#path-1-outside-1_1813_9316)"/>
</g>
</svg>
