<svg width="16" height="17" viewBox="0 0 16 17" fill="none" xmlns="http://www.w3.org/2000/svg">
<g clip-path="url(#clip0_4379_60248)">
<path d="M6.66707 11.1667V10.5H2.00707L2.00041 13.1667C2.00041 13.9067 2.59374 14.5 3.33374 14.5H12.6671C13.4071 14.5 14.0004 13.9067 14.0004 13.1667V10.5H9.33374V11.1667H6.66707ZM13.3337 5.16667H10.6604V3.83333L9.32707 2.5H6.66041L5.32707 3.83333V5.16667H2.66707C1.93374 5.16667 1.33374 5.76667 1.33374 6.5V8.5C1.33374 9.24 1.92707 9.83333 2.66707 9.83333H6.66707V8.5H9.33374V9.83333H13.3337C14.0671 9.83333 14.6671 9.23333 14.6671 8.5V6.5C14.6671 5.76667 14.0671 5.16667 13.3337 5.16667ZM9.33374 5.16667H6.66707V3.83333H9.33374V5.16667Z" fill="#AAA6A6"/>
</g>
<defs>
<clipPath id="clip0_4379_60248">
<rect width="16" height="16" fill="white" transform="translate(0 0.5)"/>
</clipPath>
</defs>
</svg>
