<svg width="28" height="28" viewBox="0 0 28 28" fill="none" xmlns="http://www.w3.org/2000/svg">
<circle cx="14" cy="14" r="14" fill="#008951"/>
<path d="M21 18.1818C21 18.5194 20.8659 18.8431 20.6272 19.0818C20.3885 19.3205 20.0648 19.4545 19.7273 19.4545H8.27273C7.93518 19.4545 7.61146 19.3205 7.37277 19.0818C7.13409 18.8431 7 18.5194 7 18.1818V11.1818C7 10.8443 7.13409 10.5205 7.37277 10.2819C7.61146 10.0432 7.93518 9.90909 8.27273 9.90909H10.8182L12.0909 8H15.9091L17.1818 9.90909H19.7273C20.0648 9.90909 20.3885 10.0432 20.6272 10.2819C20.8659 10.5205 21 10.8443 21 11.1818V18.1818Z" stroke="white" stroke-width="1.5" stroke-linecap="round" stroke-linejoin="round"/>
<path d="M13.9986 16.9093C15.4044 16.9093 16.544 15.7696 16.544 14.3638C16.544 12.958 15.4044 11.8184 13.9986 11.8184C12.5928 11.8184 11.4531 12.958 11.4531 14.3638C11.4531 15.7696 12.5928 16.9093 13.9986 16.9093Z" stroke="white" stroke-width="1.5" stroke-linecap="round" stroke-linejoin="round"/>
</svg>
