<svg width="50" height="48" viewBox="0 0 50 48" fill="none" xmlns="http://www.w3.org/2000/svg">
<path d="M25.0024 46.1834C23.8518 46.1092 22.8497 46.5545 21.8475 47.1113C18.6556 48.8928 15.4636 47.8907 14.0161 44.5874C12.9768 42.2491 11.2695 41.0985 8.78275 40.7645C5.14539 40.3191 3.21537 37.6467 3.9948 34.0836C4.55154 31.634 3.88345 29.7782 2.06478 28.1451C-0.718913 25.6583 -0.681796 22.2808 2.13901 19.794C3.92057 18.198 4.55154 16.3422 4.03192 14.0039C3.21537 10.3295 5.10828 7.69422 8.8941 7.21172C11.3809 6.87767 13.0511 5.68997 14.0532 3.35167C15.4636 0.122584 18.6927 -0.91666 21.7362 0.864902C24.0003 2.16396 26.1159 2.12684 28.3428 0.827786C31.3492 -0.91666 34.6154 0.196816 35.9887 3.4259C36.9908 5.80131 38.7353 6.95191 41.222 7.24883C44.9336 7.73134 46.8265 10.4037 45.9728 14.0782C45.4532 16.3793 46.0842 18.1609 47.7915 19.7198C50.7608 22.4292 50.7237 25.6212 47.7544 28.3306C46.0471 29.8895 45.4532 31.7082 45.9728 33.9723C46.8265 37.6467 44.9336 40.282 41.1478 40.7645C38.661 41.0985 36.9537 42.2491 35.9516 44.6245C34.5783 47.8165 31.3121 48.8557 28.2686 47.1855C27.2664 46.5917 26.2272 46.072 25.0024 46.1834Z" fill="white"/>
<path d="M23.1616 29.9634C22.642 29.9634 22.1594 29.8521 21.8254 29.4809C20.749 28.3674 19.6727 27.254 18.6706 26.1034C17.8169 25.1384 17.7798 24.0249 18.7819 23.1341C19.7469 22.2804 20.9346 22.2804 21.7512 23.2826C22.9389 24.8043 23.6812 24.5445 24.7204 23.097C26.0195 21.3154 27.6155 19.7566 29.063 18.0492C29.9909 16.9729 31.0673 16.4904 32.255 17.4925C33.4427 18.4575 33.3313 19.6452 32.4034 20.7216C29.9167 23.5424 27.4299 26.3632 24.9431 29.184C24.4606 29.7407 23.8668 30.0005 23.1616 29.9634Z" fill="#008951"/>
</svg>
