<svg width="96" height="86" viewBox="0 0 96 86" fill="none" xmlns="http://www.w3.org/2000/svg">
<path d="M83.4199 73.8562C83.221 73.6599 82.9668 73.5823 82.6949 73.525C81.8276 73.3443 81.4023 72.6539 81.6619 71.8192C81.843 71.226 81.7131 70.7442 81.3108 70.2881C80.7156 69.6289 80.7866 68.8331 81.4952 68.3045C81.9862 67.9444 82.1586 67.4985 82.085 66.9107C81.9702 66.0133 82.5134 65.4008 83.4248 65.3935C84.0045 65.3842 84.4147 65.1446 84.6909 64.634C85.125 63.8316 85.8901 63.6497 86.6599 64.1626C87.1682 64.4964 87.6626 64.5442 88.2175 64.2752C88.9885 63.908 89.7448 64.2305 90.0191 65.0401C90.2273 65.6375 90.6206 65.9667 91.2346 66.0825C92.0621 66.2405 92.4833 66.9631 92.2219 67.7724C92.0281 68.3665 92.1648 68.8542 92.5729 69.3035C93.1759 69.9813 93.098 70.7712 92.3582 71.3084C91.8976 71.6472 91.7302 72.0736 91.7952 72.6302C91.9085 73.5978 91.3948 74.1763 90.4209 74.2008C89.8607 74.2151 89.4631 74.4538 89.1987 74.9508C88.7714 75.7592 88.0064 75.941 87.2366 75.4281C86.7282 75.0944 86.2329 75.0339 85.6722 75.3096C84.9138 75.676 84.1507 75.3475 83.8588 74.5584C83.7696 74.2905 83.6618 74.0303 83.4199 73.8562Z" fill="#008951"/>
<path d="M80.8381 40.6276C80.8485 40.4666 80.7862 40.3264 80.7083 40.1861C80.459 39.7395 80.5992 39.2928 81.0615 39.0902C81.3887 38.9448 81.5497 38.7059 81.5964 38.3579C81.6588 37.8489 82.0327 37.5788 82.5313 37.6879C82.8741 37.7658 83.1338 37.6723 83.3623 37.4178C83.7103 37.0283 84.1829 37.0335 84.5309 37.4282C84.7543 37.6775 85.0139 37.7658 85.3412 37.6931C85.8553 37.5788 86.2241 37.8437 86.2916 38.3735C86.3384 38.7215 86.5046 38.9552 86.8318 39.0954C87.2836 39.2928 87.4291 39.7447 87.1798 40.1705C86.998 40.4874 87.0032 40.7834 87.1849 41.095C87.4291 41.5157 87.2732 41.9728 86.8214 42.1649C86.489 42.3052 86.328 42.5493 86.2864 42.8973C86.2189 43.4167 85.845 43.6815 85.3308 43.5621C85.0088 43.4894 84.7595 43.5777 84.5413 43.8166C84.1622 44.2321 83.7155 44.2269 83.3364 43.8114C83.1182 43.5725 82.8637 43.4894 82.5469 43.5621C82.0327 43.6815 81.664 43.4166 81.5964 42.8869C81.5497 42.5389 81.3887 42.3 81.0563 42.1598C80.6096 41.9676 80.4642 41.5105 80.6979 41.0846C80.781 40.9444 80.8537 40.799 80.8381 40.6276Z" fill="#008951"/>
<path d="M32.5354 14.0578C32.5458 13.8968 32.4835 13.7565 32.4056 13.6163C32.1563 13.1696 32.2965 12.723 32.7587 12.5204C33.086 12.375 33.247 12.1361 33.2937 11.7881C33.356 11.2791 33.73 11.009 34.2286 11.1181C34.5714 11.196 34.8311 11.1025 35.0596 10.848C35.4076 10.4585 35.8802 10.4637 36.2282 10.8584C36.4515 11.1077 36.7112 11.196 37.0384 11.1233C37.5526 11.009 37.9214 11.2739 37.9889 11.8037C38.0356 12.1517 38.2018 12.3854 38.529 12.5256C38.9809 12.723 39.1263 13.1748 38.877 13.6007C38.6952 13.9175 38.7004 14.2136 38.8822 14.5252C39.1263 14.9459 38.9705 15.403 38.5186 15.5951C38.1862 15.7354 38.0252 15.9795 37.9837 16.3274C37.9162 16.8468 37.5422 17.1117 37.028 16.9923C36.706 16.9195 36.4567 17.0078 36.2386 17.2467C35.8594 17.6622 35.4128 17.6571 35.0336 17.2416C34.8155 17.0026 34.561 16.9195 34.2442 16.9923C33.73 17.1117 33.3612 16.8468 33.2937 16.3171C33.247 15.9691 33.086 15.7302 32.7536 15.5899C32.3069 15.3978 32.1615 14.9407 32.3952 14.5148C32.4783 14.3746 32.551 14.2292 32.5354 14.0578Z" fill="#008951"/>
<path d="M5.11786 68.4639C4.9567 68.133 4.67485 67.9254 4.36212 67.7354C3.36373 67.1315 3.13748 66.0878 3.82508 65.1645C4.3095 64.5068 4.35895 63.8515 4.05878 63.109C3.60774 62.0297 4.04411 61.0722 5.15556 60.7255C5.92298 60.493 6.3322 60.0145 6.49789 59.2521C6.74793 58.0871 7.69065 57.5639 8.82601 57.9535C9.55013 58.1956 10.1646 58.0774 10.7311 57.5639C11.6213 56.757 12.6513 56.8657 13.3831 57.8396C13.8686 58.4766 14.4619 58.7523 15.2688 58.6609C16.3872 58.542 17.1856 59.2735 17.1722 60.3991C17.1695 61.2323 17.514 61.8133 18.2261 62.2258C19.1849 62.7841 19.392 63.866 18.7133 64.757C18.2127 65.4102 18.1691 66.0758 18.4796 66.8125C18.932 67.9182 18.4898 68.8654 17.3357 69.2091C16.6154 69.4285 16.2209 69.8849 16.0582 70.6047C15.7757 71.8563 14.8844 72.3503 13.6639 71.9547C12.9618 71.7273 12.3635 71.8499 11.8176 72.3517C10.9332 73.1689 9.90325 73.0601 9.17138 72.0863C8.6859 71.4493 8.09705 71.1574 7.27986 71.2547C6.17755 71.378 5.37334 70.6362 5.35584 69.5282C5.36226 69.1564 5.34223 68.7861 5.11786 68.4639Z" fill="#008951"/>
<path d="M44.5567 80.2136L44.5549 80.2145C42.7941 81.1973 41.1251 81.366 39.7477 80.9254C38.3749 80.4863 37.1533 79.3982 36.3627 77.594L36.3606 77.5892C35.6637 76.0211 34.7183 74.8009 33.4882 73.9195C32.2621 73.0409 30.8119 72.541 29.1677 72.3201L29.1677 72.3201L29.1561 72.3186C27.1477 72.0727 25.7192 71.2301 24.8842 70.0675C24.0509 68.9074 23.7167 67.3011 24.1442 65.343C24.5166 63.7018 24.4919 62.1942 24.0258 60.7959C23.5604 59.3997 22.6812 58.1915 21.4714 57.1052L21.4695 57.1035C19.9362 55.7337 19.2598 54.1981 19.2736 52.7426C19.2875 51.285 19.9953 49.7426 21.5556 48.3671L21.5556 48.3672L21.5615 48.3618C22.7544 47.2932 23.6086 46.0946 24.0609 44.7244C24.5137 43.3524 24.5398 41.8808 24.1898 40.3057C23.7363 38.265 24.0578 36.6395 24.8905 35.4774C25.7252 34.3124 27.1819 33.4621 29.2974 33.1924L29.2974 33.1925L29.3041 33.1916C30.9548 32.9698 32.3976 32.4555 33.6082 31.5608C34.8202 30.6649 35.7391 29.4321 36.41 27.8681C37.1754 26.1178 38.3939 25.0369 39.7562 24.5968C41.1199 24.1561 42.747 24.319 44.4007 25.287L44.4007 25.287L44.4082 25.2914C45.9188 26.1581 47.4334 26.6081 48.9788 26.595C50.523 26.5818 52.0221 26.1069 53.5038 25.2427C55.1225 24.3039 56.7442 24.1661 58.1131 24.6317C59.4835 25.0978 60.7043 26.2042 61.4479 27.9517C62.1227 29.5507 63.0714 30.7887 64.3124 31.6732C65.5475 32.5536 67.0122 33.0412 68.6571 33.2382C70.7159 33.507 72.1486 34.362 72.9696 35.5362C73.7903 36.7099 74.1017 38.3483 73.6279 40.3873L73.6266 40.3934C73.2758 41.9469 73.3015 43.3855 73.7434 44.7243C74.1841 46.0599 75.0144 47.2221 76.1561 48.2645L76.1563 48.2647C77.833 49.7947 78.5453 51.3501 78.5362 52.795C78.5271 54.243 77.7923 55.8036 76.1108 57.3379L76.1106 57.3381C74.9624 58.3865 74.1444 59.5641 73.7174 60.9054C73.2899 62.2479 73.2765 63.6839 73.6274 65.2127L73.628 65.2153C74.1018 67.2551 73.7892 68.8775 72.9634 70.0364C72.1349 71.1991 70.6798 72.0496 68.5636 72.3192L68.5569 72.3201C66.9133 72.5409 65.4603 73.041 64.2372 73.9288C63.0102 74.8193 62.0762 76.0552 61.4033 77.6489C60.6637 79.3657 59.4492 80.4408 58.0716 80.8938C56.693 81.3471 55.0521 81.2094 53.4047 80.3096C52.1834 79.5867 50.6966 78.8102 48.8949 78.9484C47.2147 78.8626 45.795 79.5256 44.5567 80.2136Z" fill="#008951" stroke="black" stroke-width="2"/>
<path d="M46.6527 60.0772C46.016 60.0772 45.4248 59.9408 45.0155 59.486C43.6967 58.1217 42.3779 56.7574 41.15 55.3477C40.1041 54.1653 40.0586 52.801 41.2865 51.7096C42.4689 50.6636 43.9241 50.6636 44.9246 51.8915C46.3798 53.756 47.2894 53.4377 48.5627 51.6641C50.1544 49.4812 52.1099 47.5712 53.8835 45.4793C55.0204 44.1605 56.3392 43.5693 57.7944 44.7971C59.2497 45.9795 59.1133 47.4348 57.9763 48.7536C54.9294 52.2098 51.8825 55.666 48.8356 59.1222C48.2444 59.8044 47.5168 60.1227 46.6527 60.0772Z" fill="white"/>
<g filter="url(#filter0_f_5821_2165)">
<path d="M72.7654 2.5C72.7232 2.51206 72.9514 3.52604 72.9514 3.63958C72.9514 4.36286 72.9741 4.96773 72.5793 5.60089C72.3517 5.96591 72.2556 6.31551 71.9256 6.61643C71.7455 6.78063 71.6771 6.95677 71.5405 7.15134C71.3856 7.37205 71.1505 7.52371 70.9565 7.70691C70.6519 7.99463 70.3361 8.21099 70.0108 8.46405C69.6965 8.70846 69.3502 8.87654 69.0417 9.12815C68.4752 9.59031 67.6491 9.91941 67.2871 10.5933C66.9381 11.2432 66.6876 11.9279 66.6334 12.6787C66.5449 13.9019 66.5102 15.3784 65.3077 16.1026C65.0781 16.2409 64.8463 16.387 64.61 16.5134C64.4974 16.5737 64.3606 16.5898 64.2638 16.6762C64.1898 16.7422 64.0674 16.771 64.0674 16.8726" stroke="#008951" stroke-width="1.5" stroke-linecap="round"/>
</g>
<g filter="url(#filter1_f_5821_2165)">
<path d="M80.2476 7.24009C80.075 7.24009 79.8944 7.201 79.7519 7.31183C79.4332 7.55971 79.186 7.83839 78.8454 8.06838C78.0518 8.60425 77.8606 9.52825 77.5475 10.3804C77.3784 10.8407 77.214 11.2962 77.0747 11.7663C76.8976 12.3639 76.8298 12.9864 76.6312 13.5762C76.3237 14.4893 76.0606 15.3853 75.4735 16.1654C75.1048 16.6554 74.6538 17.028 74.2474 17.4796C73.6148 18.1825 73.0089 18.7599 72.1865 19.234C71.1529 19.8298 70.1617 20.4155 69.4798 21.4091C69.0046 22.1015 68.8603 22.8864 68.8603 23.7244C68.8603 24.2372 68.8343 24.7579 68.8635 25.2701C68.8707 25.396 68.9226 25.6143 69.0364 25.6712" stroke="#33A174" stroke-width="1.5" stroke-linecap="round"/>
</g>
<g filter="url(#filter2_f_5821_2165)">
<path d="M76.403 29.65C76.209 29.5971 76.0857 29.2343 76.0396 29.0658C75.997 28.9106 75.9941 28.7754 75.9941 28.6148C75.9941 28.42 76.3364 28.31 76.4907 28.3065C76.77 28.3001 77.0502 28.3065 77.3296 28.3065C77.5649 28.3065 77.8621 28.3547 78.0938 28.3032C78.2991 28.2576 78.4734 28.0614 78.6033 27.9105C78.8383 27.6377 78.8145 27.3073 78.8711 26.9678C78.8994 26.7978 78.9764 26.6149 78.8272 26.4956" stroke="#008951" stroke-width="1.5" stroke-linecap="round"/>
</g>
<g filter="url(#filter3_f_5821_2165)">
<path d="M80.043 59.0364C80.5077 59.2094 81.0375 59.0639 81.5173 59.0364C81.8951 59.0149 82.3169 58.5407 82.6271 58.3566C83.2025 58.0151 83.791 57.7047 84.2694 57.2263C84.6052 56.8905 84.8367 56.5174 85.24 56.2475C85.7238 55.9236 86.0928 55.4521 86.6774 55.3138C86.9591 55.2471 87.2003 55.1365 87.4965 55.1295C87.8099 55.1221 88.125 55.1268 88.4384 55.1295C89.0018 55.1343 89.5836 55.2808 90.1421 55.3506" stroke="#008951" stroke-width="1.5" stroke-linecap="round"/>
</g>
<g filter="url(#filter4_f_5821_2165)">
<path d="M68.9688 78.5024C68.9688 79.522 69.7742 80.2075 70.7052 80.5092C71.4223 80.7415 72.1044 80.7508 72.8471 80.7508C73.5095 80.7508 74.1187 80.7172 74.735 80.9883C75.1799 81.1841 75.8705 81.4502 76.1561 81.8688C76.356 82.1618 76.506 82.4731 76.7294 82.7534C76.8971 82.9638 77.0901 83.1482 77.2168 83.3882C77.317 83.578 77.3986 83.7437 77.4093 83.9575C77.4149 84.0703 77.4704 84.1507 77.5567 84.2155" stroke="#33A174" stroke-width="1.5" stroke-linecap="round"/>
</g>
<g filter="url(#filter5_f_5821_2165)">
<path d="M22.8502 78.001C22.9353 78.2456 22.9817 78.582 22.7975 78.7969C22.6495 78.9695 22.3992 79.0536 22.2073 79.1633C21.8691 79.3567 21.5668 79.6049 21.3252 79.9117C21.0834 80.2188 20.8135 80.6636 20.8135 81.0702C20.8135 81.1746 20.8598 81.4845 20.8598 81.3801" stroke="#008951" stroke-width="1.5" stroke-linecap="round"/>
</g>
<g filter="url(#filter6_f_5821_2165)">
<path d="M19.377 26.2871C19.5701 26.6798 19.9233 26.883 20.2984 27.0857C20.7639 27.3372 21.3791 27.4647 21.7297 27.8884C22.0547 28.2811 22.1413 28.7101 22.1413 29.1989" stroke="#008951" stroke-width="1.5" stroke-linecap="round"/>
</g>
<g filter="url(#filter7_f_5821_2165)">
<path d="M14.7334 11.6177C14.6184 11.9627 14.6705 12.4753 14.7703 12.8217C14.9189 13.3376 15.281 13.7154 15.659 14.0872C15.9689 14.392 16.2968 14.6095 16.4289 15.0291C16.4683 15.1544 16.4811 15.2849 16.5026 15.4141" stroke="#33A174" stroke-width="1.5" stroke-linecap="round"/>
</g>
<g filter="url(#filter8_f_5821_2165)">
<path d="M21.3213 8.73291C21.5442 8.63738 22.0738 9.00715 22.255 9.10558C22.6156 9.30146 23.2128 9.53491 23.4222 9.91646C23.8624 10.7184 23.9382 11.6027 23.9382 12.4924C23.9382 13.1278 23.8704 13.7562 23.8645 14.3886C23.8616 14.7036 23.859 14.9939 23.9505 15.2978C24.0705 15.6965 24.3291 16.0626 24.5259 16.4281C24.799 16.9353 25.0927 17.4756 25.4207 17.9495C25.5343 18.1136 25.6838 18.2381 25.82 18.3816C25.9991 18.5702 26.1352 18.7926 26.3115 18.9836C26.8318 19.5473 27.464 19.9544 27.9189 20.5808C28.311 21.1207 28.7242 21.6652 29.0083 22.2721C29.2335 22.7534 29.3715 23.2943 29.5345 23.7997C29.6665 24.209 29.6624 24.6643 29.7229 25.0877C29.7604 25.3503 29.7618 25.6077 29.7618 25.872" stroke="#008951" stroke-width="1.5" stroke-linecap="round"/>
</g>
<defs>
<filter id="filter0_f_5821_2165" x="62.3174" y="0.75" width="12.3848" height="17.8726" filterUnits="userSpaceOnUse" color-interpolation-filters="sRGB">
<feFlood flood-opacity="0" result="BackgroundImageFix"/>
<feBlend mode="normal" in="SourceGraphic" in2="BackgroundImageFix" result="shape"/>
<feGaussianBlur stdDeviation="0.5" result="effect1_foregroundBlur_5821_2165"/>
</filter>
<filter id="filter1_f_5821_2165" x="67.0996" y="5.4834" width="14.8984" height="21.938" filterUnits="userSpaceOnUse" color-interpolation-filters="sRGB">
<feFlood flood-opacity="0" result="BackgroundImageFix"/>
<feBlend mode="normal" in="SourceGraphic" in2="BackgroundImageFix" result="shape"/>
<feGaussianBlur stdDeviation="0.5" result="effect1_foregroundBlur_5821_2165"/>
</filter>
<filter id="filter2_f_5821_2165" x="74.2441" y="24.7456" width="6.42188" height="6.65479" filterUnits="userSpaceOnUse" color-interpolation-filters="sRGB">
<feFlood flood-opacity="0" result="BackgroundImageFix"/>
<feBlend mode="normal" in="SourceGraphic" in2="BackgroundImageFix" result="shape"/>
<feGaussianBlur stdDeviation="0.5" result="effect1_foregroundBlur_5821_2165"/>
</filter>
<filter id="filter3_f_5821_2165" x="78.293" y="53.3755" width="13.5996" height="7.49414" filterUnits="userSpaceOnUse" color-interpolation-filters="sRGB">
<feFlood flood-opacity="0" result="BackgroundImageFix"/>
<feBlend mode="normal" in="SourceGraphic" in2="BackgroundImageFix" result="shape"/>
<feGaussianBlur stdDeviation="0.5" result="effect1_foregroundBlur_5821_2165"/>
</filter>
<filter id="filter4_f_5821_2165" x="67.2188" y="76.7524" width="12.0879" height="9.21289" filterUnits="userSpaceOnUse" color-interpolation-filters="sRGB">
<feFlood flood-opacity="0" result="BackgroundImageFix"/>
<feBlend mode="normal" in="SourceGraphic" in2="BackgroundImageFix" result="shape"/>
<feGaussianBlur stdDeviation="0.5" result="effect1_foregroundBlur_5821_2165"/>
</filter>
<filter id="filter5_f_5821_2165" x="19.0635" y="76.251" width="5.61133" height="6.90039" filterUnits="userSpaceOnUse" color-interpolation-filters="sRGB">
<feFlood flood-opacity="0" result="BackgroundImageFix"/>
<feBlend mode="normal" in="SourceGraphic" in2="BackgroundImageFix" result="shape"/>
<feGaussianBlur stdDeviation="0.5" result="effect1_foregroundBlur_5821_2165"/>
</filter>
<filter id="filter6_f_5821_2165" x="17.627" y="24.5371" width="6.26465" height="6.41162" filterUnits="userSpaceOnUse" color-interpolation-filters="sRGB">
<feFlood flood-opacity="0" result="BackgroundImageFix"/>
<feBlend mode="normal" in="SourceGraphic" in2="BackgroundImageFix" result="shape"/>
<feGaussianBlur stdDeviation="0.5" result="effect1_foregroundBlur_5821_2165"/>
</filter>
<filter id="filter7_f_5821_2165" x="12.918" y="9.86768" width="5.33496" height="7.29639" filterUnits="userSpaceOnUse" color-interpolation-filters="sRGB">
<feFlood flood-opacity="0" result="BackgroundImageFix"/>
<feBlend mode="normal" in="SourceGraphic" in2="BackgroundImageFix" result="shape"/>
<feGaussianBlur stdDeviation="0.5" result="effect1_foregroundBlur_5821_2165"/>
</filter>
<filter id="filter8_f_5821_2165" x="19.5713" y="6.96729" width="11.9404" height="20.6548" filterUnits="userSpaceOnUse" color-interpolation-filters="sRGB">
<feFlood flood-opacity="0" result="BackgroundImageFix"/>
<feBlend mode="normal" in="SourceGraphic" in2="BackgroundImageFix" result="shape"/>
<feGaussianBlur stdDeviation="0.5" result="effect1_foregroundBlur_5821_2165"/>
</filter>
</defs>
</svg>
