<svg width="40" height="35" viewBox="0 0 40 35" fill="none" xmlns="http://www.w3.org/2000/svg">
<g opacity="0.69">
<path d="M31.5288 1.32358L38.835 11.0262L19.797 33.2152L1 11.0262L7.82585 1.35712C8.07904 0.998452 8.49071 0.785156 8.92974 0.785156H17.6281H22.4479H30.4494C30.8738 0.785156 31.2736 0.984548 31.5288 1.32358Z" fill="#DEF0E8"/>
<path d="M38.835 11.0262L31.5288 1.32358C31.2736 0.984548 30.8738 0.785156 30.4494 0.785156H22.4479M38.835 11.0262L19.797 33.2152M38.835 11.0262H29.6775M19.797 33.2152L1 11.0262M19.797 33.2152L29.6775 11.0262M19.797 33.2152L9.91653 11.0262M1 11.0262L7.82585 1.35712C8.07904 0.998452 8.49071 0.785156 8.92974 0.785156H17.6281M1 11.0262H9.91653M17.6281 0.785156L9.91653 11.0262M17.6281 0.785156H22.4479M9.91653 11.0262H29.6775M22.4479 0.785156L29.6775 11.0262" stroke="#005633" stroke-width="1.5"/>
</g>
</svg>
