<svg width="28" height="28" viewBox="0 0 28 28" fill="none" xmlns="http://www.w3.org/2000/svg">
<g id="identification card" clip-path="url(#clip0_5544_3979)">
<path id="Vector" d="M26.25 5.25H1.75C1.28587 5.25 0.840752 5.43437 0.512563 5.76256C0.184374 6.09075 0 6.53587 0 7L0 22.75C0 23.2141 0.184374 23.6592 0.512563 23.9874C0.840752 24.3156 1.28587 24.5 1.75 24.5H26.25C26.7141 24.5 27.1592 24.3156 27.4874 23.9874C27.8156 23.6592 28 23.2141 28 22.75V7C28 6.53587 27.8156 6.09075 27.4874 5.76256C27.1592 5.43437 26.7141 5.25 26.25 5.25ZM23.7703 15.75H13.125C12.8929 15.75 12.6704 15.6578 12.5063 15.4937C12.3422 15.3296 12.25 15.1071 12.25 14.875C12.25 14.6429 12.3422 14.4204 12.5063 14.2563C12.6704 14.0922 12.8929 14 13.125 14H23.7703C24.0023 14 24.2249 14.0922 24.389 14.2563C24.5531 14.4204 24.6453 14.6429 24.6453 14.875C24.6453 15.1071 24.5531 15.3296 24.389 15.4937C24.2249 15.6578 24.0023 15.75 23.7703 15.75ZM24.6453 18.375C24.6453 18.6071 24.5531 18.8296 24.389 18.9937C24.2249 19.1578 24.0023 19.25 23.7703 19.25H13.125C12.8929 19.25 12.6704 19.1578 12.5063 18.9937C12.3422 18.8296 12.25 18.6071 12.25 18.375C12.25 18.1429 12.3422 17.9204 12.5063 17.7563C12.6704 17.5922 12.8929 17.5 13.125 17.5H23.7703C24.0023 17.5 24.2249 17.5922 24.389 17.7563C24.5531 17.9204 24.6453 18.1429 24.6453 18.375ZM23.7703 12.25H13.125C12.8929 12.25 12.6704 12.1578 12.5063 11.9937C12.3422 11.8296 12.25 11.6071 12.25 11.375C12.25 11.1429 12.3422 10.9204 12.5063 10.7563C12.6704 10.5922 12.8929 10.5 13.125 10.5H23.7703C24.0023 10.5 24.2249 10.5922 24.389 10.7563C24.5531 10.9204 24.6453 11.1429 24.6453 11.375C24.6453 11.6071 24.5531 11.8296 24.389 11.9937C24.2249 12.1578 24.0023 12.25 23.7703 12.25ZM7.042 13.8232C8.95125 13.8232 10.5 15.8987 10.5 18.4607C10.5 21.0227 3.58225 21.0227 3.58225 18.4607C3.58225 15.8987 5.131 13.8232 7.042 13.8232ZM4.88425 10.864C4.88425 10.5865 4.93891 10.3117 5.0451 10.0553C5.1513 9.79897 5.30695 9.56602 5.50317 9.36979C5.69939 9.17357 5.93234 9.01792 6.18872 8.91173C6.44509 8.80553 6.71988 8.75088 6.99738 8.75088C7.27487 8.75088 7.54966 8.80553 7.80603 8.91173C8.06241 9.01792 8.29536 9.17357 8.49158 9.36979C8.6878 9.56602 8.84345 9.79897 8.94965 10.0553C9.05584 10.3117 9.1105 10.5865 9.1105 10.864C9.1105 11.1415 9.05584 11.4163 8.94965 11.6727C8.84345 11.929 8.6878 12.162 8.49158 12.3582C8.29536 12.5544 8.06241 12.7101 7.80603 12.8163C7.54966 12.9225 7.27487 12.9771 6.99738 12.9771C6.71988 12.9771 6.44509 12.9225 6.18872 12.8163C5.93234 12.7101 5.69939 12.5544 5.50317 12.3582C5.30695 12.162 5.1513 11.929 5.0451 11.6727C4.93891 11.4163 4.88425 11.1415 4.88425 10.864Z" fill="white"/>
</g>
<defs>
<clipPath id="clip0_5544_3979">
<rect width="28" height="28" fill="white"/>
</clipPath>
</defs>
</svg>
