<svg width="41" height="40" viewBox="0 0 41 40" fill="none" xmlns="http://www.w3.org/2000/svg">
<path d="M3.54787 24.4433C3.60386 24.6547 3.70118 24.853 3.8342 25.0266C3.96721 25.2003 4.1333 25.3459 4.32287 25.455L7.5062 27.295V30.96C7.5062 31.402 7.68179 31.8259 7.99435 32.1385C8.30691 32.451 8.73084 32.6266 9.17286 32.6266H12.8379L14.6779 35.81C14.8254 36.0622 15.0361 36.2717 15.2892 36.4178C15.5422 36.5639 15.829 36.6416 16.1212 36.6433C16.4112 36.6433 16.6995 36.5666 16.9562 36.4183L20.1362 34.58L23.3195 36.42C23.7022 36.6407 24.1568 36.7006 24.5836 36.5865C25.0104 36.4725 25.3746 36.1938 25.5962 35.8116L27.4345 32.6283H31.0995C31.5415 32.6283 31.9655 32.4527 32.278 32.1401C32.5906 31.8276 32.7662 31.4037 32.7662 30.9616V27.2966L35.9495 25.4566C36.1391 25.3471 36.3053 25.2012 36.4385 25.0274C36.5717 24.8535 36.6694 24.6551 36.7259 24.4435C36.7824 24.232 36.7966 24.0113 36.7678 23.7942C36.7389 23.5771 36.6676 23.3678 36.5578 23.1783L34.7195 19.9966L36.5595 16.8166C36.7807 16.434 36.8408 15.9793 36.7267 15.5524C36.6126 15.1254 36.3337 14.7613 35.9512 14.54L32.7679 12.7V9.03331C32.7679 8.59128 32.5923 8.16736 32.2797 7.8548C31.9671 7.54224 31.5432 7.36665 31.1012 7.36665H27.4362L25.5979 4.18498C25.3758 3.80317 25.0124 3.52416 24.5862 3.40831C24.3748 3.35101 24.1541 3.33623 23.937 3.36484C23.7198 3.39345 23.5105 3.46488 23.3212 3.57498L20.1362 5.41331L16.9545 3.57331C16.5719 3.35217 16.1172 3.29203 15.6902 3.4061C15.2633 3.52018 14.8992 3.79914 14.6779 4.18165L12.8379 7.36498H9.17286C8.73084 7.36498 8.30691 7.54057 7.99435 7.85313C7.68179 8.16569 7.5062 8.58962 7.5062 9.03164V12.6966L4.32287 14.5366C3.94047 14.7589 3.66174 15.1236 3.54772 15.551C3.4337 15.9783 3.49368 16.4334 3.71453 16.8166L5.55453 19.9966L3.71453 23.1766C3.49451 23.5605 3.43463 24.0156 3.54787 24.4433ZM20.1362 21.6633C14.3362 21.6633 13.4695 18.5316 13.4695 16.6633C13.4695 14.5183 15.1845 12.3583 18.4695 11.805V10.0166H21.8029V11.865C24.6929 12.5483 25.8029 14.9533 25.8029 16.6633H24.1362L22.4695 16.6933C22.4462 16.06 22.1112 14.9966 20.1362 14.9966C17.9712 14.9966 16.8029 15.855 16.8029 16.6633C16.8029 17.2866 16.8029 18.33 20.1362 18.33C25.9362 18.33 26.8029 21.4616 26.8029 23.33C26.8029 25.475 25.0879 27.635 21.8029 28.1883V29.9966H18.4695V28.1966C14.5712 27.585 13.4695 24.8583 13.4695 23.33H16.8029C16.8212 23.5683 17.0679 24.9966 20.1362 24.9966C22.4362 24.9966 23.4695 24.0216 23.4695 23.33C23.4695 22.7883 23.4695 21.6633 20.1362 21.6633Z" fill="#008951"/>
</svg>
