<svg width="23" height="19" viewBox="0 0 23 19" fill="none" xmlns="http://www.w3.org/2000/svg">
<path d="M9.89667 0.974931L0.86821 15.2939C0.682064 15.6002 0.58357 15.9474 0.582528 16.301C0.581486 16.6547 0.677931 17.0024 0.862269 17.3096C1.04661 17.6169 1.31241 17.8729 1.63324 18.0522C1.95407 18.2316 2.31873 18.328 2.69096 18.3319H20.7479C21.1201 18.328 21.4848 18.2316 21.8056 18.0522C22.1264 17.8729 22.3922 17.6169 22.5766 17.3096C22.7609 17.0024 22.8574 16.6547 22.8563 16.301C22.8553 15.9474 22.7568 15.6002 22.5706 15.2939L13.5422 0.974931C13.3521 0.677317 13.0846 0.431254 12.7653 0.260484C12.446 0.0897134 12.0858 0 11.7194 0C11.353 0 10.9928 0.0897134 10.6735 0.260484C10.3543 0.431254 10.0867 0.677317 9.89667 0.974931Z" fill="#C40606"/>
<path d="M11.7194 6.17993V10.2306" stroke="white" stroke-width="2" stroke-linecap="round" stroke-linejoin="round"/>
<path d="M11.7194 14.2812H11.7294" stroke="white" stroke-width="2" stroke-linecap="round" stroke-linejoin="round"/>
</svg>
