<?xml version="1.0" encoding="utf-8"?>
<!-- Generator: Adobe Illustrator 27.0.0, SVG Export Plug-In . SVG Version: 6.00 Build 0)  -->
<svg version="1.1" id="Layer_1" xmlns="http://www.w3.org/2000/svg" xmlns:xlink="http://www.w3.org/1999/xlink" x="0px" y="0px"
	 viewBox="0 0 300 200" enable-background="new 0 0 300 200" xml:space="preserve">
<g>
	<g>
		<path fill="#F8F9F9" d="M92,135.2c-0.8,0-1.5-0.7-1.5-1.5v-7.5c0-3.6-1.4-7-4-9.5c-2.5-2.5-5.9-4-9.5-4H47c-3.6,0-7,1.4-9.5,4
			c-2.5,2.6-4,5.9-4,9.5v7.5c0,0.8-0.7,1.5-1.5,1.5s-1.5-0.7-1.5-1.5v-7.5c0-4.4,1.7-8.6,4.8-11.7c3.1-3.1,7.3-4.8,11.7-4.8h30
			c4.4,0,8.6,1.7,11.7,4.8c3.1,3.1,4.8,7.3,4.8,11.7v7.5C93.5,134.6,92.8,135.2,92,135.2z"/>
	</g>
	<g>
		<path fill="#F8F9F9" d="M62,97.8c-9.1,0-16.5-7.4-16.5-16.5S52.9,64.8,62,64.8s16.5,7.4,16.5,16.5S71.1,97.8,62,97.8z M62,67.8
			c-7.4,0-13.5,6.1-13.5,13.5S54.6,94.8,62,94.8s13.5-6.1,13.5-13.5S69.4,67.8,62,67.8z"/>
	</g>
</g>
<path fill="#F8F9F9" d="M151.5,63h106c0.8,0,1.5,0.7,1.5,1.5l0,0c0,0.8-0.7,1.5-1.5,1.5h-106c-0.8,0-1.5-0.7-1.5-1.5l0,0
	C150,63.7,150.7,63,151.5,63z"/>
<path fill="#F8F9F9" d="M151.5,88h64c0.8,0,1.5,0.7,1.5,1.5l0,0c0,0.8-0.7,1.5-1.5,1.5h-64c-0.8,0-1.5-0.7-1.5-1.5l0,0
	C150,88.7,150.7,88,151.5,88z"/>
<path fill="#F8F9F9" d="M151.5,75h47c0.8,0,1.5,0.7,1.5,1.5l0,0c0,0.8-0.7,1.5-1.5,1.5h-47c-0.8,0-1.5-0.7-1.5-1.5l0,0
	C150,75.7,150.7,75,151.5,75z"/>
<path fill="#F8F9F9" d="M151.5,157h82c0.8,0,1.5,0.7,1.5,1.5l0,0c0,0.8-0.7,1.5-1.5,1.5h-82c-0.8,0-1.5-0.7-1.5-1.5l0,0
	C150,157.7,150.7,157,151.5,157z"/>
<path fill="#F8F9F9" d="M151.5,144h20c0.8,0,1.5,0.7,1.5,1.5l0,0c0,0.8-0.7,1.5-1.5,1.5h-20c-0.8,0-1.5-0.7-1.5-1.5l0,0
	C150,144.7,150.7,144,151.5,144z"/>
<path fill="#F8F9F9" d="M181.5,144h10c0.8,0,1.5,0.7,1.5,1.5l0,0c0,0.8-0.7,1.5-1.5,1.5h-10c-0.8,0-1.5-0.7-1.5-1.5l0,0
	C180,144.7,180.7,144,181.5,144z"/>
<g>
	<path fill="#F8F9F9" d="M292,200H8c-4.4,0-8-3.6-8-8V8c0-4.4,3.6-8,8-8h284c4.4,0,8,3.6,8,8v184C300,196.4,296.4,200,292,200z M8,2
		C4.7,2,2,4.7,2,8v184c0,3.3,2.7,6,6,6h284c3.3,0,6-2.7,6-6V8c0-3.3-2.7-6-6-6H8z"/>
</g>
</svg>
