<svg width="324" height="204" viewBox="0 0 324 204" fill="none" xmlns="http://www.w3.org/2000/svg">
<rect width="324" height="204" rx="10" fill="#F6F6F6"/>
<rect x="163" y="141" width="104" height="8" rx="2" fill="#DEDEDE"/>
<rect x="163" y="57" width="133" height="8" rx="2" fill="#DEDEDE"/>
<rect x="163" y="93" width="82" height="8" rx="2" fill="#DEDEDE"/>
<rect x="163" y="75" width="61" height="8" rx="2" fill="#DEDEDE"/>
<rect x="163" y="125" width="29" height="8" rx="2" fill="#DEDEDE"/>
<rect x="224" y="125" width="21" height="8" rx="2" fill="#DEDEDE"/>
<rect x="201" y="125" width="16" height="8" rx="2" fill="#DEDEDE"/>
<path d="M63 56.3087C69.1667 54.3087 82.4 53.1087 86 64.3087C90.8333 65.3087 100.6 70.4086 101 82.8086C101.304 84.4443 101.591 86.2967 101.837 88.3086C102.328 92.3242 102.654 96.9755 102.628 101.809C104.252 102.475 107.4 104.609 107 107.809C106.5 111.809 104.341 113.309 101.67 114.309C100.109 124.102 96.4166 133.044 89 137.309C88.5496 137.684 88.0479 138.071 87.5 138.459V142.809V144.809C75.9 155.209 62 149.142 56.5 144.809V142.809V138.231C56.1649 137.937 55.8315 137.629 55.5 137.309C50.5236 133.736 42.5578 125.142 41.61 114.309C41.502 113.309 37.5 113.309 37.5 107.809C37.5 103.409 40.8163 101.975 42.4744 101.809C39.4752 89.0989 39.8788 65.0265 63 56.3087Z" fill="#DEDEDE"/>
<path d="M43 103.809C42.6667 95.8087 45 80.4086 57 82.8086C72 85.8086 71 88.8086 86 75.8086C88.3914 75.9753 94.9068 78.7086 101.837 88.3086M43 103.809C42.8166 103.18 42.6403 102.512 42.4744 101.809M43 103.809C41.6874 107.465 41.3198 110.992 41.61 114.309M101.837 88.3086C101.591 86.2967 101.304 84.4443 101 82.8086C100.6 70.4086 90.8333 65.3087 86 64.3087C82.4 53.1087 69.1667 54.3087 63 56.3087C39.8788 65.0265 39.4752 89.0989 42.4744 101.809M101.837 88.3086C102.328 92.3242 102.654 96.9755 102.628 101.809M102.628 101.809C104.252 102.475 107.4 104.609 107 107.809C106.5 111.809 104.341 113.309 101.67 114.309M102.628 101.809C102.606 105.937 102.326 110.198 101.67 114.309M101.67 114.309C100.109 124.102 96.4166 133.044 89 137.309C88.5496 137.684 88.0479 138.071 87.5 138.459M42.4744 101.809C40.8163 101.975 37.5 103.409 37.5 107.809C37.5 113.309 41.502 113.309 41.61 114.309M41.61 114.309C42.5578 125.142 50.5236 133.736 55.5 137.309C55.8315 137.629 56.1649 137.937 56.5 138.231M56.5 138.231C67.7598 148.11 80.9434 143.114 87.5 138.459M56.5 138.231V142.809M87.5 138.459V142.809M56.5 142.809V144.809C62 149.142 75.9 155.209 87.5 144.809V142.809M56.5 142.809C48.1 142.23 34 145.901 28 147.809M87.5 142.809C91.6667 142.475 103.3 143.009 116.5 147.809" stroke="#AAA6A6" stroke-opacity="0.37" stroke-width="3"/>
<rect width="324" height="21" fill="#DEDEDE"/>
</svg>
