<svg width="34" height="33" viewBox="0 0 34 33" fill="none" xmlns="http://www.w3.org/2000/svg">
<path d="M16.104 1.06712C16.4713 0.32577 17.5287 0.325771 17.896 1.06712L22.3291 10.0138C22.4749 10.3081 22.756 10.512 23.0811 10.5593L32.9898 12.0021C33.8109 12.1217 34.1376 13.1316 33.5421 13.7094L26.3787 20.6599C26.1417 20.8899 26.0335 21.2219 26.0895 21.5473L27.7806 31.3693C27.9211 32.1857 27.0649 32.8092 26.331 32.4247L17.4641 27.7795C17.1734 27.6272 16.8266 27.6272 16.5359 27.7795L7.669 32.4247C6.93515 32.8092 6.07888 32.1857 6.21944 31.3693L7.91048 21.5473C7.9665 21.2219 7.8583 20.8899 7.62134 20.6599L0.457889 13.7094C-0.137625 13.1316 0.189059 12.1217 1.01016 12.0021L10.9189 10.5593C11.244 10.512 11.5251 10.3081 11.6709 10.0138L16.104 1.06712Z" fill="#D5CFCF"/>
</svg>
