<svg width="18" height="17" viewBox="0 0 18 17" fill="none" xmlns="http://www.w3.org/2000/svg">
<path d="M8.00754 1.00024C8.3764 0.264398 9.42664 0.264399 9.79549 1.00024L11.618 4.63613C11.7647 4.92883 12.0455 5.13117 12.3695 5.17781L16.4212 5.76097C17.2458 5.87968 17.5722 6.89573 16.9709 7.47247L14.0605 10.2639C13.8202 10.4944 13.7104 10.8293 13.7675 11.1572L14.4568 15.115C14.5988 15.9299 13.7463 16.555 13.0118 16.1746L9.36138 14.2842C9.07299 14.1348 8.73004 14.1348 8.44166 14.2842L4.79122 16.1746C4.0567 16.555 3.20427 15.9299 3.3462 15.115L4.03553 11.1572C4.09265 10.8293 3.98282 10.4944 3.74256 10.2639L0.832148 7.47247C0.23083 6.89573 0.557192 5.87968 1.38189 5.76097L5.4335 5.17781C5.75758 5.13117 6.03829 4.92883 6.18501 4.63613L8.00754 1.00024Z" fill="#E9E9E9"/>
</svg>
