<?xml version="1.0" encoding="utf-8"?>
<!-- Generator: Adobe Illustrator 27.0.0, SVG Export Plug-In . SVG Version: 6.00 Build 0)  -->
<svg version="1.1" id="Layer_1" xmlns="http://www.w3.org/2000/svg" xmlns:xlink="http://www.w3.org/1999/xlink" x="0px" y="0px"
	 viewBox="0 0 179.8 173.8" enable-background="new 0 0 179.8 173.8" xml:space="preserve">
<g>
	<path fill="#149359" d="M147.5,87.5v75.2c0,2.1-1.7,3.7-3.7,3.7H35.2c-2.1,0-3.7-1.7-3.7-3.7V87.5l51.8-40.9c3.5-3,8.7-3,12.3,0
		L147.5,87.5z"/>
	<path fill="#5CA904" d="M165.5,90.1L89.4,29.7L66.4,48v-7.3c0-1.6-1.3-2.9-2.9-2.9h-4.7c-1.6,0-2.9,1.3-2.9,2.9v15.7L13.4,90.1
		C11,92,11,95,13.4,96.8c1.2,0.9,2.7,1.4,4.2,1.4c1.5,0,3.1-0.5,4.2-1.4l60.8-48.3c3.8-3,9.8-3,13.6,0l60.8,48.3
		c2.4,1.8,6.1,1.8,8.5,0c1.2-0.9,1.8-2.1,1.8-3.4C167.2,92.3,166.6,91.1,165.5,90.1z"/>
	<text transform="matrix(1 0 0 1 39.9738 137.4348)" fill="#FFFFFF" font-family="'Arial-BoldMT'" font-size="17.9566px">Help Abode</text>
	<g>
		<g>
			<path fill="#5CA904" d="M76.1,18c-0.1-0.7-0.1-1.4-0.4-2c-0.6,1.9-1.9,3.5-3.4,4.7c-2.3,1.8-5.1,2.7-7.4,4.5
				c-2.1,1.7-3.5,4.1-4,6.7c-0.1,0.7-0.2,1.3-0.2,2c0,0.4-0.1,1.6,0.2,1.8c0.1,0.1,0.8,0.1,1.1,0.1c0.4,0,0.8,0,1.2,0
				c0.8,0,1.5-0.1,2.3-0.2c1.2-0.2,2.2-0.5,3.2-1.1c2.1-1.2,3.9-3,5.1-5.1s1.8-4.5,2.2-7C76.2,21,76.2,19.5,76.1,18z M73.6,25.6
				L73.6,25.6C73.6,25.6,73.6,25.6,73.6,25.6C73.6,25.7,73.5,25.7,73.6,25.6z"/>
			<path fill="#5CA904" d="M55,7.6c-0.5-0.3-1.2-0.6-1.8-0.8c1.1,1.5,1.6,3.4,1.6,5.3c0,2.7-0.9,5.4-0.8,8.2
				c0.1,2.5,1.2,5.1,2.8,6.9c0.5,0.5,0.9,0.9,1.4,1.3c0.3,0.2,1.2,1,1.5,0.9c0.2-0.1,0.5-0.6,0.7-0.8c0.2-0.3,0.5-0.6,0.7-0.9
				c0.5-0.6,0.8-1.2,1.2-1.9c0.5-1,0.8-2,1-3.1c0.4-2.3-0.1-4.7-1-6.8s-2.4-4-4-5.7C57.3,9.3,56.2,8.3,55,7.6z M59.3,14
				C59.3,14,59.3,14,59.3,14C59.4,13.9,59.4,13.9,59.3,14C59.4,14,59.4,14,59.3,14z"/>
			<path fill="#5CA904" d="M50.2,27.5c0.2,1.5,0.6,3,1.4,4.4c0.8,1.3,1.8,2.5,3.1,3.2c0.6,0.3,1.3,0.5,2,0.7c0.5,0.1,1,0.1,1.4,0.1
				c0.2,0,0.5,0,0.8,0c0.1,0,0.5,0.1,0.7-0.1c0.2-0.1,0.1-0.9,0.1-1.2c0-0.4-0.1-0.8-0.1-1.2c-0.3-1.6-1.2-3.1-2.5-4.2
				c-1.4-1.2-3.2-1.7-4.7-2.8c-1-0.8-1.8-1.8-2.1-3c-0.1,0.4-0.1,0.8-0.2,1.2C50.1,25.6,50.1,26.6,50.2,27.5z M51.7,29.5
				C51.7,29.5,51.7,29.4,51.7,29.5C51.7,29.4,51.7,29.4,51.7,29.5L51.7,29.5z"/>
		</g>
	</g>
	<g>
		<path fill="#FFFFFF" d="M100.9,101.5h-7.4c-1,0-1.9-0.9-1.9-1.9v-7.4c0-1,0.9-1.9,1.9-1.9h7.4c1,0,1.9,0.9,1.9,1.9v7.4
			C102.8,100.7,101.9,101.5,100.9,101.5z"/>
		<path fill="#FFFFFF" d="M85.9,101.5h-7.7c-1,0-1.9-0.9-1.9-1.9v-7.4c0-1,0.9-1.9,1.9-1.9h7.7c1,0,1.9,0.9,1.9,1.9v7.4
			C87.8,100.7,86.9,101.5,85.9,101.5z"/>
		<path fill="#FFFFFF" d="M86.1,115.7H78c-0.9,0-1.7-0.8-1.7-1.7v-7.3c0-0.9,0.8-1.7,1.7-1.7h8.1c0.9,0,1.7,0.8,1.7,1.7v7.3
			C87.8,114.9,87,115.7,86.1,115.7z"/>
		<path fill="#FFFFFF" d="M101.1,115.7h-7.9c-0.9,0-1.7-0.8-1.7-1.7v-7.3c0-0.9,0.8-1.7,1.7-1.7h7.9c0.9,0,1.7,0.8,1.7,1.7v7.3
			C102.8,114.9,102,115.7,101.1,115.7z"/>
	</g>
	<path fill="#EAFF00" d="M53.9,144.6c0,0,33.8,36.9,71.2,0.8c0.5-0.8-0.3-2.5-1.5-1.5c-1.4,0-35.1,22.3-68.5-0.5
		C54.9,143.5,53.4,142.8,53.9,144.6z"/>
</g>
</svg>
