<svg width="88" height="96" viewBox="0 0 88 96" fill="none" xmlns="http://www.w3.org/2000/svg">
<g filter="url(#filter0_dd_6930_6957)">
<path d="M54.0227 42.5988C52.4526 44.9836 50.0852 46.7281 47.3485 47.5233L43.9024 53.0322L40.0982 47.3562L40.1005 47.3487C37.8124 46.5625 35.8032 45.0982 34.3511 43.1343C32.6035 40.7707 31.7843 37.848 32.0487 34.9205C32.3131 31.993 33.6428 29.2644 35.7856 27.2522C37.9284 25.2401 40.7351 24.0844 43.6735 24.0044C46.6118 23.9245 49.4773 24.9257 51.7263 26.8183C53.9754 28.7109 55.4516 31.3631 55.8749 34.2719C56.2982 37.1807 55.6391 40.1437 54.0227 42.5988Z" fill="black"/>
<path d="M43.9693 55.7418C44.3969 55.7418 44.7435 55.3952 44.7435 54.9677C44.7435 54.5401 44.3969 54.1935 43.9693 54.1935C43.5417 54.1935 43.1951 54.5401 43.1951 54.9677C43.1951 55.3952 43.5417 55.7418 43.9693 55.7418Z" fill="black"/>
</g>
<path d="M41.9093 38.8645C42.5507 38.8645 43.0706 38.3446 43.0706 37.7032V37.0065C43.0706 36.4934 43.4866 36.0774 43.9996 36.0774V36.0774C44.5127 36.0774 44.9287 36.4934 44.9287 37.0065V37.7032C44.9287 38.3446 45.4486 38.8645 46.09 38.8645V38.8645C46.7313 38.8645 47.2512 38.3446 47.2512 37.7032V35.5349C47.2512 35.3214 47.4243 35.1484 47.6377 35.1484V35.1484C47.9919 35.1484 48.1595 34.7116 47.8962 34.4747L45.1921 32.041C44.5142 31.4309 43.4851 31.4309 42.8072 32.041L40.1031 34.4747C39.8398 34.7116 40.0074 35.1484 40.3616 35.1484V35.1484C40.575 35.1484 40.748 35.3214 40.748 35.5349V37.7032C40.748 38.3446 41.268 38.8645 41.9093 38.8645V38.8645Z" fill="white"/>
<defs>
<filter id="filter0_dd_6930_6957" x="0" y="0" width="88" height="95.7419" filterUnits="userSpaceOnUse" color-interpolation-filters="sRGB">
<feFlood flood-opacity="0" result="BackgroundImageFix"/>
<feColorMatrix in="SourceAlpha" type="matrix" values="0 0 0 0 0 0 0 0 0 0 0 0 0 0 0 0 0 0 127 0" result="hardAlpha"/>
<feOffset dy="8"/>
<feGaussianBlur stdDeviation="16"/>
<feComposite in2="hardAlpha" operator="out"/>
<feColorMatrix type="matrix" values="0 0 0 0 0.0666667 0 0 0 0 0.0666667 0 0 0 0 0.101961 0 0 0 0.05 0"/>
<feBlend mode="normal" in2="BackgroundImageFix" result="effect1_dropShadow_6930_6957"/>
<feColorMatrix in="SourceAlpha" type="matrix" values="0 0 0 0 0 0 0 0 0 0 0 0 0 0 0 0 0 0 127 0" result="hardAlpha"/>
<feOffset dy="4"/>
<feGaussianBlur stdDeviation="8"/>
<feComposite in2="hardAlpha" operator="out"/>
<feColorMatrix type="matrix" values="0 0 0 0 0.0666667 0 0 0 0 0.0666667 0 0 0 0 0.101961 0 0 0 0.05 0"/>
<feBlend mode="normal" in2="effect1_dropShadow_6930_6957" result="effect2_dropShadow_6930_6957"/>
<feBlend mode="normal" in="SourceGraphic" in2="effect2_dropShadow_6930_6957" result="shape"/>
</filter>
</defs>
</svg>
