<svg width="21" height="22" viewBox="0 0 21 22" fill="none" xmlns="http://www.w3.org/2000/svg">
<mask id="path-1-outside-1_1808_5683" maskUnits="userSpaceOnUse" x="0" y="0" width="21" height="22" fill="black">
<rect fill="white" width="21" height="22"/>
<path fill-rule="evenodd" clip-rule="evenodd" d="M10.5586 1.00033C10.6641 0.996421 10.7734 1.02767 10.8633 1.08236C10.9414 1.13314 11.0391 1.23861 11.0781 1.31673C11.1406 1.44564 11.1523 1.56283 11.1523 2.1683C11.1523 2.7933 11.1445 2.88705 11.0742 3.02767C11.0221 3.13184 10.944 3.20996 10.8398 3.26205C10.7539 3.30501 10.6289 3.34017 10.5664 3.34017C10.5 3.34017 10.3789 3.30501 10.293 3.26205C10.1888 3.20996 10.1107 3.13184 10.0586 3.02767C9.98828 2.88705 9.98047 2.7933 9.98047 2.1683C9.98047 1.56283 9.99219 1.44564 10.0547 1.31673C10.0938 1.23861 10.1836 1.13314 10.2578 1.08627C10.3359 1.03548 10.457 1.00033 10.5547 1.00033H10.5586ZM10.5313 4.51595C10.7578 4.51595 11.125 4.53939 11.3516 4.56673C11.5781 4.59798 11.9102 4.66048 12.0938 4.70736C12.2773 4.75423 12.6016 4.86361 12.8164 4.94564C13.0313 5.03158 13.3477 5.18392 13.5195 5.28158C13.6914 5.37923 13.9375 5.53548 14.0664 5.62923C14.1953 5.71908 14.4219 5.90267 14.5742 6.03548C14.7266 6.1683 14.9688 6.41048 15.1133 6.57455C15.2578 6.73861 15.4727 7.01595 15.5859 7.18783C15.6992 7.3597 15.8672 7.64095 15.9531 7.81283C16.0391 7.9847 16.1641 8.25814 16.2266 8.4183C16.2891 8.57845 16.3867 8.89486 16.4414 9.12142C16.5 9.34798 16.5664 9.71517 16.5898 9.94173C16.6172 10.1761 16.625 10.5511 16.6133 10.8206C16.6016 11.0785 16.5508 11.4808 16.5078 11.7191C16.4609 11.9574 16.3594 12.3245 16.2852 12.5394C16.2109 12.7542 16.0742 13.0785 15.9805 13.262C15.8906 13.4456 15.7031 13.762 15.5664 13.9652C15.4297 14.1683 15.1406 14.5199 14.9258 14.7464C14.7109 14.973 14.4805 15.2269 14.4102 15.3128C14.3438 15.3988 14.2266 15.6019 14.1484 15.762C14.0703 15.9222 13.9805 16.1761 13.9492 16.3285C13.9063 16.5394 13.8906 16.9144 13.8906 18.0003C13.8906 18.8831 13.875 19.4691 13.8477 19.6019C13.8242 19.7113 13.7539 19.9066 13.6914 20.0316C13.6289 20.1527 13.5117 20.3285 13.4297 20.4183C13.3516 20.5081 13.1953 20.637 13.0898 20.7035C12.9805 20.7738 12.7891 20.8675 12.6602 20.9105C12.4336 20.9925 12.3633 20.9964 10.5703 20.9964C8.86719 20.9964 8.69922 20.9925 8.51953 20.9261C8.41016 20.887 8.25391 20.8206 8.16797 20.7816C8.08203 20.7386 7.90625 20.6019 7.77735 20.4691C7.64063 20.3363 7.49609 20.1449 7.4375 20.0199C7.38281 19.9027 7.32031 19.7113 7.29297 19.6019C7.26563 19.4691 7.25 18.8909 7.25 18.0003C7.25 16.9144 7.23438 16.5394 7.19141 16.3285C7.16016 16.1761 7.07031 15.9222 6.99219 15.762C6.91406 15.6019 6.79688 15.3988 6.73047 15.3128C6.66016 15.2269 6.42969 14.973 6.21484 14.7464C6 14.5199 5.71094 14.1683 5.57422 13.9652C5.4375 13.762 5.25 13.4456 5.16016 13.262C5.06641 13.0785 4.92969 12.7542 4.85547 12.5394C4.78125 12.3245 4.67969 11.9574 4.63281 11.7191C4.58984 11.4808 4.53906 11.0785 4.52734 10.8206C4.51563 10.5511 4.52344 10.18 4.55078 9.94173C4.57813 9.71517 4.63281 9.38314 4.67578 9.19955C4.71875 9.01595 4.80078 8.7347 4.85547 8.57455C4.91016 8.41439 5.04297 8.1058 5.14844 7.89095C5.25781 7.67611 5.4375 7.3597 5.55469 7.18783C5.66797 7.01595 5.875 6.75033 6.00781 6.59798C6.14453 6.44173 6.39453 6.19173 6.56641 6.03939C6.73828 5.88314 7.01953 5.66439 7.19141 5.55111C7.36328 5.43783 7.64453 5.26986 7.81641 5.18392C7.98828 5.09798 8.24219 4.9808 8.38281 4.92611C8.52344 4.86751 8.80469 4.77767 9.00781 4.72298C9.21094 4.66439 9.54688 4.59798 9.75 4.57064C9.95313 4.5433 10.3047 4.51986 10.5313 4.51595ZM9.22266 5.87533C9.05078 5.9222 8.73438 6.0433 8.51953 6.14876C8.30469 6.25033 7.98828 6.42611 7.81641 6.5433C7.64453 6.66048 7.33594 6.9222 7.12891 7.12533C6.92188 7.33236 6.66016 7.64095 6.54688 7.81283C6.42969 7.9847 6.25391 8.30111 6.15234 8.51595C6.04688 8.7308 5.92188 9.07455 5.86719 9.27767C5.8125 9.4808 5.75 9.80892 5.72266 10.0003C5.69531 10.2113 5.6875 10.5394 5.69922 10.8206C5.71484 11.1175 5.76172 11.4417 5.82422 11.6995C5.88281 11.9261 5.98438 12.2503 6.05859 12.4222C6.12891 12.5941 6.25391 12.848 6.33594 12.9886C6.41406 13.1292 6.55469 13.3402 6.64063 13.4574C6.72656 13.5745 6.97656 13.8558 7.19141 14.0824C7.40625 14.3089 7.64844 14.5824 7.72656 14.6878C7.80469 14.7972 7.94922 15.0511 8.04688 15.2542C8.14453 15.4574 8.26172 15.766 8.30078 15.9378C8.34375 16.1097 8.38672 16.3324 8.39844 16.4378L8.42188 16.6214H12.7188C12.7539 16.3324 12.7891 16.137 12.8203 15.9964C12.8555 15.8558 12.9297 15.6214 12.9883 15.4691C13.0508 15.3167 13.1563 15.098 13.2266 14.9808C13.2969 14.8636 13.4063 14.6956 13.4727 14.6097C13.5391 14.5238 13.7695 14.2699 13.9883 14.0433C14.2031 13.8167 14.4766 13.4925 14.5938 13.3206C14.707 13.1488 14.8711 12.8753 14.9492 12.7152C15.0313 12.555 15.1406 12.2894 15.1953 12.1292C15.2461 11.9691 15.3203 11.6956 15.3555 11.5238C15.3906 11.3519 15.4297 11.0277 15.4414 10.8011C15.457 10.5589 15.4453 10.2308 15.4141 10.0003C15.3867 9.78548 15.3242 9.44955 15.2695 9.25814C15.2188 9.06673 15.0938 8.7308 14.9883 8.51595C14.8867 8.30111 14.7109 7.9847 14.5938 7.81283C14.4805 7.64095 14.2188 7.33236 14.0117 7.12533C13.8047 6.9183 13.4961 6.65658 13.3242 6.5433C13.1523 6.42611 12.8359 6.25033 12.6211 6.14876C12.4063 6.0472 12.0977 5.92611 11.9375 5.87923C11.7773 5.83626 11.4766 5.77376 11.2734 5.74251C11.0703 5.71126 10.7344 5.68783 10.5313 5.68783C10.3281 5.69173 10.0195 5.71517 9.84766 5.74251C9.67578 5.76595 9.39453 5.82845 9.22266 5.87533ZM8.42188 18.5745C8.42188 19.262 8.42969 19.3714 8.4961 19.5003C8.53906 19.5863 8.63281 19.6839 8.71875 19.7347C8.8711 19.8206 8.88672 19.8206 10.5586 19.8245C12.1719 19.8245 12.2578 19.8206 12.4063 19.7464C12.5104 19.6943 12.5885 19.6162 12.6406 19.512C12.7109 19.3714 12.7188 19.2777 12.7188 18.5745V17.7933H8.42188V18.5745ZM2.16016 9.9808C2.80078 9.9808 2.89063 9.98861 3.03125 10.0589C3.13542 10.111 3.21354 10.1891 3.26563 10.2933C3.30859 10.3792 3.34375 10.5003 3.34375 10.5667C3.34375 10.6292 3.30859 10.7542 3.26563 10.8402C3.21354 10.9443 3.13542 11.0225 3.03125 11.0745C2.89063 11.1449 2.79688 11.1527 2.17188 11.1527C1.54688 11.1527 1.45313 11.1449 1.3125 11.0745C1.20833 11.0225 1.13021 10.9443 1.07813 10.8402C1.03516 10.7542 1 10.6292 1 10.5667C1 10.5003 1.03516 10.3792 1.07813 10.2933C1.12891 10.1956 1.21094 10.1097 1.30469 10.0589C1.43359 9.99251 1.53125 9.9847 2.16406 9.9808H2.16016ZM18.9531 9.9808C19.5938 9.9808 19.6836 9.98861 19.8242 10.0589C19.9284 10.111 20.0065 10.1891 20.0586 10.2933C20.1016 10.3792 20.1367 10.5003 20.1367 10.5667C20.1367 10.6292 20.1016 10.7542 20.0586 10.8402C20.0065 10.9443 19.9284 11.0225 19.8242 11.0745C19.6836 11.1449 19.5898 11.1527 18.9648 11.1527C18.3398 11.1527 18.2461 11.1449 18.1055 11.0745C18.0013 11.0225 17.9232 10.9443 17.8711 10.8402C17.8281 10.7542 17.793 10.6292 17.793 10.5667C17.793 10.5003 17.8281 10.3792 17.8711 10.2933C17.9219 10.1956 18.0039 10.1097 18.0977 10.0589C18.2266 9.99251 18.3242 9.9847 18.957 9.9808H18.9531ZM4.19531 3.61361C4.20703 3.61361 4.28516 3.63314 4.37109 3.65658C4.49219 3.69173 4.63672 3.80501 4.98828 4.15658C5.24219 4.40658 5.48828 4.6722 5.53125 4.74642C5.58594 4.83626 5.61328 4.94173 5.60938 5.05892C5.60547 5.15658 5.57031 5.28548 5.53125 5.35189C5.49219 5.41439 5.40625 5.50033 5.34375 5.53939C5.28125 5.57845 5.15234 5.6097 5.05469 5.61361C4.9375 5.61751 4.83203 5.59017 4.74219 5.53548C4.66797 5.49251 4.40234 5.24642 4.15234 4.99251C3.80078 4.63705 3.6875 4.49642 3.65234 4.37533C3.625 4.26986 3.625 4.1722 3.64844 4.07064C3.67188 3.99251 3.72656 3.88314 3.77734 3.82845C3.82422 3.77376 3.93359 3.70345 4.01953 3.6722C4.10547 3.64095 4.18359 3.61751 4.19531 3.61361ZM16.9883 3.64095C17.0547 3.65267 17.1523 3.68783 17.2148 3.71517C17.2734 3.74642 17.3477 3.80892 17.3789 3.8558C17.4102 3.90658 17.4531 4.00814 17.4766 4.08236C17.5039 4.17611 17.5 4.26595 17.4727 4.37533C17.4375 4.49642 17.3242 4.63705 16.9727 4.99251C16.7227 5.24642 16.457 5.49251 16.3828 5.53548C16.293 5.59017 16.1875 5.61751 16.0703 5.61361C15.9727 5.6097 15.8438 5.57845 15.7813 5.53939C15.7188 5.50033 15.6328 5.41439 15.5938 5.35189C15.5547 5.28548 15.5195 5.15658 15.5195 5.05892C15.5156 4.96126 15.543 4.82845 15.5742 4.76595C15.6094 4.69955 15.8438 4.44173 16.0977 4.18783C16.4141 3.87533 16.6094 3.71126 16.7148 3.6722C16.8008 3.64095 16.9219 3.62533 16.9883 3.64095Z"/>
</mask>
<path fill-rule="evenodd" clip-rule="evenodd" d="M10.5586 1.00033C10.6641 0.996421 10.7734 1.02767 10.8633 1.08236C10.9414 1.13314 11.0391 1.23861 11.0781 1.31673C11.1406 1.44564 11.1523 1.56283 11.1523 2.1683C11.1523 2.7933 11.1445 2.88705 11.0742 3.02767C11.0221 3.13184 10.944 3.20996 10.8398 3.26205C10.7539 3.30501 10.6289 3.34017 10.5664 3.34017C10.5 3.34017 10.3789 3.30501 10.293 3.26205C10.1888 3.20996 10.1107 3.13184 10.0586 3.02767C9.98828 2.88705 9.98047 2.7933 9.98047 2.1683C9.98047 1.56283 9.99219 1.44564 10.0547 1.31673C10.0938 1.23861 10.1836 1.13314 10.2578 1.08627C10.3359 1.03548 10.457 1.00033 10.5547 1.00033H10.5586ZM10.5313 4.51595C10.7578 4.51595 11.125 4.53939 11.3516 4.56673C11.5781 4.59798 11.9102 4.66048 12.0938 4.70736C12.2773 4.75423 12.6016 4.86361 12.8164 4.94564C13.0313 5.03158 13.3477 5.18392 13.5195 5.28158C13.6914 5.37923 13.9375 5.53548 14.0664 5.62923C14.1953 5.71908 14.4219 5.90267 14.5742 6.03548C14.7266 6.1683 14.9688 6.41048 15.1133 6.57455C15.2578 6.73861 15.4727 7.01595 15.5859 7.18783C15.6992 7.3597 15.8672 7.64095 15.9531 7.81283C16.0391 7.9847 16.1641 8.25814 16.2266 8.4183C16.2891 8.57845 16.3867 8.89486 16.4414 9.12142C16.5 9.34798 16.5664 9.71517 16.5898 9.94173C16.6172 10.1761 16.625 10.5511 16.6133 10.8206C16.6016 11.0785 16.5508 11.4808 16.5078 11.7191C16.4609 11.9574 16.3594 12.3245 16.2852 12.5394C16.2109 12.7542 16.0742 13.0785 15.9805 13.262C15.8906 13.4456 15.7031 13.762 15.5664 13.9652C15.4297 14.1683 15.1406 14.5199 14.9258 14.7464C14.7109 14.973 14.4805 15.2269 14.4102 15.3128C14.3438 15.3988 14.2266 15.6019 14.1484 15.762C14.0703 15.9222 13.9805 16.1761 13.9492 16.3285C13.9063 16.5394 13.8906 16.9144 13.8906 18.0003C13.8906 18.8831 13.875 19.4691 13.8477 19.6019C13.8242 19.7113 13.7539 19.9066 13.6914 20.0316C13.6289 20.1527 13.5117 20.3285 13.4297 20.4183C13.3516 20.5081 13.1953 20.637 13.0898 20.7035C12.9805 20.7738 12.7891 20.8675 12.6602 20.9105C12.4336 20.9925 12.3633 20.9964 10.5703 20.9964C8.86719 20.9964 8.69922 20.9925 8.51953 20.9261C8.41016 20.887 8.25391 20.8206 8.16797 20.7816C8.08203 20.7386 7.90625 20.6019 7.77735 20.4691C7.64063 20.3363 7.49609 20.1449 7.4375 20.0199C7.38281 19.9027 7.32031 19.7113 7.29297 19.6019C7.26563 19.4691 7.25 18.8909 7.25 18.0003C7.25 16.9144 7.23438 16.5394 7.19141 16.3285C7.16016 16.1761 7.07031 15.9222 6.99219 15.762C6.91406 15.6019 6.79688 15.3988 6.73047 15.3128C6.66016 15.2269 6.42969 14.973 6.21484 14.7464C6 14.5199 5.71094 14.1683 5.57422 13.9652C5.4375 13.762 5.25 13.4456 5.16016 13.262C5.06641 13.0785 4.92969 12.7542 4.85547 12.5394C4.78125 12.3245 4.67969 11.9574 4.63281 11.7191C4.58984 11.4808 4.53906 11.0785 4.52734 10.8206C4.51563 10.5511 4.52344 10.18 4.55078 9.94173C4.57813 9.71517 4.63281 9.38314 4.67578 9.19955C4.71875 9.01595 4.80078 8.7347 4.85547 8.57455C4.91016 8.41439 5.04297 8.1058 5.14844 7.89095C5.25781 7.67611 5.4375 7.3597 5.55469 7.18783C5.66797 7.01595 5.875 6.75033 6.00781 6.59798C6.14453 6.44173 6.39453 6.19173 6.56641 6.03939C6.73828 5.88314 7.01953 5.66439 7.19141 5.55111C7.36328 5.43783 7.64453 5.26986 7.81641 5.18392C7.98828 5.09798 8.24219 4.9808 8.38281 4.92611C8.52344 4.86751 8.80469 4.77767 9.00781 4.72298C9.21094 4.66439 9.54688 4.59798 9.75 4.57064C9.95313 4.5433 10.3047 4.51986 10.5313 4.51595ZM9.22266 5.87533C9.05078 5.9222 8.73438 6.0433 8.51953 6.14876C8.30469 6.25033 7.98828 6.42611 7.81641 6.5433C7.64453 6.66048 7.33594 6.9222 7.12891 7.12533C6.92188 7.33236 6.66016 7.64095 6.54688 7.81283C6.42969 7.9847 6.25391 8.30111 6.15234 8.51595C6.04688 8.7308 5.92188 9.07455 5.86719 9.27767C5.8125 9.4808 5.75 9.80892 5.72266 10.0003C5.69531 10.2113 5.6875 10.5394 5.69922 10.8206C5.71484 11.1175 5.76172 11.4417 5.82422 11.6995C5.88281 11.9261 5.98438 12.2503 6.05859 12.4222C6.12891 12.5941 6.25391 12.848 6.33594 12.9886C6.41406 13.1292 6.55469 13.3402 6.64063 13.4574C6.72656 13.5745 6.97656 13.8558 7.19141 14.0824C7.40625 14.3089 7.64844 14.5824 7.72656 14.6878C7.80469 14.7972 7.94922 15.0511 8.04688 15.2542C8.14453 15.4574 8.26172 15.766 8.30078 15.9378C8.34375 16.1097 8.38672 16.3324 8.39844 16.4378L8.42188 16.6214H12.7188C12.7539 16.3324 12.7891 16.137 12.8203 15.9964C12.8555 15.8558 12.9297 15.6214 12.9883 15.4691C13.0508 15.3167 13.1563 15.098 13.2266 14.9808C13.2969 14.8636 13.4063 14.6956 13.4727 14.6097C13.5391 14.5238 13.7695 14.2699 13.9883 14.0433C14.2031 13.8167 14.4766 13.4925 14.5938 13.3206C14.707 13.1488 14.8711 12.8753 14.9492 12.7152C15.0313 12.555 15.1406 12.2894 15.1953 12.1292C15.2461 11.9691 15.3203 11.6956 15.3555 11.5238C15.3906 11.3519 15.4297 11.0277 15.4414 10.8011C15.457 10.5589 15.4453 10.2308 15.4141 10.0003C15.3867 9.78548 15.3242 9.44955 15.2695 9.25814C15.2188 9.06673 15.0938 8.7308 14.9883 8.51595C14.8867 8.30111 14.7109 7.9847 14.5938 7.81283C14.4805 7.64095 14.2188 7.33236 14.0117 7.12533C13.8047 6.9183 13.4961 6.65658 13.3242 6.5433C13.1523 6.42611 12.8359 6.25033 12.6211 6.14876C12.4063 6.0472 12.0977 5.92611 11.9375 5.87923C11.7773 5.83626 11.4766 5.77376 11.2734 5.74251C11.0703 5.71126 10.7344 5.68783 10.5313 5.68783C10.3281 5.69173 10.0195 5.71517 9.84766 5.74251C9.67578 5.76595 9.39453 5.82845 9.22266 5.87533ZM8.42188 18.5745C8.42188 19.262 8.42969 19.3714 8.4961 19.5003C8.53906 19.5863 8.63281 19.6839 8.71875 19.7347C8.8711 19.8206 8.88672 19.8206 10.5586 19.8245C12.1719 19.8245 12.2578 19.8206 12.4063 19.7464C12.5104 19.6943 12.5885 19.6162 12.6406 19.512C12.7109 19.3714 12.7188 19.2777 12.7188 18.5745V17.7933H8.42188V18.5745ZM2.16016 9.9808C2.80078 9.9808 2.89063 9.98861 3.03125 10.0589C3.13542 10.111 3.21354 10.1891 3.26563 10.2933C3.30859 10.3792 3.34375 10.5003 3.34375 10.5667C3.34375 10.6292 3.30859 10.7542 3.26563 10.8402C3.21354 10.9443 3.13542 11.0225 3.03125 11.0745C2.89063 11.1449 2.79688 11.1527 2.17188 11.1527C1.54688 11.1527 1.45313 11.1449 1.3125 11.0745C1.20833 11.0225 1.13021 10.9443 1.07813 10.8402C1.03516 10.7542 1 10.6292 1 10.5667C1 10.5003 1.03516 10.3792 1.07813 10.2933C1.12891 10.1956 1.21094 10.1097 1.30469 10.0589C1.43359 9.99251 1.53125 9.9847 2.16406 9.9808H2.16016ZM18.9531 9.9808C19.5938 9.9808 19.6836 9.98861 19.8242 10.0589C19.9284 10.111 20.0065 10.1891 20.0586 10.2933C20.1016 10.3792 20.1367 10.5003 20.1367 10.5667C20.1367 10.6292 20.1016 10.7542 20.0586 10.8402C20.0065 10.9443 19.9284 11.0225 19.8242 11.0745C19.6836 11.1449 19.5898 11.1527 18.9648 11.1527C18.3398 11.1527 18.2461 11.1449 18.1055 11.0745C18.0013 11.0225 17.9232 10.9443 17.8711 10.8402C17.8281 10.7542 17.793 10.6292 17.793 10.5667C17.793 10.5003 17.8281 10.3792 17.8711 10.2933C17.9219 10.1956 18.0039 10.1097 18.0977 10.0589C18.2266 9.99251 18.3242 9.9847 18.957 9.9808H18.9531ZM4.19531 3.61361C4.20703 3.61361 4.28516 3.63314 4.37109 3.65658C4.49219 3.69173 4.63672 3.80501 4.98828 4.15658C5.24219 4.40658 5.48828 4.6722 5.53125 4.74642C5.58594 4.83626 5.61328 4.94173 5.60938 5.05892C5.60547 5.15658 5.57031 5.28548 5.53125 5.35189C5.49219 5.41439 5.40625 5.50033 5.34375 5.53939C5.28125 5.57845 5.15234 5.6097 5.05469 5.61361C4.9375 5.61751 4.83203 5.59017 4.74219 5.53548C4.66797 5.49251 4.40234 5.24642 4.15234 4.99251C3.80078 4.63705 3.6875 4.49642 3.65234 4.37533C3.625 4.26986 3.625 4.1722 3.64844 4.07064C3.67188 3.99251 3.72656 3.88314 3.77734 3.82845C3.82422 3.77376 3.93359 3.70345 4.01953 3.6722C4.10547 3.64095 4.18359 3.61751 4.19531 3.61361ZM16.9883 3.64095C17.0547 3.65267 17.1523 3.68783 17.2148 3.71517C17.2734 3.74642 17.3477 3.80892 17.3789 3.8558C17.4102 3.90658 17.4531 4.00814 17.4766 4.08236C17.5039 4.17611 17.5 4.26595 17.4727 4.37533C17.4375 4.49642 17.3242 4.63705 16.9727 4.99251C16.7227 5.24642 16.457 5.49251 16.3828 5.53548C16.293 5.59017 16.1875 5.61751 16.0703 5.61361C15.9727 5.6097 15.8438 5.57845 15.7813 5.53939C15.7188 5.50033 15.6328 5.41439 15.5938 5.35189C15.5547 5.28548 15.5195 5.15658 15.5195 5.05892C15.5156 4.96126 15.543 4.82845 15.5742 4.76595C15.6094 4.69955 15.8438 4.44173 16.0977 4.18783C16.4141 3.87533 16.6094 3.71126 16.7148 3.6722C16.8008 3.64095 16.9219 3.62533 16.9883 3.64095Z" fill="black"/>
<path fill-rule="evenodd" clip-rule="evenodd" d="M10.5586 1.00033C10.6641 0.996421 10.7734 1.02767 10.8633 1.08236C10.9414 1.13314 11.0391 1.23861 11.0781 1.31673C11.1406 1.44564 11.1523 1.56283 11.1523 2.1683C11.1523 2.7933 11.1445 2.88705 11.0742 3.02767C11.0221 3.13184 10.944 3.20996 10.8398 3.26205C10.7539 3.30501 10.6289 3.34017 10.5664 3.34017C10.5 3.34017 10.3789 3.30501 10.293 3.26205C10.1888 3.20996 10.1107 3.13184 10.0586 3.02767C9.98828 2.88705 9.98047 2.7933 9.98047 2.1683C9.98047 1.56283 9.99219 1.44564 10.0547 1.31673C10.0938 1.23861 10.1836 1.13314 10.2578 1.08627C10.3359 1.03548 10.457 1.00033 10.5547 1.00033H10.5586ZM10.5313 4.51595C10.7578 4.51595 11.125 4.53939 11.3516 4.56673C11.5781 4.59798 11.9102 4.66048 12.0938 4.70736C12.2773 4.75423 12.6016 4.86361 12.8164 4.94564C13.0313 5.03158 13.3477 5.18392 13.5195 5.28158C13.6914 5.37923 13.9375 5.53548 14.0664 5.62923C14.1953 5.71908 14.4219 5.90267 14.5742 6.03548C14.7266 6.1683 14.9688 6.41048 15.1133 6.57455C15.2578 6.73861 15.4727 7.01595 15.5859 7.18783C15.6992 7.3597 15.8672 7.64095 15.9531 7.81283C16.0391 7.9847 16.1641 8.25814 16.2266 8.4183C16.2891 8.57845 16.3867 8.89486 16.4414 9.12142C16.5 9.34798 16.5664 9.71517 16.5898 9.94173C16.6172 10.1761 16.625 10.5511 16.6133 10.8206C16.6016 11.0785 16.5508 11.4808 16.5078 11.7191C16.4609 11.9574 16.3594 12.3245 16.2852 12.5394C16.2109 12.7542 16.0742 13.0785 15.9805 13.262C15.8906 13.4456 15.7031 13.762 15.5664 13.9652C15.4297 14.1683 15.1406 14.5199 14.9258 14.7464C14.7109 14.973 14.4805 15.2269 14.4102 15.3128C14.3438 15.3988 14.2266 15.6019 14.1484 15.762C14.0703 15.9222 13.9805 16.1761 13.9492 16.3285C13.9063 16.5394 13.8906 16.9144 13.8906 18.0003C13.8906 18.8831 13.875 19.4691 13.8477 19.6019C13.8242 19.7113 13.7539 19.9066 13.6914 20.0316C13.6289 20.1527 13.5117 20.3285 13.4297 20.4183C13.3516 20.5081 13.1953 20.637 13.0898 20.7035C12.9805 20.7738 12.7891 20.8675 12.6602 20.9105C12.4336 20.9925 12.3633 20.9964 10.5703 20.9964C8.86719 20.9964 8.69922 20.9925 8.51953 20.9261C8.41016 20.887 8.25391 20.8206 8.16797 20.7816C8.08203 20.7386 7.90625 20.6019 7.77735 20.4691C7.64063 20.3363 7.49609 20.1449 7.4375 20.0199C7.38281 19.9027 7.32031 19.7113 7.29297 19.6019C7.26563 19.4691 7.25 18.8909 7.25 18.0003C7.25 16.9144 7.23438 16.5394 7.19141 16.3285C7.16016 16.1761 7.07031 15.9222 6.99219 15.762C6.91406 15.6019 6.79688 15.3988 6.73047 15.3128C6.66016 15.2269 6.42969 14.973 6.21484 14.7464C6 14.5199 5.71094 14.1683 5.57422 13.9652C5.4375 13.762 5.25 13.4456 5.16016 13.262C5.06641 13.0785 4.92969 12.7542 4.85547 12.5394C4.78125 12.3245 4.67969 11.9574 4.63281 11.7191C4.58984 11.4808 4.53906 11.0785 4.52734 10.8206C4.51563 10.5511 4.52344 10.18 4.55078 9.94173C4.57813 9.71517 4.63281 9.38314 4.67578 9.19955C4.71875 9.01595 4.80078 8.7347 4.85547 8.57455C4.91016 8.41439 5.04297 8.1058 5.14844 7.89095C5.25781 7.67611 5.4375 7.3597 5.55469 7.18783C5.66797 7.01595 5.875 6.75033 6.00781 6.59798C6.14453 6.44173 6.39453 6.19173 6.56641 6.03939C6.73828 5.88314 7.01953 5.66439 7.19141 5.55111C7.36328 5.43783 7.64453 5.26986 7.81641 5.18392C7.98828 5.09798 8.24219 4.9808 8.38281 4.92611C8.52344 4.86751 8.80469 4.77767 9.00781 4.72298C9.21094 4.66439 9.54688 4.59798 9.75 4.57064C9.95313 4.5433 10.3047 4.51986 10.5313 4.51595ZM9.22266 5.87533C9.05078 5.9222 8.73438 6.0433 8.51953 6.14876C8.30469 6.25033 7.98828 6.42611 7.81641 6.5433C7.64453 6.66048 7.33594 6.9222 7.12891 7.12533C6.92188 7.33236 6.66016 7.64095 6.54688 7.81283C6.42969 7.9847 6.25391 8.30111 6.15234 8.51595C6.04688 8.7308 5.92188 9.07455 5.86719 9.27767C5.8125 9.4808 5.75 9.80892 5.72266 10.0003C5.69531 10.2113 5.6875 10.5394 5.69922 10.8206C5.71484 11.1175 5.76172 11.4417 5.82422 11.6995C5.88281 11.9261 5.98438 12.2503 6.05859 12.4222C6.12891 12.5941 6.25391 12.848 6.33594 12.9886C6.41406 13.1292 6.55469 13.3402 6.64063 13.4574C6.72656 13.5745 6.97656 13.8558 7.19141 14.0824C7.40625 14.3089 7.64844 14.5824 7.72656 14.6878C7.80469 14.7972 7.94922 15.0511 8.04688 15.2542C8.14453 15.4574 8.26172 15.766 8.30078 15.9378C8.34375 16.1097 8.38672 16.3324 8.39844 16.4378L8.42188 16.6214H12.7188C12.7539 16.3324 12.7891 16.137 12.8203 15.9964C12.8555 15.8558 12.9297 15.6214 12.9883 15.4691C13.0508 15.3167 13.1563 15.098 13.2266 14.9808C13.2969 14.8636 13.4063 14.6956 13.4727 14.6097C13.5391 14.5238 13.7695 14.2699 13.9883 14.0433C14.2031 13.8167 14.4766 13.4925 14.5938 13.3206C14.707 13.1488 14.8711 12.8753 14.9492 12.7152C15.0313 12.555 15.1406 12.2894 15.1953 12.1292C15.2461 11.9691 15.3203 11.6956 15.3555 11.5238C15.3906 11.3519 15.4297 11.0277 15.4414 10.8011C15.457 10.5589 15.4453 10.2308 15.4141 10.0003C15.3867 9.78548 15.3242 9.44955 15.2695 9.25814C15.2188 9.06673 15.0938 8.7308 14.9883 8.51595C14.8867 8.30111 14.7109 7.9847 14.5938 7.81283C14.4805 7.64095 14.2188 7.33236 14.0117 7.12533C13.8047 6.9183 13.4961 6.65658 13.3242 6.5433C13.1523 6.42611 12.8359 6.25033 12.6211 6.14876C12.4063 6.0472 12.0977 5.92611 11.9375 5.87923C11.7773 5.83626 11.4766 5.77376 11.2734 5.74251C11.0703 5.71126 10.7344 5.68783 10.5313 5.68783C10.3281 5.69173 10.0195 5.71517 9.84766 5.74251C9.67578 5.76595 9.39453 5.82845 9.22266 5.87533ZM8.42188 18.5745C8.42188 19.262 8.42969 19.3714 8.4961 19.5003C8.53906 19.5863 8.63281 19.6839 8.71875 19.7347C8.8711 19.8206 8.88672 19.8206 10.5586 19.8245C12.1719 19.8245 12.2578 19.8206 12.4063 19.7464C12.5104 19.6943 12.5885 19.6162 12.6406 19.512C12.7109 19.3714 12.7188 19.2777 12.7188 18.5745V17.7933H8.42188V18.5745ZM2.16016 9.9808C2.80078 9.9808 2.89063 9.98861 3.03125 10.0589C3.13542 10.111 3.21354 10.1891 3.26563 10.2933C3.30859 10.3792 3.34375 10.5003 3.34375 10.5667C3.34375 10.6292 3.30859 10.7542 3.26563 10.8402C3.21354 10.9443 3.13542 11.0225 3.03125 11.0745C2.89063 11.1449 2.79688 11.1527 2.17188 11.1527C1.54688 11.1527 1.45313 11.1449 1.3125 11.0745C1.20833 11.0225 1.13021 10.9443 1.07813 10.8402C1.03516 10.7542 1 10.6292 1 10.5667C1 10.5003 1.03516 10.3792 1.07813 10.2933C1.12891 10.1956 1.21094 10.1097 1.30469 10.0589C1.43359 9.99251 1.53125 9.9847 2.16406 9.9808H2.16016ZM18.9531 9.9808C19.5938 9.9808 19.6836 9.98861 19.8242 10.0589C19.9284 10.111 20.0065 10.1891 20.0586 10.2933C20.1016 10.3792 20.1367 10.5003 20.1367 10.5667C20.1367 10.6292 20.1016 10.7542 20.0586 10.8402C20.0065 10.9443 19.9284 11.0225 19.8242 11.0745C19.6836 11.1449 19.5898 11.1527 18.9648 11.1527C18.3398 11.1527 18.2461 11.1449 18.1055 11.0745C18.0013 11.0225 17.9232 10.9443 17.8711 10.8402C17.8281 10.7542 17.793 10.6292 17.793 10.5667C17.793 10.5003 17.8281 10.3792 17.8711 10.2933C17.9219 10.1956 18.0039 10.1097 18.0977 10.0589C18.2266 9.99251 18.3242 9.9847 18.957 9.9808H18.9531ZM4.19531 3.61361C4.20703 3.61361 4.28516 3.63314 4.37109 3.65658C4.49219 3.69173 4.63672 3.80501 4.98828 4.15658C5.24219 4.40658 5.48828 4.6722 5.53125 4.74642C5.58594 4.83626 5.61328 4.94173 5.60938 5.05892C5.60547 5.15658 5.57031 5.28548 5.53125 5.35189C5.49219 5.41439 5.40625 5.50033 5.34375 5.53939C5.28125 5.57845 5.15234 5.6097 5.05469 5.61361C4.9375 5.61751 4.83203 5.59017 4.74219 5.53548C4.66797 5.49251 4.40234 5.24642 4.15234 4.99251C3.80078 4.63705 3.6875 4.49642 3.65234 4.37533C3.625 4.26986 3.625 4.1722 3.64844 4.07064C3.67188 3.99251 3.72656 3.88314 3.77734 3.82845C3.82422 3.77376 3.93359 3.70345 4.01953 3.6722C4.10547 3.64095 4.18359 3.61751 4.19531 3.61361ZM16.9883 3.64095C17.0547 3.65267 17.1523 3.68783 17.2148 3.71517C17.2734 3.74642 17.3477 3.80892 17.3789 3.8558C17.4102 3.90658 17.4531 4.00814 17.4766 4.08236C17.5039 4.17611 17.5 4.26595 17.4727 4.37533C17.4375 4.49642 17.3242 4.63705 16.9727 4.99251C16.7227 5.24642 16.457 5.49251 16.3828 5.53548C16.293 5.59017 16.1875 5.61751 16.0703 5.61361C15.9727 5.6097 15.8438 5.57845 15.7813 5.53939C15.7188 5.50033 15.6328 5.41439 15.5938 5.35189C15.5547 5.28548 15.5195 5.15658 15.5195 5.05892C15.5156 4.96126 15.543 4.82845 15.5742 4.76595C15.6094 4.69955 15.8438 4.44173 16.0977 4.18783C16.4141 3.87533 16.6094 3.71126 16.7148 3.6722C16.8008 3.64095 16.9219 3.62533 16.9883 3.64095Z" stroke="black" stroke-width="0.6" mask="url(#path-1-outside-1_1808_5683)"/>
</svg>
