<svg width="32" height="38" viewBox="0 0 32 38" fill="none" xmlns="http://www.w3.org/2000/svg">
<path d="M30.3636 16.1415C30.3636 27.3132 16 36.8889 16 36.8889C16 36.8889 1.63636 27.3132 1.63636 16.1415C1.63636 12.332 3.14967 8.67855 5.84337 5.98484C8.53708 3.29114 12.1905 1.77783 16 1.77783C19.8095 1.77783 23.4629 3.29114 26.1566 5.98484C28.8503 8.67855 30.3636 12.332 30.3636 16.1415Z" stroke="#008951" stroke-width="2" stroke-linecap="round" stroke-linejoin="round"/>
<path d="M16.0003 20.9295C18.6445 20.9295 20.7881 18.7859 20.7881 16.1416C20.7881 13.4974 18.6445 11.3538 16.0003 11.3538C13.356 11.3538 11.2124 13.4974 11.2124 16.1416C11.2124 18.7859 13.356 20.9295 16.0003 20.9295Z" stroke="#008951" stroke-width="2" stroke-linecap="round" stroke-linejoin="round"/>
</svg>
