<svg width="14" height="19" viewBox="0 0 14 19" fill="none" xmlns="http://www.w3.org/2000/svg">
<path d="M14 7.78403C14 13.6621 7 18.7004 7 18.7004C7 18.7004 0 13.6621 0 7.78403C2.76642e-08 5.77967 0.737498 3.85739 2.05025 2.44009C3.36301 1.02279 5.14348 0.226562 7 0.226562C8.85652 0.226563 10.637 1.02279 11.9497 2.44009C13.2625 3.85739 14 5.77967 14 7.78403Z" fill="#535151"/>
<path d="M7 12.6178C8.10457 12.6178 9 11.3254 9 9.73126C9 8.13707 8.10457 6.84473 7 6.84473C5.89543 6.84473 5 8.13707 5 9.73126C5 11.3254 5.89543 12.6178 7 12.6178Z" fill="white"/>
</svg>
