<?xml version="1.0" encoding="utf-8"?>
<!-- Generator: Adobe Illustrator 27.0.0, SVG Export Plug-In . SVG Version: 6.00 Build 0)  -->
<svg version="1.1" id="Layer_1" xmlns="http://www.w3.org/2000/svg" xmlns:xlink="http://www.w3.org/1999/xlink" x="0px" y="0px"
	 viewBox="0 0 179.8 173.8" enable-background="new 0 0 179.8 173.8" xml:space="preserve">
<g>
	<path fill="#149359" d="M147.5,87.5v75.2c0,2.1-1.7,3.7-3.7,3.7H35.2c-2.1,0-3.7-1.7-3.7-3.7V87.5l51.8-40.9c3.5-3,8.7-3,12.3,0
		L147.5,87.5z"/>
	<path fill="#5CA904" d="M165.5,90.1L89.4,29.7L66.4,48v-7.3c0-1.6-1.3-2.9-2.9-2.9h-4.7c-1.6,0-2.9,1.3-2.9,2.9v15.7L13.4,90.1
		C11,92,11,95,13.4,96.8c1.2,0.9,2.7,1.4,4.2,1.4c1.5,0,3.1-0.5,4.2-1.4l60.8-48.3c3.8-3,9.8-3,13.6,0l60.8,48.3
		c2.4,1.8,6.1,1.8,8.5,0c1.2-0.9,1.8-2.1,1.8-3.4C167.2,92.3,166.6,91.1,165.5,90.1z"/>
	<g enable-background="new    ">
		<path fill="#FFFFFF" d="M41.3,137.4v-12.9h2.6v5.1H49v-5.1h2.6v12.9H49v-5.6h-5.1v5.6H41.3z"/>
		<path fill="#FFFFFF" d="M59.6,134.5l2.5,0.4c-0.3,0.9-0.8,1.6-1.5,2.1c-0.7,0.5-1.5,0.7-2.6,0.7c-1.6,0-2.8-0.5-3.6-1.6
			c-0.6-0.8-0.9-1.9-0.9-3.2c0-1.5,0.4-2.8,1.2-3.6c0.8-0.9,1.8-1.3,3.1-1.3c1.4,0,2.5,0.5,3.3,1.4c0.8,0.9,1.2,2.3,1.1,4.2H56
			c0,0.7,0.2,1.3,0.6,1.7c0.4,0.4,0.9,0.6,1.4,0.6c0.4,0,0.7-0.1,1-0.3C59.3,135.3,59.5,134.9,59.6,134.5z M59.8,132
			c0-0.7-0.2-1.3-0.6-1.6s-0.8-0.6-1.3-0.6c-0.5,0-1,0.2-1.3,0.6s-0.5,0.9-0.5,1.6H59.8z"/>
		<path fill="#FFFFFF" d="M64.2,137.4v-12.9h2.5v12.9H64.2z"/>
		<path fill="#FFFFFF" d="M69.1,128.1h2.3v1.4c0.3-0.5,0.7-0.8,1.2-1.1c0.5-0.3,1.1-0.4,1.7-0.4c1.1,0,2,0.4,2.8,1.3
			c0.8,0.8,1.1,2,1.1,3.5c0,1.6-0.4,2.8-1.1,3.6c-0.8,0.9-1.7,1.3-2.8,1.3c-0.5,0-1-0.1-1.4-0.3s-0.9-0.6-1.3-1.1v4.7h-2.5V128.1z
			 M71.6,132.6c0,1,0.2,1.8,0.6,2.3c0.4,0.5,0.9,0.8,1.5,0.8c0.6,0,1-0.2,1.4-0.7s0.6-1.2,0.6-2.3c0-1-0.2-1.7-0.6-2.2
			s-0.9-0.7-1.5-0.7c-0.6,0-1.1,0.2-1.5,0.7S71.6,131.7,71.6,132.6z"/>
		<path fill="#FFFFFF" d="M96.1,137.4h-2.8l-1.1-2.9H87l-1.1,2.9h-2.8l5-12.9H91L96.1,137.4z M91.3,132.3l-1.8-4.8l-1.7,4.8H91.3z"
			/>
		<path fill="#FFFFFF" d="M97.4,137.4v-12.9h2.5v4.6c0.8-0.9,1.7-1.3,2.7-1.3c1.1,0,2.1,0.4,2.8,1.2c0.7,0.8,1.1,2,1.1,3.5
			c0,1.6-0.4,2.8-1.1,3.7c-0.8,0.9-1.7,1.3-2.8,1.3c-0.5,0-1.1-0.1-1.6-0.4c-0.5-0.3-1-0.7-1.3-1.2v1.4H97.4z M99.8,132.6
			c0,1,0.2,1.7,0.5,2.1c0.4,0.7,1,1,1.7,1c0.5,0,1-0.2,1.4-0.7s0.6-1.2,0.6-2.2c0-1.1-0.2-1.8-0.6-2.3c-0.4-0.5-0.9-0.7-1.5-0.7
			c-0.6,0-1.1,0.2-1.5,0.7C100,130.9,99.8,131.6,99.8,132.6z"/>
		<path fill="#FFFFFF" d="M107.9,132.6c0-0.8,0.2-1.6,0.6-2.4c0.4-0.8,1-1.3,1.7-1.8c0.7-0.4,1.6-0.6,2.5-0.6c1.4,0,2.6,0.5,3.5,1.4
			c0.9,0.9,1.3,2.1,1.3,3.5c0,1.4-0.5,2.6-1.4,3.5c-0.9,0.9-2.1,1.4-3.4,1.4c-0.9,0-1.7-0.2-2.4-0.6c-0.8-0.4-1.4-1-1.8-1.7
			C108.1,134.6,107.9,133.7,107.9,132.6z M110.4,132.8c0,0.9,0.2,1.6,0.7,2.1s1,0.7,1.6,0.7s1.2-0.2,1.6-0.7
			c0.4-0.5,0.7-1.2,0.7-2.1c0-0.9-0.2-1.6-0.7-2.1c-0.4-0.5-1-0.7-1.6-0.7s-1.2,0.2-1.6,0.7C110.6,131.1,110.4,131.9,110.4,132.8z"
			/>
		<path fill="#FFFFFF" d="M127.9,137.4h-2.3v-1.4c-0.4,0.5-0.8,0.9-1.3,1.2c-0.5,0.3-1,0.4-1.6,0.4c-1.1,0-2-0.4-2.7-1.3
			c-0.8-0.9-1.1-2.1-1.1-3.6c0-1.6,0.4-2.8,1.1-3.6s1.7-1.2,2.8-1.2c1,0,1.9,0.4,2.7,1.3v-4.6h2.5V137.4z M121.4,132.6
			c0,1,0.1,1.7,0.4,2.2c0.4,0.6,1,1,1.7,1c0.6,0,1-0.2,1.4-0.7c0.4-0.5,0.6-1.2,0.6-2.2c0-1.1-0.2-1.8-0.6-2.3
			c-0.4-0.5-0.9-0.7-1.5-0.7c-0.6,0-1.1,0.2-1.5,0.7C121.6,131,121.4,131.7,121.4,132.6z"/>
		<path fill="#FFFFFF" d="M135.8,134.5l2.5,0.4c-0.3,0.9-0.8,1.6-1.5,2.1c-0.7,0.5-1.5,0.7-2.6,0.7c-1.6,0-2.8-0.5-3.6-1.6
			c-0.6-0.8-0.9-1.9-0.9-3.2c0-1.5,0.4-2.8,1.2-3.6c0.8-0.9,1.8-1.3,3.1-1.3c1.4,0,2.5,0.5,3.3,1.4c0.8,0.9,1.2,2.3,1.1,4.2h-6.2
			c0,0.7,0.2,1.3,0.6,1.7s0.9,0.6,1.4,0.6c0.4,0,0.7-0.1,1-0.3C135.4,135.3,135.6,134.9,135.8,134.5z M135.9,132
			c0-0.7-0.2-1.3-0.6-1.6c-0.4-0.4-0.8-0.6-1.3-0.6c-0.5,0-1,0.2-1.3,0.6s-0.5,0.9-0.5,1.6H135.9z"/>
	</g>
	<g>
		<g>
			<path fill="#5CA904" d="M76.1,18c-0.1-0.7-0.1-1.4-0.4-2c-0.6,1.9-1.9,3.5-3.4,4.7c-2.3,1.8-5.1,2.7-7.4,4.5
				c-2.1,1.7-3.5,4.1-4,6.7c-0.1,0.7-0.2,1.3-0.2,2c0,0.4-0.1,1.6,0.2,1.8c0.1,0.1,0.8,0.1,1.1,0.1c0.4,0,0.8,0,1.2,0
				c0.8,0,1.5-0.1,2.3-0.2c1.2-0.2,2.2-0.5,3.2-1.1c2.1-1.2,3.9-3,5.1-5.1s1.8-4.5,2.2-7C76.2,21,76.2,19.5,76.1,18z M73.6,25.6
				L73.6,25.6C73.6,25.6,73.6,25.6,73.6,25.6C73.6,25.7,73.5,25.7,73.6,25.6z"/>
			<path fill="#5CA904" d="M55,7.6c-0.5-0.3-1.2-0.6-1.8-0.8c1.1,1.5,1.6,3.4,1.6,5.3c0,2.7-0.9,5.4-0.8,8.2
				c0.1,2.5,1.2,5.1,2.8,6.9c0.5,0.5,0.9,0.9,1.4,1.3c0.3,0.2,1.2,1,1.5,0.9c0.2-0.1,0.5-0.6,0.7-0.8c0.2-0.3,0.5-0.6,0.7-0.9
				c0.5-0.6,0.8-1.2,1.2-1.9c0.5-1,0.8-2,1-3.1c0.4-2.3-0.1-4.7-1-6.8s-2.4-4-4-5.7C57.3,9.3,56.2,8.3,55,7.6z M59.3,14
				C59.3,14,59.3,14,59.3,14C59.4,13.9,59.4,13.9,59.3,14C59.4,14,59.4,14,59.3,14z"/>
			<path fill="#5CA904" d="M50.2,27.5c0.2,1.5,0.6,3,1.4,4.4c0.8,1.3,1.8,2.5,3.1,3.2c0.6,0.3,1.3,0.5,2,0.7c0.5,0.1,1,0.1,1.4,0.1
				c0.2,0,0.5,0,0.8,0c0.1,0,0.5,0.1,0.7-0.1c0.2-0.1,0.1-0.9,0.1-1.2c0-0.4-0.1-0.8-0.1-1.2c-0.3-1.6-1.2-3.1-2.5-4.2
				c-1.4-1.2-3.2-1.7-4.7-2.8c-1-0.8-1.8-1.8-2.1-3c-0.1,0.4-0.1,0.8-0.2,1.2C50.1,25.6,50.1,26.6,50.2,27.5z M51.7,29.5
				C51.7,29.5,51.7,29.4,51.7,29.5C51.7,29.4,51.7,29.4,51.7,29.5L51.7,29.5z"/>
		</g>
	</g>
	<g>
		<path fill="#FFFFFF" d="M100.9,101.5h-7.4c-1,0-1.9-0.9-1.9-1.9v-7.4c0-1,0.9-1.9,1.9-1.9h7.4c1,0,1.9,0.9,1.9,1.9v7.4
			C102.8,100.7,101.9,101.5,100.9,101.5z"/>
		<path fill="#FFFFFF" d="M85.9,101.5h-7.7c-1,0-1.9-0.9-1.9-1.9v-7.4c0-1,0.9-1.9,1.9-1.9h7.7c1,0,1.9,0.9,1.9,1.9v7.4
			C87.8,100.7,86.9,101.5,85.9,101.5z"/>
		<path fill="#FFFFFF" d="M86.1,115.7H78c-0.9,0-1.7-0.8-1.7-1.7v-7.3c0-0.9,0.8-1.7,1.7-1.7h8.1c0.9,0,1.7,0.8,1.7,1.7v7.3
			C87.8,114.9,87,115.7,86.1,115.7z"/>
		<path fill="#FFFFFF" d="M101.1,115.7h-7.9c-0.9,0-1.7-0.8-1.7-1.7v-7.3c0-0.9,0.8-1.7,1.7-1.7h7.9c0.9,0,1.7,0.8,1.7,1.7v7.3
			C102.8,114.9,102,115.7,101.1,115.7z"/>
	</g>
	<path fill="#EAFF00" d="M53.9,144.6c0,0,33.8,36.9,71.2,0.8c0.5-0.8-0.3-2.5-1.5-1.5c-1.4,0-35.1,22.3-68.5-0.5
		C54.9,143.5,53.4,142.8,53.9,144.6z"/>
</g>
</svg>
