<svg width="52" height="52" viewBox="0 0 52 52" fill="none" xmlns="http://www.w3.org/2000/svg">
<circle cx="26" cy="26" r="26" fill="#008951"/>
<path d="M39 33.7665C39 34.3934 38.751 34.9946 38.3077 35.4379C37.8644 35.8811 37.2632 36.1301 36.6364 36.1301H15.3636C14.7368 36.1301 14.1356 35.8811 13.6923 35.4379C13.249 34.9946 13 34.3934 13 33.7665V20.7665C13 20.1396 13.249 19.5384 13.6923 19.0952C14.1356 18.6519 14.7368 18.4029 15.3636 18.4029H20.0909L22.4545 14.8574H29.5455L31.9091 18.4029H36.6364C37.2632 18.4029 37.8644 18.6519 38.3077 19.0952C38.751 19.5384 39 20.1396 39 20.7665V33.7665Z" stroke="white" stroke-width="1.5" stroke-linecap="round" stroke-linejoin="round"/>
<path d="M25.9973 31.4033C28.6081 31.4033 30.7246 29.2868 30.7246 26.676C30.7246 24.0652 28.6081 21.9487 25.9973 21.9487C23.3865 21.9487 21.27 24.0652 21.27 26.676C21.27 29.2868 23.3865 31.4033 25.9973 31.4033Z" stroke="white" stroke-width="1.5" stroke-linecap="round" stroke-linejoin="round"/>
</svg>
