<?xml version="1.0" encoding="utf-8"?>
<!-- Generator: Adobe Illustrator 27.0.0, SVG Export Plug-In . SVG Version: 6.00 Build 0)  -->
<svg version="1.1" id="Layer_1" xmlns="http://www.w3.org/2000/svg" xmlns:xlink="http://www.w3.org/1999/xlink" x="0px" y="0px"
	 viewBox="0 0 432.2 358.2" enable-background="new 0 0 432.2 358.2" xml:space="preserve">
<g>
	<path fill="#FEFEFE" d="M430,343c-141.1,0-282.2,0-423.3,0.1c-3.7,0-4.6-0.8-4.6-4.6c0.1-106.4,0.1-212.9,0-319.3
		c0-3.4,0.7-4.1,4.1-4.1c139.9,0.1,279.9,0.1,419.8,0c3.4,0,4.1,0.7,4.1,4.1C430,127.1,430,235.1,430,343z"/>
	<path fill="#093A5A" d="M44.8,294.9c-1.6-15.6-0.6-31.2-0.2-46.9c0.1-2.7,0.3-5.3,0.5-8c1.4-1.5,3.3-1.4,5.1-1.3
		c4,0,6.1-2.1,7.1-5.7c1.3-4.5,1.6-9.1,1.4-13.7c-0.1-3.5-2.5-4.7-5.2-5.8c-2.4-1-5.4-0.8-6.8-3.6c0.4-4.8,1.2-9.5,1.2-14.3
		c0-13.5,7.8-23.9,13.5-35.1c0.1-0.2,0.6-0.1,0.9-0.2c9.1,2.3,9,2.3,14.8-5.9c6.6-9.4,10.5-20.2,15.7-30.4c1.2-2.3,2.2-4.9,5.2-5.6
		c2.2-1,3.5,0.8,5.1,1.7c0.6,0.8,0.9,1.7,0.7,2.8c-1.5,4.2-3.9,8-5.8,12c-1.6,3.4-0.8,5.5,2.5,7.2c3,1.6,6.9,1.6,8.8,5
		c-1.7,3.5-4.3,5.9-8.1,6.9c-3-0.1-5.2-2-7.5-3.5c-2.7-1.7-3.8-0.9-5.4,1.6c-2.8,4.4-2.2,8.8-1.4,13.4c-0.2,1.3-0.9,2.5-1.1,3.8
		c-0.8,4.4,1.3,7.5,5.7,8.2c2.8,0.5,5.6,0.2,8.3-0.8c1.6-0.6,3.2-2.1,5-0.2c1.1,2.1,0.6,4.4,0.8,6.6c-0.5,6.6,1.3,12.9,3.3,19
		c2.6,8.1,5.1,16.2,7.4,24.3c1.1,3.9,1.6,7.9,1.2,11.8c-1.6,16.9-1.9,33.8-4,50.6c-0.1,1-0.2,2-0.5,2.9c-2.5,4.6-3.6,5-9.6,3.6
		c-1.6-1.1-1.7-2.8-1.7-4.5c0.5-8.8-1.5-17.5-1.1-26.3c1.1-20.6-4.7-39.6-12.8-58.2c-1.4-3.2-2.4-2.8-4.4-0.5
		c-2.4,2.8-4,6.1-5.7,9.2c-3.2,0.5-2.1,3.5-2.5,5.1c-4.9,22.4-9.5,44.8-14.2,67.2c-0.4,1.8-0.8,3.6-1.3,5.3
		c-0.3,1.3-0.7,2.7-2.2,2.9C53.4,296.5,48.9,297.8,44.8,294.9z"/>
	<path fill="#E7F2DB" d="M127.1,132.2c6.5-3,11.2-8.5,17-12.5c3-2.1,5.4-5,8.6-6.6c8.9-4.6,10.6-12.2,9.7-21.1
		c1.6-0.8,2.8,0.3,4.2,0.6c3.1,0.8,5.5-0.3,7.4-2.7c1.6-2.1,2-4.4,0.6-6.9c-1.4-2.7-3.8-3.4-6.6-3.4c-2-0.1-3.7,1.4-5.8,0.8
		c0.1-6.1,1.8-7.9,7.9-8c8.2-0.2,10.7,1.6,11,7.9c0.1,3.1,0,6.1,0,10.1c12.6-10,24.7-19.3,36.3-29c3.4-2.9,5.5-2.2,8.4,0.1
		c5.7,4.7,11.6,9.3,17.4,13.9c0.7,2.1-0.8,3.8-1.2,5.7c-1.1,4.8-0.7,9.5,1.2,14c0.1,1.1,0,2.1-0.6,3c-3.6,1.4-5.4-1.7-7.6-3.4
		c-4.2-3.2-8.5-5.4-14.1-5.2c-4.6,0.2-8.4,1.6-11.9,4.4c-22.1,17.6-44.2,35.2-66.4,52.7c-2.9,2.3-5.4,4.9-8.6,6.8
		c-3.4,2.1-4.7,1.4-5-2.7c-0.3-3,0.3-6-0.5-8.9c-0.4-1.7-1.1-3.4-1.7-5.1C126.6,135.1,126.5,133.6,127.1,132.2z"/>
	<path fill="#DDEFE7" d="M324.1,164.1c0,34.7-0.1,69.4-0.1,104.2c-1.2,0.5-2,0-2.6-1c-3.8-13.2-6.9-26.7-11.5-39.7
		c-2.3-6.6-5.1-13-8.3-19.2c-3.7-7-8.9-12.3-15.6-16.3c-1.7-1-3.6-1.8-4.4-3.8c-0.4-3,1-5.5,1.9-8.1c5.1-6.3,10.2-12.7,14.4-19.6
		c2.6-4.3,4.1-8.3,1.3-13c-0.6-1-0.9-2.2-0.2-3.3c1.5-0.9,2.5,0.2,3.5,0.9c7.1,5.1,13.8,10.6,20.5,16.2
		C323.7,162,324.6,162.8,324.1,164.1z"/>
	<path fill="#DDEFE7" d="M323.9,288.7c0.1,1,0.1,2,0.2,3c0.1,6.6-1.5,8.3-8,8.3c-10.6,0-21.2,0-31.8,0c-1.1-0.4-1.6-1.1-1.5-2.3
		c0.6-1.9,3-1.7,3.9-3.2c0.5-0.7,0.9-1.8,0.3-2.3c-4.8-5.3-2.9-11.8-3.2-17.9c-0.1-2.6,0-5.3-0.1-7.9c0-1.1,0-2.2,0-3.3
		c-0.1-0.9,0-1.7,0-2.6c0-4-0.1-8.1,0-12.1c0-1.4,0-2.9,0-4.3c0-2.3,0-4.5,0-6.8c0.1-1.4,0-2.8,0.1-4.2c0-1.4,0-2.9,0.7-4.2
		c0.5-0.7,1-1.3,2-0.7c2,3.6,0.8,7.4,1.1,11.2c0.2,2.1-0.2,4.2,0.7,6.2c0.5-6.1,0.7-12.1,0.1-18.2c1-7,0.2-13.6-4.6-19.3
		c-0.6-0.8-0.7-1.8-0.8-2.8c0-1.7-0.2-3.6,1.6-4.4c2-0.9,3.5,0.7,4.8,1.8c3.3,2.8,6,6.3,7.7,10.3c2.6,6.2,6.6,11.9,6.5,19
		c-0.7,0.8-1.7,1-2.6,1.2c-5.5,1.5-7.7,5.3-6,10.4c1.3,4,4.9,4.9,10.4,2.7c0.8-0.3,1.5-0.7,2.4-0.7c1.9,0.9,2.3,2.8,2.7,4.5
		c1.6,6.4,3.5,12.8,4.5,19.4c-0.8,7-5.3,12.4-8,18.5c-0.5,0.7-1.1,1.2-1.7,1.8c-0.6,0.6-1.2,1.3-0.8,2.2c0.5,1.1,1.6,1.1,2.6,0.9
		c2.8-0.5,5.3-1.8,8-2.7C317.8,289.5,320.5,287.3,323.9,288.7z"/>
	<path fill="#008851" d="M98.1,118.5c-4.1,4.3-6.2,9.7-8.5,15c-3.8,8.8-8.2,17.3-14,24.9c-5.4,7.1-6.1,7.2-13.3,1.9
		c1.9-3.4,3.9-6.8,6-10.4c-4.8,0.1-7.5,1.9-9.3,6.1c-2.8,6.7-6.3,13-9.2,19.7c-1.2,2.8-2.7,3.7-5.5,2.6c-2,0.6-3.7,0.3-5.1-1.4
		c-1.8-0.7-1.7-1.9-1.1-3.5c3.7-9.8,7.2-19.6,11.6-29c1.1-2.3,2.7-4.2,4.5-5.9c7.7-7.4,16.5-13.3,25.5-18.9
		C85.7,115.8,91.8,115,98.1,118.5z"/>
	<path fill="#093A5A" d="M361.1,209c4,0.7,9.5-2,11.8,1.1c1.9,2.5,0.3,7.7,0.3,11.7c-0.7,31.3-1.4,62.5-1.9,93.8
		c-0.1,3-0.8,4.3-3.8,4c-6.3-0.5-12.7,1.4-19-0.5c0.7-0.8,1.6-1.1,2.6-1.3c6.5-1.4,6.5-1.4,6.5-7.8c-0.1-31.4,1.7-62.7,1-94.1
		c0-2.1-0.1-4.3,1-6.3C359.9,208.9,360.4,208.7,361.1,209z"/>
	<path fill="#05273A" d="M360,209.2c0,20.1,0.7,40.2-0.2,60.3c-0.7,14.8-0.5,29.5-0.6,44.3c0,4.2-1.2,5.7-5.3,5.2
		c-1.8-0.2-3.6,0-5.5,0c-0.4-23.8-0.9-47.5-1.3-71.3c-0.2-11,0-22-0.6-32.9c-0.2-4.6,1.3-6,5.5-5.6c1.3,0.1,2.7-0.1,4-0.2
		c0.8-0.7,1.8-1,2.8-0.6C359.3,208.5,359.7,208.8,360,209.2z"/>
	<path fill="#093A5A" d="M239.2,306.9c1.5,3.9,1.4,8,1,12.1c-9.6,2.3-19.1,4.3-29,2c-15.6,0-31.3-0.1-46.9-0.1
		c0.7-7.1-0.1-13.8-4.5-19.8c-0.2-0.3,0.2-0.9,0.5-1.3c1.9-1.4,4.1-1.3,6.2-1.3c7.4,0.3,14.8-0.9,22.1,0.8c1.7,0.9,1.7,3,2.9,4.4
		c1.6,2.2,4.1,1.9,6.4,1.9c7.6,0.1,15.2-0.1,22.8,0.1c1.9,0,3.8-0.1,5.4,1.1c1.1,0.9,0.5,2.2,0.9,3.5c0-1.4,0.3-2.6,0.1-3.9
		c0.2-2.4,1-4.5,3.2-5.9c0.7-0.3,1.5-0.3,2.3-0.1C234.4,302.8,235.5,306.2,239.2,306.9z"/>
	<path fill="#E7F2DB" d="M324.1,164.1c-8-7.1-16.4-13.9-25.3-19.9c-0.9-0.2-1.1-0.8-0.7-1.6c5.3-4.5,8.3-10.1,8.8-17
		c0.2-1,0.4-2,1.4-2.5c0.3,5.1,4.2,7.5,7.6,10.1c13.2,10.4,26.5,20.8,39.7,31.1c2.8,2.2,4,4.9,3.3,8.3c-0.8,4.3-4.2,5.5-7.9,6.4
		c-4.1-6.6-4.1-6.6-13-3.4c-0.7,0.1-1.4-0.1-2-0.6c1-3-2.1-3.4-3.3-4.6C330.1,168.1,327,166.2,324.1,164.1z"/>
	<path fill="#020E35" d="M77.9,215.4c-1-2.3-0.1-4.1,1.3-5.9c2.4-2.9,4.7-5.9,7.7-9.7c5,16.8,14.2,31.3,14.4,48.9
		c0.2,15.4,1.8,30.8,1.7,46.2c-2.3,1.9-4.7,1.9-7.1,0c-2.6-10.5-3.5-21.3-3.4-32c0.1-15.4-3.6-29.4-12.1-42.2
		C79.4,219.1,78.8,217.2,77.9,215.4z"/>
	<path fill="#003F5F" d="M269,68c6.1-3.4,12.1-2.4,16.3,2.9c1.9,2.4,3.4,5,3.9,8c2.2,14,8.3,26.3,16.1,38c0.4,0.7,0.6,1.5,1,2.2
		c-1.2,1.8-3.1,2.1-5,2.6c-0.5,0-1-0.1-1.4-0.2c-7.5-5.4-14.7-11.2-21.9-17c-1.4-1.2-2.7-2.4-2.7-4.5c0.1-2.3,1.4-4.2,2.1-6.2
		c0.9-2.8,0.8-5.6,0.1-8.4C276.3,78.7,272.9,73.3,269,68z"/>
	<path fill="#013A5C" d="M112.4,116c-0.8-0.6-2.4-0.9-2.1-1.8c1.7-5.3-0.8-10.5-0.1-15.8c0.6-4,1.8-7.8,5.2-10.4
		c3.2-2.4,6.6-2.8,9.1,0.7c1,1.4,2.9,0.5,3.3,2.1c3.1-2.3,5.1,1.3,7.9,1.6c5.9,0.5,10.5,4.8,11.3,9c0.9,5.4-2.3,11.6-7.4,14.6
		c-1.1,0.6-2.3,1.3-3.5,1.9c-2.1,0.2-1.5-1.3-1.2-2.3c0.5-1.9,1.6-3.6,2.5-6.8c-3.3,3.5-6.1,5.8-10,5.2c-1.8-0.3-3.7-0.9-1.1-3
		c0.2-0.3,0.9-0.2,0.8-0.8c-0.1,0.3-0.3,0.5-0.7,0.6c-2.4,1.2-4.2,0.2-5.7-1.7c-1.1-1.3-1.7-4-3.9-3.1c-2.7,1.2-0.4,3.4-0.2,5.2
		c0.2,1.1-0.1,2-0.7,2.8C115,115.3,114.1,116.5,112.4,116z"/>
	<path fill="#003A5C" d="M278.1,94.1c-0.7,2-1.3,4-2,6c-0.4,0.3-0.8,0.5-1.2,0.6c-0.5,0-0.9-0.1-1.4-0.3c-1.8-0.8-3.1-2.1-3.5-4.2
		c-0.3-2.9-2.1-4-4.9-4c-0.5,0-0.9-0.1-1.4-0.1c-7.1-3.4-12.6-9.1-18.6-14c-0.9-0.7-1.6-1.8-1-3.1c6.5-5.6,14.2-4.7,21.9-4
		c5.7-0.1,7.7,4.3,10.1,8.2c1.1,1.8,1.5,4,1.8,6.2C278.8,88.3,278.9,91.2,278.1,94.1z"/>
	<path fill="#154A4E" d="M127.1,132.2c1.1,1.2,1.1,2.5,0.2,3.8c-0.1,4.1-3.1,6.8-5,9.9c-5.5,8.8-10.6,17.9-15.3,27.1
		c-0.8,1.2-1.3,2.6-2.9,3.1c-3,1.4-5.7,3.1-9.3,3.1c-9.9-0.1-13.1-5.1-8.7-14.1c0.4-0.3,0.8-0.4,1.3-0.3c1.7,0.6,3.3,1.6,5.1,1.9
		c4.4,0.8,10.7-3.9,11.2-8.4c0.2-2.1-1.9-2.5-2.7-3.9c-0.2-0.5-0.2-0.9,0.1-1.3c3.6-0.8,5.1-4.3,8-6c0.3-0.3,0.7-0.5,1.2-0.6
		c4.8,0.5,5.2-3.8,7.1-6.5c0.9-1.5,1.4-3.4,3.3-4.2c2.5-0.1,3.6-2.4,5.5-3.5C126.5,132.2,126.8,132.1,127.1,132.2z"/>
	<path fill="#90D6D8" d="M160.1,301.1c6.2,5.6,7.1,12.3,4.1,19.8c-4.2,4.1-8.6,7.8-15.1,7c-7.1-0.8-12.4-6.3-13.1-13.3
		c-0.1-1.3,0.2-2.7-1-3.7c0.2-5,2.9-8.5,6.9-11.1c4.4-2.6,9-3.7,14.1-1.8C157.7,298.5,159.4,299.1,160.1,301.1z"/>
	<path fill="#E7F2DB" d="M197.1,35c4.1,15-5.2,31.3-18.8,34c-7.2,1.4-9-0.3-7.2-7.3c1.5-5.8,4.5-10.4,10-13.6
		C186.9,44.7,193.8,42.4,197.1,35z"/>
	<path fill="#E7F2DB" d="M159.1,18.6c10.2,6.6,17.7,14.6,16.1,27.8c-0.5,4-2.9,7-5,10.1c-1.3,1.9-2.3,0.6-3.6-0.3
		c-7.4-5.4-8.5-13.2-7.2-21.4C160.2,29.3,160.5,24.1,159.1,18.6z"/>
	<path fill="#0F4F72" d="M46.8,209.9c0.8,0.3,1.5,0.7,2.3,0.9c11.6,3.1,11.8,3.2,11,15.1c-0.2,2.6-0.8,5.2-1.4,7.8
		c-1.9,7.8-8.1,6.3-13.6,6.3c-0.8-0.8-2-1.2-1.8-2.7c0.9-8.8,1.7-17.6,2.5-26.3C45.9,210.6,46.5,210.3,46.8,209.9z"/>
	<path fill="#0A3A5A" d="M142.1,300.8c-3.6,2.5-4.9,6.6-7,10.1c-2.8,0-5.5,0-8.3,0c-1.1,1.6,1.1,2.6,0.5,4c0.1,1.8-1.4,2.3-2.6,2.4
		c-7.6,0.5-15.2,0.8-22.8-0.2c-0.6-0.1-1.2-0.6-1.7-1c0-3.3-1.1-6.8,1.1-9.9c3.9-1,7.4-3.4,11.5-3.8c1.8,1.2,3.3,2.7,4.7,4.4
		c0.6,1.5-0.5,2.9-0.3,5c1.7-1.7,1.7-3.4,1.8-5.1c0.3-2.9-0.8-6.1,1.3-8.7c5.7,0.8,11.4,0.7,17.1,0.8
		C139,298.7,141.3,298.2,142.1,300.8z"/>
	<path fill="#0A3A5A" d="M397.9,165c-10.1,0.9-17,6.3-24.2,10.8c-6.2,3.9-9,2.6-9.8-4.6c-0.2-1.6-0.9-1.7-1.8-2.3
		c-3.5-2.1-3.1-4.7-0.7-7.4c3.3-3.5,7.6-3.9,12-3.4C381.5,159.1,389.2,161.4,397.9,165z"/>
	<path fill="#DDEFE7" d="M272.2,302.2c-0.5-3-2.9-2.1-4.7-2.2c-9.1-0.1-18.3,0-27.4,0c-1.1-1.1-1.1-2.4-0.5-3.7
		c0.7-1.2,2-1.5,3.2-1.9c1.8-0.7,5.5-0.4,2.3-4c-0.2-0.4-0.4-0.9-0.3-1.4c0.2-1,0.7-1.8,1.5-2.5c5.6-2.7,11.5-4.7,16.7-8
		c1.1-0.7,2.3-1.3,3.6-0.3c1.3,2.1,0.6,4.6,1.4,6.8c0.2,1,0.1,2-0.2,3c-3.7,5.9-3.3,6.6,3.6,8c0.8,0.2,1.6,0.4,2.2,1
		c0.9,1.5,0.9,3.1,0.1,4.7C273.3,302.2,272.8,302.4,272.2,302.2z"/>
	<path fill="#008851" d="M110.2,147.1c-0.3,0-0.7,0-1,0.1c-3.6-1.7-7.2-3.3-10.8-5c-2.8-1.3-3.5-3.2-2.1-6c2.2-4.4,4-9.1,6.9-13.1
		c1.4,3.5,5,5.1,7.2,8c1.1,1.4,3.4,0.2,5.1,0.1c1.6-0.1,2.8-1.8,4.6-1.1c1,0.7,1.9,1.4,2.9,2.1c0.7,2-0.2,3.2-1.9,4
		c-1,1.3-1.9,2.7-2.9,4C116,143,114.1,146.2,110.2,147.1z"/>
	<path fill="#038952" d="M305.9,287.9c2.8-6,5.5-11.9,8.3-17.9c-0.1-2.3,0.7-4.3,2.9-5.1c2.1-0.8,3.7,0.6,4.8,2.3
		c0.7,0.4,1.4,0.7,2,1.1c4.7,2.6,9.4,5.2,14.1,7.8c-0.3,2.6-2.7,2.5-4.3,3.2c-3.1,1.4-6.4,2.5-9.6,3.6c-4.4,1.3-8.6,3.3-13.1,4.6
		C309.4,288,307.7,289.1,305.9,287.9z"/>
	<path fill="#0A3A5A" d="M272.2,302.2c0.3,0,0.6-0.1,0.9-0.3c0.5-0.4,1.1-0.9,1.7-0.8c2.2,0.5,3.5-0.2,3.8-2.6
		c0.1-0.6,0.8-1,1.4-1.2c1.1-0.3,2.2-0.1,3.1,0.7c0.4,0.7,0.7,1.4,1.1,2c0,1.3,0,2.6,0,3.8c0,3.5,3.2,2.1,4.8,3.2l0,0
		c-0.1,2.7,0.9,3.5,3.2,1.6c3.7,2.3,9.8,1.8,10,8.3c-1.4,1.1-3.1,1.4-4.7,1.4c-7.4,0-14.7-1.1-22.1-1.2c-0.8,0-1.5-0.6-2.1-1.2
		C272,311.5,271.8,306.9,272.2,302.2z"/>
	<path fill="#F4A487" d="M115.2,114.2c1.2-1.5,1-2.6-0.5-4.1c-1.7-1.8-1.4-4.2,0.9-5.4c2.6-1.4,4.8-0.2,5.3,2.4
		c0.9,4.3,3.3,3.8,6.2,2.7c0.4,0.4,0.4,0.9,0,1.4c-0.4,0.7-2.4,1.7,0.3,2c3.8,0.5,6.1-1.6,8.3-4.3c0.7-0.9,1.4-2.2,2.7-1.4
		c1.2,0.8,0.3,2,0.1,3.1c-0.5,2.6-3.3,4.4-2.3,7.4c-4.4,5.9-10.3,6.8-16.9,5.1C116.6,120.7,113.3,118.7,115.2,114.2z"/>
	<path fill="#028A52" d="M353.5,115c4.5,0,8.3,3.7,8.3,8.1c0,4.5-3.7,8.1-8.3,8.1c-4.6,0-8.3-3.6-8.3-8.1
		C345.2,118.7,348.9,115,353.5,115z"/>
	<path fill="#0F8E47" d="M162.2,80.2c5.5-3.5,10.3-3.1,13.1,1.2c2.4,3.6,1.6,8.5-1.9,11.1c-3.8,2.8-7.5,1.7-11.1-0.6
		C159.8,88,159.4,84.1,162.2,80.2z"/>
	<path fill="#E7F2DC" d="M152.1,47.7c3.1,4.3,6.2,6.3,9.7,7.8c3.6,1.6,5.7,4.6,6.9,8.1c1.5,4.4-0.3,6.4-4.8,5.4
		c-6.5-1.4-11.4-7.5-11.8-14.8C152.1,52.5,152.1,50.9,152.1,47.7z"/>
	<path fill="#0C3C5C" d="M389.4,188.9c-6.3-0.6-10.7,2-15.3,4c-1.5,0.7-3.4,2.2-4.9,0.2c-0.9-1.3-3.3-2.7-1-4.8
		c0.2-0.2,0.4-0.8,0.3-0.9c-2.3-2.3-2.1-4.4,0.5-6.2c2.6-1.9,5.3-1.4,8-0.2C381.3,182.8,385.2,185,389.4,188.9z"/>
	<path fill="#0F4B50" d="M244.1,75.1c6.1,6.3,12.7,11.9,20.4,16.3c-0.8,3.2-3.2,3-5.5,2.2c-2-0.7-3.6-2.1-5.1-3.8
		c0.6,1.8,0.3,3.1-1.7,3.2c-3.8,0.2-5.5-2.4-7-5.8c-1.2,1.7-0.5,3.3-0.9,4.8c-0.3,1.3,0.3,3.2-2.1,3.1c-3.6-6.8-3-13.4,1-19.8
		C243.5,75.1,243.8,75.1,244.1,75.1z"/>
	<path fill="#0B3B5B" d="M44.2,318c-1.1-5.1,2.1-8.9,3.8-13.2c2.7-1.5,5.4-1.8,8.1,0.2c0.2,5,5.1,8.6,4.2,14
		C54.7,321,49.3,322.2,44.2,318z"/>
	<path fill="#0D495B" d="M305.9,287.9c6.2-1.5,11.8-4.9,18.2-6c1.8,2,1.5,4,0,6.1c-0.1,0.2-0.1,0.4-0.2,0.7c-5,1.7-10,3.5-15,5.2
		c-2.3,0.8-5.1,2.2-6.5-0.9C301.1,290.1,304,289.1,305.9,287.9z"/>
	<path fill="#F5A689" d="M39.2,176.9c1.8,0,3.5,0.5,5.1,1.4c-0.9,3.5-1.5,7.1-1,10.8c0.2,2,0.2,4.2-2.3,4.9
		c-3.1,0.8-5.4-0.9-7.5-2.9c-1.8-1.7-0.8-3.4,0.2-4.9C35.7,183.1,38.5,180.6,39.2,176.9z"/>
	<path fill="#0B3C5B" d="M324.1,288.1c0-2,0-4.1,0-6.1c4.7-2,9.3-3.9,14-5.9c2.2,0,5.1-1.4,5.9,1.8c0.9,3.3-2.1,4.1-4.4,4.9
		C334.4,284.6,329.2,286.3,324.1,288.1z"/>
	<path fill="#C2E4EC" d="M120.2,130.1c-4.9,3.1-9.8,3.7-11.2,1.7c-2-2.9-7-3.7-5.8-8.7c0-1,0-2,0-3c2.3,1.4,3.8-2,6.1-0.8
		c1.3,1.1,1.6,2.7,2,4.2c0.4,1.5,1.1,2.2,2.7,1.8c1.3-0.2,2.6-0.7,3.9-0.2C120.4,125.9,120.2,128,120.2,130.1z"/>
	<path fill="#125173" d="M96.1,295c2.4,0,4.7,0,7.1,0c3.2-0.3,7.1,1.6,8.9-2.9c2.9,1,3.6,3.3,3.2,5.9c-0.4,2.7-2.4,3.3-4.7,3.4
		c-3.2,0.3-6.4,1.9-9.5-0.3c-1.3,0-2.6-0.1-3.9,0c-1.8,0.2-3.1,0.2-3.6-2.1C93,296.7,93.5,295.3,96.1,295z"/>
	<path fill="#0F3F5D" d="M336.1,175.1c0.5-0.1,1.1-0.1,1.6-0.2c4.3,0.8,8.8,1.4,11.5,5.6c0.7,1.3,2.6,1.8,0.3,4.1
		c-2,1.9-3.1,1.9-4.9,0.9c-4.4-2.5-8.6-5.6-14.7-6.3C332.4,177.5,334.3,176.3,336.1,175.1z"/>
	<path fill="#155375" d="M100.1,316c7.4,0,14.7,0,22.1,0c1.7,0,3.7,0.6,5-1.1c1.2,3.5-0.2,4.9-3.7,4.9c-6.9,0.1-13.8,0.2-20.7-0.6
		C100.7,319,99.3,318.6,100.1,316z"/>
	<path fill="#115073" d="M44.8,294.9c3.5,0,6.9,0,10.4,0.2c2,0.1,3.6-0.3,4.7-2c0.2,0.5,0.3,1.3,0.6,1.3c2.3,0.4,2.4,2.1,2.2,3.8
		c-0.2,2.2-2.2,1.5-3.5,1.7c-1,0.1-2,0.2-3,0.3c-2.7,1.9-5.5,1.7-8.3,0.1c-1.5-0.7-4,1-4.7-1.1C42.8,297.9,42,295.4,44.8,294.9z"/>
	<path fill="#145173" d="M273.2,316c9.7-0.6,19.3,1.3,28.9,1c0.6,2.9-1.9,2.3-3.2,2.5c-7.8,1-15.5-0.3-23.3-0.6
		C273.8,318.9,273.1,317.7,273.2,316z"/>
	<path fill="#195677" d="M211.1,321c9.8,1.4,19.2-2.9,29-2c0.3,1.5,0,2.7-1.7,2.8c-8.4,0.5-16.8,2-25.3,0.4
		C212.4,322.1,211.8,321.4,211.1,321z"/>
	<path fill="#194D51" d="M349.2,180.5c-4-1.6-7.9-3.2-11.5-5.6c1.6-1.6,3.8-1.9,5.8-2.4c4.9-1.2,7.7,1.4,7.5,6.6
		C350.4,179.5,349.8,180,349.2,180.5z"/>
	<path fill="#115072" d="M44.2,318c5.2,2.1,10.7,0.5,16,1c0.5,1.5-0.1,2.6-1.5,3.2c-4.4,1.7-8.9,1.7-13.2-0.4
		C43.8,321,43.8,319.5,44.2,318z"/>
	<path fill="#F47D70" d="M117.9,125.1c-1.2,0.4-2.4,0.8-3.5,1.2c-3.8-2.2-4.2-4.1-2.2-9.2c0.1-0.4,0.2-0.7,0.3-1.1
		c0.9-0.6,1.9-1.2,2.8-1.8c-0.5,3.8,3.4,5.6,4,8.9C118.7,123.8,118.3,124.5,117.9,125.1z"/>
	<path fill="#00113C" d="M277.1,85.1c-1.3-6.6-5.3-11.1-11.2-14c0.7-1.4,1.5-2.6,3-3.1c6.3,4,8.2,10.3,9.1,17.1
		C277.7,85.5,277.4,85.5,277.1,85.1z"/>
	<path fill="#ECA68D" d="M240,296.2c0,1.3,0.1,2.6,0.1,3.8c-0.3,2.3-0.6,4.6-0.9,6.8c-5.4,1.5-6.2-2.2-7-6c-0.8-0.8-0.9-1.7-0.4-2.6
		C234.7,298.5,237.6,298.3,240,296.2z"/>
	<path fill="#E9A087" d="M101,301.2c3-0.2,6-0.5,9-0.7c0.8,0.8,2.7,0.3,2.7,2.1c-1,0.1-2.7,0.1-2.8,0.4c-1.3,5.7-5.7,2.7-8.9,3.2
		C101.1,304.5,101.1,302.8,101,301.2z"/>
	<path fill="#F1A388" d="M48,300.2c2.8,0,5.5-0.1,8.3-0.1c-0.1,1.6-0.1,3.3-0.2,4.9c-2.7-0.1-5.4-0.1-8.1-0.2
		C48,303.3,48,301.7,48,300.2z"/>
	<path fill="#06163F" d="M301.1,121.1c1.4-1.3,3.3-1.6,5.1-2c0.7,1.3,1.4,2.7,2.1,4c0,1,0,2,0,3C304.2,126.8,302,124.8,301.1,121.1z
		"/>
	<path fill="#F2A98F" d="M112.1,117.1c0.2,3.2-0.9,6.7,2.2,9.2c-2,1.5-3.4,0.9-4-1.3c-0.5-1.9-0.7-3.8-1.1-5.7
		C110.2,118.6,111.2,117.8,112.1,117.1z"/>
	<path fill="#104E70" d="M292.2,308.7c-1.3,1-0.5,4.7-3.5,3.2c-2.8-1.4-0.4-3.2,0.4-4.8C290.3,307.3,291.3,307.8,292.2,308.7z"/>
	<path fill="#B5C3CC" d="M356.1,201.1c0.6-1.4,1.2-2.7,1.8-4.1c1.1,2,0.8,4,0.2,6c0.7,1.5,1.3,3.1,1.1,4.8c-2.3,0.6-2.3,0.6-3-3.5
		C356.1,203.2,355.7,202.1,356.1,201.1z"/>
	<path fill="#0D3F5C" d="M121.2,136.1c0.6-1.3,1.3-2.6,1.9-4c1.1-0.9,2.1-0.9,3.1,0.1C125.3,134.6,124.6,137.1,121.2,136.1z"/>
	<path fill="#1A5576" d="M289,307.1c-0.5,0-1,0-1.5,0.1c-1.4,0.1-2.1,2.8-3.7,1.3c-1.6-1.4,0.5-3,0.4-4.6
		C285.8,304.9,287.4,306,289,307.1z"/>
	<path fill="#27526D" d="M358.1,203c-0.1-2-0.1-4-0.2-6c0.1-1.6,0.2-3.2,0.3-4.8c0.2-0.5,0.5-0.5,0.8,0
		C358.6,195.7,360.2,199.5,358.1,203z"/>
	<path fill="#69879A" d="M353,190.6c2.7,2.5,2.2,4.9,2.5,7.1C353.6,195.9,354,193.6,353,190.6z"/>
	<path fill="#1E4B68" d="M356.8,203.4c0.9,1.4-1.3,4.4,2.4,4.4c0,0-0.1,0.3-0.1,0.3c0.4,0.2,0.5,0.5,0.3,0.7
		c-0.1,0.2-0.2,0.3-0.4,0.3c-1,0-2,0-3.1-0.1c0-1.3,0-2.5-0.1-3.8C355.6,204.3,355.1,203.3,356.8,203.4z"/>
	<path fill="#69869A" d="M360.6,178.5c0.6,3.1,0.2,4.7-1.2,6.3C358.9,182.7,360.1,181.2,360.6,178.5z"/>
	<path fill="#56778D" d="M359,209.1c0-0.3,0-0.7,0-1c1.4-0.9,0.4-3.3,2.7-3.8c-0.2,1.6-0.4,3.2-0.6,4.7c-0.4,0.1-0.7,0.1-1.1,0.2
		C359.7,209.2,359.4,209.1,359,209.1z"/>
	<path fill="#6F8B9E" d="M359,192.1c-0.3,0-0.5,0.1-0.8,0c-0.3-1.7-0.3-3.4,1.2-5C360.3,189.2,359.4,190.6,359,192.1z"/>
	<path fill="#7893A5" d="M356.8,203.4c-0.3,0.6-0.6,1.2-0.9,1.8c-0.7-1.4-1.8-2.8,0.2-4.1C356.3,201.8,356.6,202.6,356.8,203.4z"/>
	<path fill="#7A93A5" d="M362.7,173.3c0.6,1.9,0,2.7-1.1,3.4C361.1,175.4,362.1,174.6,362.7,173.3z"/>
	<path fill="#FDFEFE" d="M112.8,302.5c-0.7-1-2.8-0.1-2.7-2.1c5.4-0.9,5.5-1.6,1.9-8.4c1.4-18.6,2.9-37.1,4-55.7
		c0.6-9.5-4-18-6.4-27c-2.4-8.6-6.2-16.9-5.4-26.2c1.6-4.4,4.6-7.9,7.3-11.6c2.8-3.7,3.5-3.5,5.6,1.2c0,4.8,1.6,9.1,3.3,13.5
		c0.7,7.3,0.3,14.6,0.3,21.9c0,26.4,0,52.9,0,79.3c0,6.6-1.1,13.1-1.8,19.7c-0.6,0.3-1.3,0.3-1.9,0
		C115.2,306.1,113.2,305.1,112.8,302.5z"/>
	<path fill="#0F4F72" d="M87.2,165.1c-0.3,0-0.7,0-1,0c-0.1-2.6-2.1-4.6-1.4-7.5c2.6-9.9,4.9-11,13.3-5.8c1,0.6,1.8,1.4,3.1,1.4
		c0,0.3,0,0.7,0,1C97.4,158.9,92.8,162.7,87.2,165.1z"/>
	<path fill="#068A54" d="M116,172.4c-0.3-0.9-0.6-1.8-1.1-3.1c-3.7,4.7-7.2,9.3-10.7,13.9c0-2.4-0.1-4.7-0.1-7.1c0.6-1,1.3-2,1.9-3
		c2.6-2.7,4.7-6,9.2-5.6C117.5,168.8,117.7,170.5,116,172.4z"/>
	<path fill="#DDEFE7" d="M118,307.1c1.8-1.6,1-3.8,1-5.7c0.1-38.8,0.1-77.6,0.1-116.4c2.3-0.4,3,1.6,4.2,2.8
		c5.1,5.2,9.4,11.1,15.9,14.8c2.1,1.7,2.9,4,2.8,6.5c-0.1,1.8,0.5,3.2,2.2,3.9c1,0.5,2,1.3,3.2,0.5c1.1-0.7,1.2-1.9,1.1-3.1
		c-0.2-2.4-1.3-4.4-2.7-6.2c-1.3-1.7-2.6-3.4-2.7-5.7c0.2-2.6-0.8-4.9-2-7.1c-1.7-2.9-3.1-6-5.2-8.5c-6.7-8.2-8.2-17.9-8.5-28
		c0.6-4.6-1.7-9.6,1.8-13.9c1.6,3.9-0.1,8.2,1.1,12.5c5.3-2,8.7-6.2,12.8-9.4c21.8-17.2,43.5-34.5,65.1-51.9
		c6.3-5.1,19.6-5.8,25-0.5c2.5,2.5,5.9,4.2,8.8,6.3c1.4-0.1,2,1,2.6,1.9c1.9,3,4.5,5.2,7.8,6.5c2.2,0.8,3.6,2.3,4.1,4.5
		c0.3,1,0.4,1.9,0.2,2.9c-0.1,0.5-0.3,0.9-0.5,1.4c-1.2,1.7-3.3,1.8-4.9,2.7c-1.6,0.9-3.3,1.6-5.2,1.7c-2.7,0-4.7,1.2-5.8,3.7
		c-6.1,6.6-12.1,13.3-19.3,18.7c-4.5,3.4-5.9,3-9.7-1c-4.1-4.3-6.4-10.3-12-13.2c-2.4-1.2-2.6-3.6-3-5.9c-0.4-1.9-1.3-3.5-3.5-3.5
		c-1.9,0-3.7,0.7-4.6,2.4c-1.1,2,0.4,3.4,1.5,4.8c1.7,2.1,4.6,2.7,5.8,5.2c4.1,10.7,11.1,19.5,17.8,28.6c1.7,2.3,4.1,1.9,6.4,1.2
		c5.3-1.7,9.8-4.9,14.3-7.9c1.6-1,3.1-3.6,5.5-1c1.4,4.5-0.9,8.8-0.4,13.2c-0.2,1.7-0.1,3.5-2.1,4.2c-1.3-0.5-1.9-1.8-3.1-2.4
		c-4.4-1.8-7.5,0.1-7.7,4.9c0,0.7,0,1.3,0,2c-0.1,8.6-0.1,8.6,8.3,10.3c0.5,0.1,0.9,0.4,1.3,0.6c0.7,0.6,1,1.4,1.1,2.2
		c0.3,1.4,0.2,2.9,0.2,4.3c-0.2,1.9,0.2,4-2,5.1c-1.2-0.5-1.4-1.8-2.2-2.6c-1.3-1.4-3-1.3-4.6-0.9c-1.5,0.4-2,1.7-2.1,3.1
		c-0.2,3.1-0.1,6.3-0.1,9.5c0,3.7,3.3,3.1,5.3,4.2c1.5,1.6,0.4,3.1-0.3,4.5c-3.1,6.2-4.3,12,2.4,16.8c-0.3,6.1,0.6,12.3-1.8,18.2
		c-2.3,0.1-2.1-1.7-2.3-3c-0.6-5.2-3.1-9.8-4.9-14.6c-0.6-1.5-1.2-3.3-3.3-3.3c-1.8,0-2.4,1.6-2.9,3c-2,5-4.1,10-5.8,16
		c3.1-1.5,4.4-3.8,7.3-4.4c5.9-1,8.3,2.9,11.1,6.5c1.2,1.6,1,3.3,0.8,5.1c-2.8,5.6-7.4,9.6-11.5,14c-3.5,2.2-6.1,5.4-9,8.3
		c-1,0.9-1.6,2.5-3.3,2.7c-7.4-4.1-15.2-6.2-23.6-6.4c-7.4-2.4-14.4-5.6-21-9.8c-1.7-1.1-3.4-2.3-4.9,0.3c-0.4,0.2-0.9,0.4-1.4,0.4
		c-2.7,0.2-3.1,2.2-3.1,4.2c-0.1,3.1-1.6,4.7-4.5,5.7c-6.6,2.3-7.3,3.4-7.5,10.5c-0.1,2.1,0.3,4.3-1.3,6.2c-2.3,1.4-4.9,1.2-7.3,0.9
		c-6-0.6-10.8,1.1-13.7,6.7c-0.1,3.2-0.1,6.5-0.2,9.7C118.9,309,118.3,308.4,118,307.1z"/>
	<path fill="#DEA575" d="M256,111.3c-1.1-0.9-0.6-2.9-2.6-3.3c-5.5-1.2-8.6-5.2-11.1-9.9c0-1-0.1-2-0.1-3.1c2.2-2.6,0.1-5.7,1-8.5
		c0.3-1,0.4-2.1,1.6-2.2c1.4-0.2,1.3,1.2,1.5,2.1c1.1,3.6,2.9,6.3,7.3,5.7c0.1-2.2-2.6-3.1-2.1-5.8c2.8,1,3.8,4.1,6.1,5.3
		c2.3,1.2,4.6,3.2,6.8-0.2c0.2,0,0.4,0,0.6,0.1c1.9,1.5,4,2.8,5.4,4.9c0.1,3.8-5,3.7-5.4,7.1c-0.5,0.8-1,1.5-1.7,2.1
		C260.8,107.4,258.1,108.9,256,111.3z"/>
	<path fill="#0D8D46" d="M129.5,141.1c-0.1,5-0.2,10-0.3,15c-4.1,5.1-9.6,8.5-15,12c-2.7,1.7-5.4,3.3-8.1,5
		c5.6-13.2,13.5-25.1,21.2-37.1C128.7,137.4,128.9,139.3,129.5,141.1z"/>
	<path fill="#7FCCC6" d="M220.1,268.2c3.7-4.4,7.4-8.8,11.1-13.1c3.4-4.1,7.2-7.3,13.1-5.2c2.4,1.1,4.5,2.6,6.9,3.6
		c4.7,2.9,8.5,7.3,14.4,8.2c4.3,0.3,6.6-2,6.2-6.5c-0.2-2.9-1.9-5.3-2.5-8c-0.1-0.5-0.1-0.9-0.1-1.4c0-1,0.3-1.9,0.5-2.9
		c0.9-6.7-2.3-9.9-9-9.2c-1,0.1-1.9,0.4-2.9,0.3c-1.4-1.6-2.4,0.5-3.6,0.3c-1.5-2.5-2.8-5.2-4.8-7.4c-2-2.7-4.4-5.2-6.1-8.2
		c-1.6-2.6-3.6-5.1-3.3-8.5c0.3-0.4,0.6-0.7,1.1-1c1.6-0.7,2.9-1.6,2.8-3.5c-0.1-4.7,0.8-9.4-0.9-14c-0.1-0.5-0.1-1,0-1.5
		c4.9-6.8,12.2-8,19.7-7.9c2.4,0,4.9,0.5,7.4,0.9c4.2,1.3,8.7,1.9,12.2,5c9.7,5.6,17.8,12.7,22.5,23.1c6.2,13.8,10.7,28.2,14.4,42.9
		c1.1,4.3,2.7,8.5,2.9,13.1c-3.9-2.8-6-0.5-7.7,2.8c-2.5-6-3.1-12.4-5.1-18.5c-0.6-1.9-1.3-3.7-1.9-5.6c-0.7-0.4-0.9-1.1-1-1.8
		c0-0.5,0-0.9,0-1.4c1.2-3.6,0.3-6.5-2.6-8.8c-0.5-0.5-0.8-1.1-0.6-1.9c-2.6-8.7-5.7-17.3-11.2-24.8c-1.1-1.5-2.4-2.7-3.8-3.9
		c-0.9-0.8-1.8-2.5-3.2-1.9c-1.4,0.6-0.3,2.4-0.9,3.6c-0.5,0.2-0.9,0.1-1.3-0.3c-0.7-4-3.3-6.1-7-7.5c-5.6-2.2-11.2-4.1-17.4-3.2
		c-7.7,1.2-10.6,6.3-7.9,13.7c0.6,1.5,1.1,3.1,2.1,4.5c1.3,2.4,3,4.5,4.9,6.4c1.8,2.6,4,4.7,6.3,6.8c3.3,3.4,6.7,6.6,9.9,10.1
		c0.6,0.8,1,1.6,1,2.6c0.1,6.8,1,8.3,6.1,9.6c0.7,0.4,1.2,0.9,1.6,1.6c1.4,3.4,1.4,6.8,0.8,10.4c-0.3,0.8-0.7,1.4-1.4,1.9
		c-7.2,3.4-14.2,7.6-22.1,9.3c-4.1,0.1-6.5-4.3-10.6-3.8c-1.7-2.1-3.6-4.1-6.1-5.3c-3.3-1.4-5.1,0.8-7.1,2.7
		c-1.8,1.7-3.3,3.6-4.7,5.5c-0.7,0.9-1.6,1.6-2.4,2.4c-0.8,0.8-1.7,1.6-2.9,1.8C222.8,273.3,220.4,271.7,220.1,268.2z"/>
	<path fill="#038A52" d="M298.2,143.2c0.2,0.3,0.4,0.7,0.7,1c5.1,6.7,3.3,12.8-1.2,18.9c-4.3,5.8-7.6,12.4-13.4,17
		c-3,0.8-5.5-0.6-8.1-1.6c-2.1-4.2,1.8-6.4,3-9.6c2-3.4,4-6.8,5.8-10.4c1.5-3.1,1.2-5.5-1.4-7.9c-2.4-2.2-4.9-4.5-6.3-7.6
		c-0.6-4.9-0.8-9.7,0.1-14.6c1.5-2.7,3-0.9,4.4,0.1c4.8,3.2,8.9,7.5,13.9,10.6C296.9,140.1,298.2,141.2,298.2,143.2z"/>
	<path fill="#D3A181" d="M276.2,177.7c2.8,0.3,5.4,1.2,7.9,2.4c-0.7,2.7-1.3,5.4-2,8c-4.1-1.3-8.1-2.7-12.2-4
		C270.4,180.4,272.7,178.4,276.2,177.7z"/>
	<path fill="#03475C" d="M252,213.3c-2-1.9-2.8-4.5-3.5-7c-2.3-8.4,3.9-14.7,13.7-13.8c5.5,0.5,10.7,2.1,15.8,4.3
		c3.8,1.6,6,3.8,5.3,8.1c1,2.8-1.1,3.2-2.9,3.4c-3.2,0.5-4,2.4-3.9,5.3c0,1.2,0.1,2.3,0,3.5c-0.4,6.4,2.4,10.3,8.6,12
		c0,1.3,0,2.7,0,4c-4.3-0.1-7.9,2.5-12,3.1c-3.3-3.4-6.6-6.7-9.9-10.1c-2.3-5.8-1.3-12.1-2.4-18.1c-0.3-1.8,0.2-3.7-0.6-5.4
		c-0.5-1.4-1.2-1.9-2.3-0.4c-1.5,2-2.4,4.3-3.4,6.5C253.7,210.2,253.6,212.2,252,213.3z"/>
	<path fill="#04475C" d="M267,287.9c0-0.9,0-1.8-0.1-2.7c-1.4-5.8-0.3-10.6,5.5-13.6c1.3-0.7,2.4-1.7,3.4-2.9c0.5-0.6,1-1,1.7-1.4
		c2.9-0.7,4-4.5,7.5-4.3c0,1,0,2,0,3c-0.9,6.3-0.2,12.6-0.4,18.9c-0.1,4.8-0.9,5.7-5.4,5.4c-3-0.2-5.9-0.5-8.9-0.3
		C268.9,290.1,267.1,290.2,267,287.9z"/>
	<path fill="#10596E" d="M285,229.1c-7,0-8.8-1.4-9.7-8.2c-0.5-3.4-0.2-6.9-0.2-10.4c0-2.6,1.5-3.4,3.9-3.4c1.8,0,3.8,0.4,4.2-2.2
		c0.2,0.1,0.5,0.2,0.7,0.3c-0.1,1.6,0.8,2.5,1.7,3.8c4,5.4,6.2,11.3,3.2,18c-0.5,1.2-1.4,1.7-2.7,1.4
		C285.7,228.6,285.4,228.8,285,229.1z"/>
	<path fill="#125A6F" d="M267,287.9c5.1,0.3,10.2,0.9,15.3,0.9c2.1,0,1.6-2.2,1.7-3.6c0.1-4.8,0-9.6,0.1-14.5c0-1.6-0.5-3.4,0.8-4.7
		c0,4.8-0.2,9.5,0.1,14.3c0.2,3.3-2.1,7.4,3.1,9.5c1,0.4,2.7,4.7-1,6.3c-2.8,0.6-5.7,0.4-8.3,1.5c-2.1,0.9-4,0.7-5.8-0.7
		c-1.1-0.1-2.3-0.1-3.4-0.4c-1.9-0.4-4.7,1.2-5.3-2.1C263.8,291.9,263.8,289.2,267,287.9z"/>
	<path fill="#FDFEFE" d="M303,232.1c0.3,0.3,0.7,0.7,1,1c1.7,2.6,3.6,5.2,2.6,8.6c-1.5,2.2-4.3,0.9-6.5,2.1c2.5,0.5,4.8-2,6.9,0.3
		c0.1,0.6,0.2,1.2,0.3,1.8c-3.1,4-7.2,4.2-11.1,2c-4.3-2.4-3.7-7.1-2.7-10.7C294.6,232.9,298.5,231.4,303,232.1z"/>
	<path fill="#F5F8F8" d="M286.1,228.3c0.9-0.5,1.8-1,2.7-1.4c2.7,6.7,0.7,13.7,1.1,20.5c0.1,1.2-1,1.6-2.1,1.5
		c-1.6-0.2-1.6-1.4-1.6-2.6C286.1,240.3,286.1,234.3,286.1,228.3z"/>
	<path fill="#05485D" d="M285,237.1c0,2.3,0,4.7,0,7c-1.1,2.1-2.6,3.5-5.2,2.7c-1.7-0.8-2.4-2.3-2.8-4c-0.2-1.3-0.3-2.6,0-3.9
		c0.4-2.1,1.4-3.7,3.4-4.4C282.8,233.7,284,235.2,285,237.1z"/>
	<path fill="#245773" d="M285,237.1c-1.5-0.7-2.6-2.8-4.7-1.5c-3,1.8-2.1,4.7-2.2,7.4c-3-0.2-3.8-2.4-4.2-4.8
		c-0.3-0.7-0.6-1.4-0.9-2c3.6-2.7,7.1-5.7,12-3.1C285,234.4,285,235.7,285,237.1z"/>
	<path fill="#05495D" d="M282.1,260c0.2-3.7,0-7.3-0.9-11c1-1.3,2.2-2.2,3.9-1c0,4.3-0.1,8.6-0.1,13
		C283.7,261.7,282.9,260.9,282.1,260z"/>
	<path fill="#245A54" d="M282.1,260c1,0.3,1.9,0.7,2.9,1c0,0.7,0,1.4,0,2.1c-2.7,1.2-3.6,5-7.2,4.8c-0.7-3.2,1.6-4.9,3.4-6.8
		C281.5,260.7,281.8,260.4,282.1,260z"/>
	<path fill="#235673" d="M285.1,248.1c-1.3,0.3-2.6,0.7-3.9,1c-0.3-0.4-0.7-0.8-1-1.1c-0.6-0.6-0.7-1.2-0.2-1.9c2.1,0.3,3.5-1,5-2
		C285,245.4,285.1,246.7,285.1,248.1z"/>
	<path fill="#B6C2BB" d="M279.2,297c2.5-1.5,5.2-0.8,7.9-0.8c-1,1.4-3.1,0.2-4,1.8c-1,0-2-0.1-3.1-0.1
		C279.6,297.8,279.3,297.4,279.2,297z"/>
	<path fill="#DDC84A" d="M141.1,289.6c0-2.7,0-5.3,0-8c0.1-4.5,2.2-7.9,6.7-8.6c4.1-0.6,5.7-2.2,5.2-6.4c-0.4-3.7,1.3-5.4,5.1-3.6
		c0.5,0.4,1.4,0.7,1.4,1.3c0.3,7.1,5.3,6.6,10.2,6.5c0.8,0.1,1.5,0.3,2.2,0.6c13.2,10,27.9,16.2,44.3,18.1c0.8,0.3,1.4,0.8,1.8,1.5
		c0.9,3.2,4.4,6.1,1.3,9.8c-7,1.5-14.2,0.5-21.2,0.6c-3.1,0.1-5.9,0.6-8.2,2.8c-0.4-1.4-0.7-2.8-1.1-4.2c-5-6.9-11.9-9-20.1-8.6
		c-7.3,0.3-14.6,0.1-22,0C144.8,291.4,142.5,291.9,141.1,289.6z"/>
	<path fill="#0B475A" d="M141.1,289.6c10.6,0.1,21.3,0,31.9,0.4c6.5,0.2,12.6,1.8,15.6,8.6c0.2,0.4,0.2,1,0.2,1.5
		c-8.1,0-16.1,0-24.2,0c-1.6,0-3.3-0.5-4.6,1c-6-3.5-12-3.6-18.1-0.3c-5.1-1.7-10.3-0.5-15.5-0.7c-2.4-0.1-4.5-0.5-6.3-2.1
		c0.7-5.6,3.1-8,8.5-8.2C132.9,289.7,137,289.6,141.1,289.6z"/>
	<path fill="#FED148" d="M190,304.2c-0.3-3.5,1.5-4.3,4.8-4.3c8.4,0.2,16.8,0.1,25.1,0.1c1.1,0.4,1.6,1.3,2,2.3
		c0.4,1.6,0.5,3.2-0.6,4.6c-9.4,0.1-18.9,0.1-28.3,0.2C190.9,307.2,189.3,306.9,190,304.2z"/>
	<path fill="#DCEDE5" d="M220.9,302.2c-0.3-0.7-0.7-1.5-1-2.2c-0.9-3-1.8-6-2.7-9c2.5-2,5.5-1.3,8.3-1.5c0.5,0.1,0.9,0.4,1.2,0.9
		c0.6,1.2,0.6,2.8,1.8,3.7c1.4,1.2,4.7,0.6,3.8,4c-0.1,0.9-0.1,1.8-0.2,2.7c-0.7,0.1-1.3,0.2-2,0.3
		C227.1,301.5,223.9,301.2,220.9,302.2z"/>
	<path fill="#FAFBFB" d="M220.9,302.2c2.6-4.1,6-2.3,9.3-1.1c-1.1,1.8-2.3,3.5-2.1,5.7c-0.4,0.7-0.6,1.8-1.9,1
		c-1.4-1.5-3.3-0.2-4.9-0.9C221.2,305.4,221,303.8,220.9,302.2z"/>
	<path fill="#184E6E" d="M226.2,307.9c0.6-0.3,1.2-0.7,1.9-1c-1.4,2,2.2,4.9-1.1,6.8C225.5,311.8,226.3,309.8,226.2,307.9z"/>
	<path fill="#0D2532" d="M298.2,143.2c-1-1-1.9-2.1-2.9-3.1c-4.1-3.8-7-8.6-10.3-13.1c-1-1.3-1.9-2.7-1.1-4.5
		c5.4-0.8,10.7-1.9,16.2-1.4c0.3,0,0.7,0,1,0c2,2.2,4.1,4.3,7.2,5.1C306.8,133,305.5,139.9,298.2,143.2z"/>
	<path fill="#0D4E52" d="M300.1,121.1c-5.2,1.8-10.6,2.3-16,2c-2.9-0.1-4.5-2.8-7-3.6c-5-1.1-7.1-4.1-6.3-9.2
		c0.4-3.8,2-7.2,4.3-10.2c0.3,0,0.7,0,1,0c2.5,5.1,7.9,7.2,11.9,10.8C291.8,114.5,296.6,117,300.1,121.1z"/>
	<path fill="#001B44" d="M277.1,85.1c0.3,0,0.6,0,0.9,0c1.7,3,1.6,6,0,9C278.3,91.1,278,88.1,277.1,85.1z"/>
	<path fill="#A9837A" d="M127.2,111.1c0-0.5,0-0.9,0-1.4c0.7-0.6,1.4-1.1,3.1-2.4C129.3,109.8,128.5,110.6,127.2,111.1z"/>
	<path fill="#0D2633" d="M275.1,100.1c0.3,3.7-3.3,6.2-3,9.9c-1.2,2.6,0,5.4-0.7,8c-1.1,1.1-2.5,1.1-3.9,0.9c-2-0.7-4.2-1.3-5.8-2.9
		c-0.8-1.2-0.9-2.6-0.8-4c0.2-2.5,0.6-4.9,2.2-7c0.5-0.6,0.9-1.3,1.4-1.9c3.9,1.2,6.5-1.9,9.8-3
		C274.4,100.1,274.8,100.1,275.1,100.1z"/>
	<path fill="#104A50" d="M274.1,100.1c-4,4.7-6.8,5.5-9.8,3c-0.4-4.4,4.9-3.8,5.9-7c0.2-0.4,0.4-0.4,0.7-0.3
		C270.9,98.2,273,98.8,274.1,100.1z"/>
	<path fill="#E79E84" d="M271,96c-0.2,0.1-0.5,0.2-0.7,0.3c-2.7-0.5-4.4-2.1-5.2-4.7C269.2,90.1,270.7,92.3,271,96z"/>
	<path fill="#1A5C62" d="M87.2,165.1c4.7-3.7,9.3-7.3,14-11c5.5,2.4,5.5,2.4,1,9C98,169.2,92.7,169.9,87.2,165.1z"/>
	<path fill="#0D8947" d="M110.2,147.1c2.7-2.3,5.4-4.6,8.1-6.9c-0.3,2.4-2,4.1-3.1,6.1C113.8,148.6,112.1,148.2,110.2,147.1z"/>
	<path fill="#0A3B5B" d="M151.4,305c4.6,0.4,8.1,4.4,7.6,8.7c-0.4,4.4-4.5,7.6-9.1,7.2c-4.3-0.4-7.8-4.3-7.5-8.4
		C142.8,308.3,147.1,304.7,151.4,305z"/>
	<path fill="#104E70" d="M118,307.1c0.5,0.8,1.2,0.8,2,0.7c0,0.2,0,0.3,0,0.5c-0.5,1.9-0.5,4.1-2.4,5.3c-0.8,0.5-1.7-0.1-2-0.9
		c-1.1-2.2,0.8-3.7,1.5-5.5C117.4,307.1,117.7,307.1,118,307.1z"/>
	<path fill="#FBFEDA" d="M266,278c-6.3,3.7-12.5,7.6-19.8,9c-1.8-4.3,0.2-8.2,1-12.3c0.2-0.5,0.5-1,0.8-1.4
		c3.3-2.6,7.1-3.5,11.3-2.8c2.8,0,5.5,0.2,7.5,2.7C267.5,275,267.2,276.5,266,278z"/>
	<path fill="#223231" d="M248,274c-0.6,4.3-1.2,8.7-1.8,13c-0.3,0.7-0.7,1.4-1,2.1c-2.3,0.3-4.5,1.6-6.8,0.4c-3-4.6-0.3-9,0.6-13.5
		c0.2-0.5,0.6-1,1-1.3C242.6,273.6,245.2,272.4,248,274z"/>
	<path fill="#11596E" d="M227.5,295.3c-2.2-0.9-1.3-2.7-1.2-4.3c2-2,4.9-1,7.1-2c2.1-0.6,4,0.2,6,0.5c2,0.3,4.1-1,6,0.4
		c2.3-0.3,2.8,0.8,2.6,2.9c-0.1,1.6-0.7,2.4-2.4,2.4c-1,0-2,0.1-2.9,0.2C237.7,296.7,232.6,296.1,227.5,295.3z"/>
	<path fill="#CCA185" d="M227.5,295.3c5.1,0,10.2,0,15.3,0c-0.9,0.3-1.8,0.6-2.8,0.8c-2.1,4.7-3.7,5.1-7.6,1.9
		C232.1,294.8,228.9,296.6,227.5,295.3z"/>
	<path fill="#2A5F58" d="M266,278c0.1-1.6,0.1-3.3,0.2-4.9c3.5-1.7,6.6-4.4,10.8-4.3c-0.3,1.8-1.7,2.7-3.2,3.5
		c-5.4,2.7-7.6,7.1-6.8,13.1C266.6,282.8,266.3,280.4,266,278z"/>
	<path fill="#EAA085" d="M279.2,297c0.3,0.3,0.6,0.6,0.8,0.9c-0.2,5-3.3,4.9-6.9,4c0-1.6-0.1-3.2-0.1-4.9
		C275,297,277.1,297,279.2,297z"/>
	<path fill="#0A2539" d="M245.4,289.9c-2.1,0-4.2,0-6.3,0.1c-0.4-0.2-0.5-0.4-0.4-0.6c0.1-0.2,0.2-0.3,0.3-0.3
		c2,0.7,4.1-2.3,6.1,0.1C245.3,289.3,245.4,289.6,245.4,289.9z"/>
	<path fill="#0C4466" d="M53.8,311.3c-1.8,1.1-3.3,0.8-5.1,0.3C50.3,309.4,51.8,309.7,53.8,311.3z"/>
	<path fill="#038A52" d="M114.2,168.1c4.4-4.8,9.6-8.5,15-12c-0.4,10.7,3.1,20,9.5,28.4c2.3,3,3.7,6.6,5.7,9.8c1.1,1.8,1,3.4-0.3,5
		c-1.1,2-2.1,4-4.8,3.9c-2.6,0.7-4-1-5.5-2.6c-4.9-5.2-9.7-10.4-14.6-15.6c-3.1-3.7-3.3-8.1-3.2-12.6
		C116,170.7,117,168.6,114.2,168.1z"/>
	<path fill="#03475C" d="M276.2,177.7c-2.1,2.1-4.2,4.3-6.3,6.4c-3.6-0.2-7.3-0.8-10.9-0.6c-6.4,0.3-12,2.7-16.3,7.6
		c-2.2,1.8-4.4,1.5-6.6,0c0-1.3,0.1-2.7,0.1-4c0.3-2.1,1.7-3.1,3.7-3.3c3.1-0.2,3.8-2.1,3.7-4.7c-0.1-1.5-0.2-3,0-4.5
		c0.7-4.7-0.8-8-5.5-9.5c0.3-4.6,0.6-9.2,0.9-13.8c-0.7-9.5-1.5-19,0.8-28.3c0.6-3.9,3.2-4.5,6.5-4c3.4,3.9,1.9,8.6,2.2,13
		c0,1.4,0.1,2.9,0,4.3c0.2,7.5,0.2,7.5,7.5,7.5c3,0,6,0.1,9-0.2c3.2-0.3,4.7-1.9,4.7-5.2c0.1-5-0.5-10,0.4-14.9
		c0.9-2.4,2.6-1.6,4-0.8c1.6,0.9,3,2.1,3.9,3.8c0.1,0.3,0.1,0.5,0.2,0.8c0,5.7,0,11.4,0,17.1c3.1,8,3.6,16.2,2.1,24.6
		C279.4,172,276.2,174.1,276.2,177.7z"/>
	<path fill="#038A52" d="M239.9,122.9c-0.1,9.5,1.2,18.9-0.8,28.3c-5.7,3.7-11.1,7.8-17.4,10.5c-4.5,1.9-7.8,1.3-10.6-3.1
		c-4.8-7.7-9.9-15.3-14.9-22.9c-0.9-1.4-1.7-2.9-1-4.6c0.8-2.2,2.2-3.5,4.6-3.7c2.5-0.6,3.6,1.4,4.8,2.9c2.9,3.4,5.7,6.9,8.3,10.5
		c2.3,3.2,4.4,3.2,7.3,0.9C227.4,136.2,233.3,129.1,239.9,122.9z"/>
	<path fill="#038952" d="M271.2,122.2c0,6-0.2,11.9,0,17.9c0.1,3-1,4.1-3.8,4.5c-5.9,1-11.9,0.3-17.8,0.5c-1.7,0.1-2.4-0.9-2.4-2.5
		c0-2.2,0-4.3,0-6.5c1.1-1.5,3.1-1.1,4.9-2.2c-1.6-1.1-3.8-0.4-4.9-1.9c-0.1-4.4,0.2-8.9-0.8-13.2c1.6-0.5,3.1-0.9,4.7-1.4
		c2.7,0.7,4.9,3.4,8.1,1.7c0.1-0.1,0.4,0.8,0.4,1.3c-0.2,3.7,0.3,7.4,0.9,11c0.1,2.7-0.1,5.4,0.3,8.1c0.3,0.6,1.1-0.3,0.5,0
		c-1.6-3.2,0.1-6.7-1.1-10c-0.2-3.1-0.8-6.2-0.6-9.3c0-0.9,0.4-1.9,1.3-1.4c2.4,1.3,4.3-0.2,6.3-0.9c1.3,0,2.6,0,3.8,0
		C272.2,119.4,272.3,120.8,271.2,122.2z"/>
	<path fill="#FAD73F" d="M216.1,290c-6.9,0.8-13.3-1.4-19.5-3.9c-8.7-3.4-17.6-6.8-24.5-13.7c3.9-4,8-0.9,12-0.5
		c8.8,0.1,17.4,0.8,24.5,6.8c4.3,1.2,5.3,5.6,8,8.4C217,288.2,216.9,289.2,216.1,290z"/>
	<path fill="#FEFEFE" d="M218.1,175.5c0,9.6,0,9.6-9.8,9.6c-10.2,0-10.2,0-10.2-10.2c0-10.9-1-9.7,10-9.8
		C218.1,165.1,218.1,165.1,218.1,175.5z"/>
	<path fill="#FEFEFE" d="M208.3,210.1c-10.2,0-10.2,0-10.2-10.2c0-8.7,0-8.7,9-8.7c11,0,11,0,11,10.9
		C218.1,210.1,218.1,210.1,208.3,210.1z"/>
	<path fill="#FEFEFE" d="M154.2,237.5c0,2.8,0,5.6,0,8.5c0,1.4,0,2.8-1.9,2.9c-1.9,0.1-2.1-1.3-2.1-2.7c0-1-0.1-2,0-3
		c0.5-3.8-1.6-4.2-4.8-4.3c-3.2,0-4.7,0.9-4.3,4.3c0.1,1.1,0,2.3,0,3.5c0,1.7-1,2.3-2.5,2.3c-1.3,0-2.3-0.5-2.3-2
		c0-6.3,0-12.6,0-18.9c0-1.5,1-2,2.3-2c1.6,0,2.5,0.6,2.6,2.3c0,1,0.1,2,0,3c-0.4,3.9,2.1,3.7,4.7,3.7c2.7,0.1,4.7-0.3,4.3-3.7
		c-0.1-1,0-2,0-3c0-1.3,0.5-2.3,2-2.2c1.5,0.1,1.9,1.1,1.9,2.4C154.1,231.6,154.1,234.5,154.2,237.5
		C154.1,237.5,154.1,237.5,154.2,237.5z"/>
	<path fill="#11596E" d="M239.8,210c1.4,2.7,2.7,5.4,4.1,8.1c-0.7,3.5,0.5,7.7-3.3,10.2c-2.7-1.4-4.3,0-5.7,2.1
		c-0.7,0.2-1.4,0.1-2-0.4c-5.2-1.3-6.2-4.8-5.1-9.5c0.8-3.8,2.3-7.2,4.5-10.4c0.5-0.7,1.2-1,2.1-1.2
		C236.3,208.8,238.2,208.5,239.8,210z"/>
	<path fill="#FEFEFE" d="M236,185.1c-10.9,0.1-10.9,0.1-10.9-11c0-0.7,0-1.3,0-2c0-6.5,3.9-9.1,10.3-6.9c2.3,0.8,1.3,2.7,1.9,4.1
		C239.6,174.8,239,180,236,185.1z"/>
	<path fill="#FDFEFD" d="M231.2,249.1c-1.3-0.1-2.5-0.3-3.4-1.6c-3.3-4.9-8.3-5-11.8-0.4c-1,1.4-2.1,2.2-3.7,1.6
		c-1.9-0.7-0.9-2.2-0.5-3.3c2.1-5.6,4.2-11.1,6.4-16.7c0.6-1.6,1.5-2.9,3.6-2.8c1.7,0.1,2.9,0.8,3.4,2.4
		C227.6,235.2,231.8,241.5,231.2,249.1L231.2,249.1z"/>
	<path fill="#FDFEFD" d="M193.3,248.7c-2.2-1-3.6,0.2-3.2,3.9c0.2,1.6-0.7,2.4-2.4,2.5c-2,0-2.6-1.1-2.6-2.8c0-5.7-0.1-11.3,0.1-17
		c0.1-2.4,1.3-4,3.9-2.5c1.5,0.9,2.3,0.2,3.5-0.3c2.8-1.1,5.4-0.2,7.2,2c2.7,3.4,2.5,7.5,0.8,11.2
		C199.5,248,197.5,249.6,193.3,248.7z"/>
	<path fill="#058A53" d="M155.3,175.2c4.6,0,8.1,3.5,8.1,8.2c0,4.6-3.5,8.3-8.1,8.3c-4.5,0-8.2-3.7-8.2-8.3
		C147.1,179,150.8,175.3,155.3,175.2z"/>
	<path fill="#FDFDFD" d="M233.9,210c-0.5,0.1-1,0.1-1.6,0.2c-7.2-0.3-7.2-0.3-7.2-7.7c0-2,0.2-4,0-5.9c-0.4-4,1.2-5.4,5.3-5.6
		c4.5-0.2,4.9,2.1,4.8,5.3C237.6,201.8,237.1,207,233.9,210z"/>
	<path fill="#FDFEFE" d="M165.9,249.1c-4.4,0.3-6.9-2.1-7.7-6.1c-0.9-4.9,1.6-9.7,5.2-10.7c3.8-1.1,7.7,0.9,9.2,4.9
		c1.1,3.1,0.9,5.3-3.2,5c-1.2-0.1-2.3-0.1-3.5,0c-0.9,0.1-1.9,0.3-2.8,0.5c0.2,0.8,0.2,1.6,0.6,2.3c0.7,1.1,1.9,1.6,3,0.8
		c1.7-1.1,3.4-2.2,5.5-1.2c0.8,0.4,0.6,1.1,0.2,1.7C170.8,248.2,168.5,249.1,165.9,249.1z"/>
	<path fill="#255773" d="M236,185.1c0.8-5.2,1.3-10.5,1.2-15.8c0.3-1.4,0.7-2.8,1-4.2c6.9,0.1,6.9,0.1,6.9,6.8c0,1.5,0,3,0,4.5
		c0,4.6,1.4,10.2-6.6,8.9c-0.6-0.1-1.5,1.2-2.2,1.8C236.2,186.4,236.1,185.7,236,185.1z"/>
	<path fill="#D5A282" d="M199.7,127.4c-1.5,1.2-3,2.5-4.6,3.7c-2.4-1.9-5.4-3.2-7.2-5.8c-1.1-1.5-2.1-3.1-0.7-4.9
		c1.7-2.3,4.1-3.1,6.9-3.2c2.3-0.1,3.1,1.6,3.7,3.3C198.5,122.7,197.4,125.6,199.7,127.4z"/>
	<path fill="#D5A382" d="M139.2,203.2c1.6-1.3,3.2-2.6,4.8-3.9c1.7,3.2,4.7,5.7,5.8,9.2c0.7,2.3,0.9,4.6-1.1,6.4
		c-0.9,0.8-2.4,1.5-3.1,0.5c-1.4-2-6.3-1.1-4.7-5.8C141.7,207.4,140.4,205.2,139.2,203.2z"/>
	<path fill="#094B60" d="M233,230.1c0.7,0,1.4,0,2.1,0c0.8,0.2,1.4,0.6,1.7,1.4c1,3.2,0.5,6.6,0.6,9.9c0,2.9-0.3,5.7,4.1,5.5
		c1.1,0,2.1,1,2.8,2c0.4,0.7,0.5,1.4-0.1,2.1c-3.3-1.4-6.1-0.5-8.8,1.5c-1.3,1-2.3,2.5-4.1,2.6c0-2,0-3.9,0.1-5.9c0,0,0,0,0,0
		C232.7,242.9,232.1,236.4,233,230.1z"/>
	<path fill="#FAFEDA" d="M184.1,272.1c-4,0.2-8,0.3-12,0.5c-0.7-0.1-1.3-0.3-2-0.4c-4.6-1.8-8-5.2-11-9c-0.3-1-1.5-2.1-0.1-3.1
		c1-0.8,2-0.1,2.7,0.5C168.6,265.4,176.5,268.5,184.1,272.1z"/>
	<path fill="#068B52" d="M220.1,268.2c1.6,2.4,3.9,4.1,6,6c1.3,2.6-0.2,3.9-2.3,4.9c-2.9,0.7-5.8,0.6-8.7,0.3c-1.9-0.2-4-0.5-4-3.2
		C214,273.3,215.3,268.8,220.1,268.2z"/>
	<path fill="#FEFEFE" d="M181.1,237.4c0,3,0,6,0,8.9c0,1.2-0.2,2.4-1.8,2.5c-1.8,0.1-2.2-1.1-2.2-2.5c0-6,0-11.9,0-17.9
		c0-1.3,0.5-2.3,2-2.3c1.5,0,1.9,1,2,2.3C181.1,231.5,181.1,234.5,181.1,237.4z"/>
	<path fill="#285A76" d="M233.9,210c1.9-4.4,1-9.1,1.3-13.7c0.3-1.7,0.6-3.5,0.9-5.2c2.2,0,4.4,0,6.6,0c0.2,0,0.4,0,0.7,0
		c-2.8,6.1-3,12.5-3.1,19c-0.2-0.1-0.3-0.1-0.5-0.1C237.8,210,235.9,210,233.9,210z"/>
	<path fill="#249B47" d="M211.1,276.1c3.8,3.9,8.6,1.1,12.9,1.9c-0.6,5-4.6,7.1-8.2,9.5c-2.4-2.9-4.7-5.8-7.1-8.7
		C209.5,277.9,210.3,277,211.1,276.1z"/>
	<path fill="#A9D7D6" d="M267.2,118.1c-1.8,4.1-4.2,4.1-7.1,1.1c-0.4-0.1-0.7-0.1-1,0.2c-4.1,5.1-5.7,0.2-8.1-1.9
		c1-2.1,3.6-0.9,4.9-2.3c2.1-0.1,4.1,0.2,6.2,0.7C263.9,116.4,265.9,116.4,267.2,118.1z"/>
	<path fill="#DEEFE6" d="M159.2,263c4.3,2.3,7.3,6.1,11,9c-3.3,0-6.9,1-9.7-0.2c-3.3-1.5-0.3-6.1-2.3-8.8
		C158.5,263,158.8,263,159.2,263z"/>
	<path fill="#D88060" d="M263,105.1c-0.3,2.4-0.7,4.7-1,7.1c-1.6,1.7-3.3,2.7-5.7,1.9c-0.1-0.9-0.2-1.9-0.3-2.8
		C256.3,106.9,260.3,106.7,263,105.1z"/>
	<path fill="#CDA184" d="M256.2,114c1.9-0.6,3.8-1.3,5.7-1.9c0.1,1.2,0.1,2.5,0.2,3.7c-2.2,1-4.3,1-6.2-0.7
		C256,114.8,256.1,114.4,256.2,114z"/>
	<path fill="#DCEEE6" d="M265.3,261.9c-0.5,0.7-1.2,1.2-2,0.7c-4.3-2.5-9-4.5-12.2-8.6c-2.4-3.2-0.4-6.3,0-9.5
		c0.6-1.5,0.7-3,0.9-4.6c0.3-1,0.6-1.9,1.8-2.1c1.5,0.9,1.3,2.5,1.6,3.9c1.3,5.1,3.6,6.4,9,5c0.6,0,1,0.3,1.3,0.8
		c0.3,0.5,0.5,1,0.6,1.6C266.3,253.4,267.6,257.8,265.3,261.9z"/>
	<path fill="#03475C" d="M240.1,275c0,0.3-0.1,0.7-0.1,1c-3.5,1.6-7,3.6-10.7,0.2c-0.9-2.2-0.3-4.2,0.6-6.1c1.7-3.5,4.6-6,7.3-8.6
		c1.8-1.7,3.9-2.5,6.2-0.7C243.1,265.7,243.2,270.7,240.1,275z"/>
	<path fill="#FAFDD9" d="M215.8,287.5c2.7-3.2,5.5-6.3,8.2-9.5c1.1-1.1,2.3-2.1,2.1-3.9c0.7-0.7,1.3-1.4,2-2.1
		c2.7,0.5,1,2.7,1.5,4.1c1,3.1,1.2,6.2,0.5,9.3c-0.7,2.1-1.2,4.5-4.2,4.7c-2.8,1.7-5.8,0.7-8.8,1c-0.4-0.3-0.7-0.7-1.1-1
		C216,289.2,215.9,288.4,215.8,287.5z"/>
	<path fill="#05485D" d="M265.3,261.9c-0.1-4.6-0.1-9.2-0.2-13.9c1.4-1.3,2.7-2.6,4.7-0.9c4.4,7.4,4.4,12.2,0,15.7
		C267.9,264.4,266.3,264.7,265.3,261.9z"/>
	<path fill="#9DDBB9" d="M276.9,268.7c-3.4,1.9-6.4,4.9-10.8,4.3c-2.3-0.7-4.6-1.4-6.9-2.2c-0.4-0.1-0.6-0.3-0.5-0.5
		c0.1-0.2,0.2-0.4,0.3-0.4c7.9-1.7,14.5-6.5,22-9c-0.1,2.8-2.3,4.5-3.4,6.8C277.5,268.2,277.2,268.5,276.9,268.7z"/>
	<path fill="#A0DBDC" d="M240.3,210.1c-2.2-6.9-2.1-13.3,3.1-19c3.6,5.7,1.3,11.9,1.3,17.8C244.7,210.7,241.9,209.8,240.3,210.1z"/>
	<path fill="#D5E8E1" d="M260.2,201.3c1.2,0.2,1.6,1.1,1.6,2.1c0.2,7.6,1.6,15.1,1.2,22.6c-2.5-1.9-5.2-3.7-6.1-7
		C255.5,212.6,257,206.8,260.2,201.3z"/>
	<path fill="#04223D" d="M240.1,275c1.1-4.7,0.6-9.9,3.2-14.3c2.2,1.8,5.8,2.3,5.9,6.2c2,2.7,0,4.8-1,7.1L248,274
		C245.3,274.2,242.9,275.5,240.1,275z"/>
	<path fill="#05243E" d="M260.2,201.3c-1.1,5.9-2.2,11.8-3.3,17.8c-2.9-0.9-3.8-3.4-5-5.7c0.6-4.6,2.6-8.7,5.1-12.5
		c0.7-1,1.7-2.2,3.2-1.3C260.5,199.6,260.2,200.6,260.2,201.3z"/>
	<path fill="#FAFCFB" d="M264.3,246.8c-2.5,3.1-6.4,2.5-9-1.3c-1.6-2.4-1-5.1-1.4-7.7c-0.9-1.3-1-2.6,0.3-3.7
		c0.8-0.7,1.3-2.2,2.8-0.9c1.4,0.7,3.4,0.6,3.7,2.8c-0.2,3.5-1.7,7.5,3.5,8.9C264.6,245.5,264.7,246.1,264.3,246.8z"/>
	<path fill="#05485D" d="M240.1,228.1c3.3-2.5,0.6-7.3,3.8-9.9c2,2.6,4,5.3,6,7.9c-0.8,2.3-0.4,5.2-3,6.6c-0.9,0.4-1.9,0.6-2.9,0.8
		c-4.8,1.1-4.8,1.1-4.8-4.2C239.4,228.8,239.7,228.4,240.1,228.1z"/>
	<path fill="#9FDBDC" d="M260.1,236.1c-1-1-2-2-3-3c7.5-2.1,12.1-0.6,13.7,4.5c0.9,3,0,5.9-0.8,8.7c-2.2-0.1-3.4-1.5-4.5-3.2
		c-0.3-0.6-0.5-1.3-0.5-2c0.2-2.8-1.3-3.9-3.8-4.2C260.7,236.7,260.4,236.4,260.1,236.1z"/>
	<path fill="#082540" d="M247.1,232.1c1.8-1.6-0.4-5.1,2.8-6c2.2,2.3,5.1,4.1,4.4,8c-0.1,1.2-0.2,2.5-0.3,3.7
		c-0.3,0.7-0.6,1.5-1,2.2c-4.2-0.7-3.4-5.2-5.8-7.3C247.2,232.5,247.1,232.3,247.1,232.1z"/>
	<path fill="#DAEDE4" d="M248.3,274c0.3-2.4,0.7-4.7,1-7.1c1.1-1.7,2.2-1,3.5-0.2c2,1.2,4.2,2.2,6.3,3.2c0,0.3,0.1,0.6,0.1,0.9
		C255.3,271,251.8,272.5,248.3,274z"/>
	<path fill="#082540" d="M252.3,244.4c-0.4,3.2-0.8,6.4-1.2,9.6c-3,0.6-4.7-1.9-6.9-3.1c0-0.6,0-1.2,0-1.9c0.1-0.2,0.3-0.4,0.4-0.6
		c2.3-1.3,4.7-2.5,5.7-5.2c0.3-0.7,0.8-1.7,1.8-1.1C252.9,242.7,252.4,243.6,252.3,244.4z"/>
	<path fill="#9DDADB" d="M280,246.1c0.1,0.6,0.1,1.2,0.2,1.9c-1.6,2-3,0.8-4.1-0.4c-2.4-2.7-3.5-5.7-2.2-9.3
		c1.4,1.6,2.8,3.2,4.2,4.8C278.7,244,279.4,245,280,246.1z"/>
	<path fill="#DEF0E8" d="M306.9,244.1c-1.7-0.1-3.2-0.1-4.6,1.1c-1.4,1.2-2.8,0.8-3.9-0.5c-0.4-0.5-0.9-1.3-0.8-1.7
		c0.6-1.7,2.2-0.9,3.4-1c1.6-0.1,3.3-0.1,4.9-0.1c0.7,0.1,0.7,0.6,0.9,1.1C307,243.5,307,243.8,306.9,244.1z"/>
	<path fill="#A5DDDE" d="M306.9,243.1c-0.3-0.4-0.6-0.7-0.9-1.1c-0.7-3-1.4-5.9-2-8.9C308,235.6,309.2,238.8,306.9,243.1z"/>
	<path fill="#2F617A" d="M266.5,242.8c1.2,1.2,2.3,2.4,3.5,3.6c-0.1,0.3-0.1,0.5-0.2,0.8c-1.6,0.3-3.1,0.6-4.7,0.9
		c-0.2-0.2-0.3-0.5-0.2-0.7C265.1,245.7,262.9,243.3,266.5,242.8z"/>
	<path fill="#BFDCD4" d="M229.2,276.2c-0.5-1.4,0.3-3.1-1.1-4.2c0.6-0.6,1.3-1.3,1.9-1.9c0,1.9,0,3.8-0.1,5.7
		C229.9,276.4,229.6,276.5,229.2,276.2z"/>
	<path fill="#D9ECE4" d="M280.2,168.8c-0.7-8.2-1.4-16.4-2.1-24.6c4,1.8,5.8,5.7,8.9,8.4c1.3,1.2,0.6,2.5,0.1,3.6
		C285.2,160.6,283.2,165,280.2,168.8z"/>
	<path fill="#0D8C46" d="M278.1,119.2c2.7,0.2,4.1,2.3,5.9,3.9c3.1,6,8.3,10.7,11.2,17c-6.3-3.5-11.3-8.8-17.1-13c0,0-0.1,0-0.1,0
		C276.6,124.5,275.9,121.8,278.1,119.2z"/>
	<path fill="#E1F1EA" d="M300.9,239.2c-1.4-0.4-3.3,0.6-3.3-1.5c0-1.3,1.3-2.3,2.7-2.5c1.9-0.2,2.8,1.2,2.9,2.7
		C303.4,240,301.4,238.4,300.9,239.2z"/>
	<path fill="#2E6764" d="M226,290c2.1-0.6,2.3-2.6,3-4.2c1.3,1.5,3.9,1.7,4.1,4.2c-2.1,1.9-4.6,0.6-6.9,1
		C226.2,290.7,226.1,290.4,226,290z"/>
	<path fill="#0D4A50" d="M278.1,119.2c0,2.6-0.1,5.3-0.1,7.9c-2.4-1.5-4-4.1-6.9-5c0-1.3-0.1-2.7-0.1-4c0.5-2.7-1-5.6,1-8
		C270.3,115.7,274.8,117.1,278.1,119.2z"/>
	<path fill="#225750" d="M233.1,290c-1.4-1.4-4.7-0.9-4.1-4.2c0.1-3.2,0.1-6.4,0.2-9.7c0.2-0.1,0.5-0.3,0.7-0.4
		c3.3,2.8,6.8-1,10.1,0.2c-0.2,4.3-3.1,8.5-1,13c0,0.3,0,0.6,0.1,0.9C237.1,290,235.1,290,233.1,290z"/>
	<path fill="#0F5C6B" d="M247.1,132.1c0.8,0,1.7-0.1,2.5,0.1c1.8,0.2,4.8-0.9,4.8,1.7c0,1.9-2.9,1.9-4.8,2.2
		c-0.8,0.1-1.6,0.1-2.5,0.1C247.1,134.8,247.1,133.5,247.1,132.1z"/>
	<path fill="#0A635E" d="M259.1,119.4c0.2-0.7,0.6-0.9,1-0.2c-0.4,3.4,0.5,6.6,0.9,9.9c-0.6,0.5-0.2,1.5-0.9,2
		C258.1,127.3,259.6,123.3,259.1,119.4z"/>
	<path fill="#035C58" d="M260.1,131.1c0-0.8,0.2-1.5,0.9-2c0,3.6,0,7.2,0,10.8c-0.3,0-0.6,0-0.9,0
		C260.1,137,260.1,134.1,260.1,131.1z"/>
	<path fill="#2C6582" d="M240.1,228.1c0,0.3-0.1,0.6-0.1,1c-1,1.3-1.6,3.5-4,2c-0.3-0.3-0.7-0.7-1-1c0.3-1.5-0.7-3.5,1.8-3.9
		C238.4,225.9,239.9,226,240.1,228.1z"/>
	<path fill="#E0F0E9" d="M221.6,232.9c1.2,2.2,3.7,4.1,2.1,6.9c-0.3,0.5-3.1,0.5-3.6-0.2C218.3,237.2,220.6,235.2,221.6,232.9z"/>
	<path fill="#DEF0E8" d="M197.1,240c0.1,3.4-0.7,5.8-3.5,5.7c-2.8-0.1-3.4-2.5-3.5-5.1c-0.1-2.7,0.7-5,3.5-5
		C196.4,235.7,197,238.4,197.1,240z"/>
	<path fill="#E0F1E9" d="M165.4,239.1c-0.9-0.4-2.7,0.7-2.5-1.3c0.1-1.4,1-2.5,2.6-2.6c1.7,0,3.1,1.1,3.1,2.6
		C168.6,239.7,166.6,238.8,165.4,239.1z"/>
	<path fill="#235572" d="M236.1,231.1c1.7,0.1,2.6-1.4,4-2c0,1.3,0,2.6,0,4.6c2.5-1.5,4.7-1.8,7-1.6c0,0,0,0,0,0c1,1.7,1.5,3.3,0,5
		c-1.7,0.8-4.4-1.4-5.5,1.8c-1.3,3.8,1.7,5.2,3.8,7.2c0.6,1.5-0.2,2.3-1.3,3c0,0,0,0,0,0c-2,0-3.6-2.9-6.2-0.4
		c-1.1,1.1-1.7-1.3-1.8-2.6C236.1,241.1,236.1,236.1,236.1,231.1z"/>
	<path fill="#233052" d="M244.2,249.1c0.3-1,0.6-2,0.9-3c-0.3-0.4-0.4-0.8-0.3-1.3c1.2-2.1,1.3-4.3,0.9-6.5c0-0.5,0.2-0.9,0.5-1.2
		c1.6-1.4,0.7-3.3,1-4.9c3.7,1.3,2.9,6,5.8,7.9c0.1,1.5,0.2,3-0.7,4.3c-0.5-0.1-0.6-2.2-0.9-0.8
		C250.3,247.6,247.7,248.8,244.2,249.1z"/>
	<path fill="#397984" d="M266.5,242.8c-1.9,1-1.1,3-1.5,4.5c-0.2-0.2-0.4-0.4-0.7-0.5c-0.1-0.6-0.2-1.1-0.3-1.7
		c-1.3-1.4-1.2-3-0.4-4.6c1.3-1.3,1.9-0.3,2.5,0.7C266.2,241.7,266.3,242.2,266.5,242.8z"/>
	<path fill="#DCEFE7" d="M264.3,240.2c-0.1,1.6-0.2,3.2-0.3,4.9c-5.2,0.1-6.2-2.2-4-9c0.3,0,0.6,0,0.9,0
		C262.4,237.2,264.9,237.5,264.3,240.2z"/>
	<path fill="#7FCCC7" d="M264.3,240.2c-1.1-1.4-2.2-2.8-3.3-4.2c3.9-0.5,5.7,1.1,5.1,5.1C265.4,240.8,264.9,240.5,264.3,240.2z"/>
	<path fill="#04475C" d="M246.1,237c0,0.3,0,0.7,0,1c1.1,2.5,0.1,4.8-1,7c0,0.3,0,0.7-0.1,1c-4.7-0.5-5.6-3.6-4.8-7.5
		C240.9,235.2,243.1,234.6,246.1,237z"/>
	<path fill="#062540" d="M245.1,245c0.3-2.3,0.7-4.6,1-7C247.7,240.7,248,243.1,245.1,245z"/>
</g>
</svg>
