<svg width="79" height="73" viewBox="0 0 79 73" fill="none" xmlns="http://www.w3.org/2000/svg">
<path d="M66.6223 54.9729C70.1967 53.4075 73.1237 50.6601 74.9121 47.1919C76.7005 43.7237 77.2413 39.7458 76.4439 35.9261C75.6464 32.1063 73.5592 28.6771 70.5326 26.2141C67.506 23.7512 63.7242 22.4043 59.8221 22.3997H55.5379C54.4602 18.2262 52.4059 14.3685 49.5446 11.1447C46.6832 7.92085 43.0967 5.42321 39.0806 3.8576C35.0644 2.292 30.7337 1.70327 26.4454 2.13994C22.1571 2.57661 18.034 4.02617 14.4158 6.36914C10.7977 8.71212 7.78822 11.8814 5.6354 15.6158C3.48258 19.3502 2.24809 23.5428 2.03368 27.8479C1.81926 32.1531 2.63107 36.4476 4.40217 40.3774C6.17328 44.3072 8.85298 47.7599 12.2204 50.4507" stroke="#008951" stroke-width="4" stroke-linecap="round" stroke-linejoin="round"/>
<path d="M25.8208 49.6008H25.8553" stroke="#008951" stroke-width="4" stroke-linecap="round" stroke-linejoin="round"/>
<path d="M25.8208 63.2012H25.8553" stroke="#008951" stroke-width="4" stroke-linecap="round" stroke-linejoin="round"/>
<path d="M39.4214 56.4011H39.4559" stroke="#008951" stroke-width="4" stroke-linecap="round" stroke-linejoin="round"/>
<path d="M39.4214 70.0015H39.4559" stroke="#008951" stroke-width="4" stroke-linecap="round" stroke-linejoin="round"/>
<path d="M53.022 49.6008H53.0565" stroke="#008951" stroke-width="4" stroke-linecap="round" stroke-linejoin="round"/>
<path d="M53.022 63.2012H53.0565" stroke="#008951" stroke-width="4" stroke-linecap="round" stroke-linejoin="round"/>
</svg>
