<svg width="58" height="58" viewBox="0 0 58 58" fill="none" xmlns="http://www.w3.org/2000/svg">
<path d="M4.94689 35.4477C5.02809 35.7543 5.1692 36.0418 5.36207 36.2935C5.55495 36.5453 5.79577 36.7564 6.07065 36.9146L10.6865 39.5826V44.8968C10.6865 45.5378 10.9411 46.1525 11.3943 46.6057C11.8475 47.0589 12.4622 47.3135 13.1031 47.3135H18.4174L21.0854 51.9294C21.2993 52.2951 21.6048 52.5988 21.9718 52.8107C22.3387 53.0226 22.7545 53.1353 23.1782 53.1377C23.5987 53.1377 24.0168 53.0265 24.389 52.8114L29 50.1459L33.6158 52.8139C34.1707 53.1339 34.8299 53.2207 35.4488 53.0553C36.0676 52.89 36.5956 52.4859 36.917 51.9318L39.5826 47.3159H44.8968C45.5377 47.3159 46.1524 47.0613 46.6056 46.6081C47.0589 46.1549 47.3135 45.5402 47.3135 44.8993V39.585L51.9293 36.917C52.2043 36.7581 52.4452 36.5466 52.6383 36.2946C52.8315 36.0425 52.9731 35.7548 53.055 35.448C53.1369 35.1412 53.1576 34.8213 53.1158 34.5065C53.074 34.1917 52.9705 33.8882 52.8114 33.6134L50.1458 29L52.8138 24.389C53.1345 23.8343 53.2217 23.1749 53.0563 22.5558C52.8909 21.9368 52.4864 21.4087 51.9317 21.0879L47.3159 18.4199V13.1032C47.3159 12.4622 47.0613 11.8476 46.6081 11.3943C46.1549 10.9411 45.5402 10.6865 44.8992 10.6865H39.585L36.9194 6.0731C36.5975 5.51949 36.0705 5.11491 35.4525 4.94694C35.146 4.86384 34.826 4.84242 34.5111 4.8839C34.1963 4.92538 33.8928 5.02895 33.6182 5.18861L29 7.85419L24.3866 5.18619C23.8318 4.86553 23.1724 4.77832 22.5533 4.94373C21.9343 5.10915 21.4063 5.51364 21.0854 6.06827L18.4174 10.6841H13.1031C12.4622 10.6841 11.8475 10.9387 11.3943 11.3919C10.9411 11.8451 10.6865 12.4598 10.6865 13.1008V18.415L6.07065 21.083C5.51617 21.4053 5.11201 21.9342 4.94668 22.5538C4.78135 23.1735 4.86833 23.8334 5.18856 24.389L7.85656 29L5.18856 33.611C4.86953 34.1676 4.7827 34.8275 4.94689 35.4477ZM29 31.4167C20.59 31.4167 19.3333 26.8758 19.3333 24.1667C19.3333 21.0564 21.8201 17.9244 26.5833 17.1221V14.529H31.4166V17.2091C35.6071 18.1999 37.2166 21.6872 37.2166 24.1667H34.8L32.3833 24.2102C32.3495 23.2919 31.8637 21.75 29 21.75C25.8607 21.75 24.1666 22.9946 24.1666 24.1667C24.1666 25.0705 24.1666 26.5834 29 26.5834C37.41 26.5834 38.6666 31.1243 38.6666 33.8334C38.6666 36.9436 36.1799 40.0756 31.4166 40.8779V43.5H26.5833V40.89C20.9307 40.0031 19.3333 36.0494 19.3333 33.8334H24.1666C24.1932 34.1789 24.5509 36.25 29 36.25C32.335 36.25 33.8333 34.8363 33.8333 33.8334C33.8333 33.0479 33.8333 31.4167 29 31.4167Z" fill="white"/>
</svg>
