<svg width="96" height="96" viewBox="0 0 96 96" fill="none" xmlns="http://www.w3.org/2000/svg">
<path d="M14.0633 39.8639C15.1496 39.8669 15.1496 39.8669 16.2578 39.87C17.3968 39.8674 17.3968 39.8674 18.5588 39.8647C21.0809 39.8603 23.6029 39.8632 26.125 39.8666C27.87 39.8659 29.6149 39.8649 31.3599 39.8637C35.0218 39.8622 38.6838 39.8644 42.3457 39.869C47.0504 39.8747 51.7551 39.8714 56.4599 39.8654C60.0645 39.8618 63.6692 39.863 67.2739 39.8656C69.0091 39.8662 70.7443 39.8654 72.4796 39.8631C74.9005 39.8606 77.3213 39.8644 79.7422 39.87C80.4664 39.868 81.1906 39.8659 81.9367 39.8639C86.8857 39.8851 86.8857 39.8851 88 40.9994C88.0981 42.4368 88.128 43.879 88.1294 45.3197C88.1325 46.2374 88.1357 47.155 88.1389 48.1005C88.1359 49.5973 88.1359 49.5973 88.1328 51.1244C88.1338 52.1416 88.1347 53.1589 88.1357 54.2069C88.1364 56.3623 88.1345 58.5178 88.1304 60.6732C88.125 63.9851 88.1303 67.2969 88.1367 70.6088C88.1361 72.6973 88.1348 74.7858 88.1328 76.8744C88.1348 77.8723 88.1369 78.8702 88.1389 79.8983C88.1342 81.2748 88.1342 81.2748 88.1294 82.6791C88.1286 83.491 88.1278 84.303 88.127 85.1395C88 86.9994 88 86.9994 87 87.9994C84.5714 88.0997 82.1713 88.1356 79.7422 88.1288C78.9829 88.1305 78.2236 88.1323 77.4412 88.1341C74.9191 88.1385 72.3971 88.1356 69.875 88.1322C68.13 88.1329 66.3851 88.1338 64.6401 88.1351C60.9782 88.1366 57.3162 88.1344 53.6543 88.1298C48.9496 88.1241 44.2449 88.1273 39.5401 88.1333C35.9355 88.1369 32.3308 88.1358 28.7261 88.1332C26.9909 88.1325 25.2557 88.1334 23.5204 88.1357C21.0995 88.1382 18.6787 88.1344 16.2578 88.1288C15.5336 88.1308 14.8094 88.1328 14.0633 88.1349C9.11426 88.1137 9.11426 88.1137 8 86.9994C7.90186 85.562 7.87202 84.1198 7.87061 82.6791C7.86745 81.7614 7.8643 80.8438 7.86105 79.8983C7.86308 78.9004 7.8651 77.9025 7.86719 76.8744C7.86623 75.8572 7.86527 74.8399 7.86429 73.7919C7.86361 71.6364 7.86546 69.481 7.86963 67.3256C7.87498 64.0137 7.86968 60.7019 7.86328 57.39C7.86394 55.3015 7.86522 53.2129 7.86719 51.1244C7.86516 50.1265 7.86314 49.1286 7.86105 48.1005C7.86421 47.1828 7.86736 46.2652 7.87061 45.3197C7.8714 44.5078 7.8722 43.6958 7.87302 42.8593C8.13929 38.9593 10.7709 39.878 14.0633 39.8639ZM16 51.9994C15.3897 54.6273 15.3897 54.6273 15.4688 57.4994C15.4636 58.5513 15.4584 59.6031 15.4531 60.6869C15.4686 61.78 15.4841 62.8731 15.5 63.9994C15.4845 65.0925 15.4691 66.1856 15.4531 67.3119C15.4583 68.3638 15.4634 69.4156 15.4688 70.4994C15.4733 71.4585 15.4778 72.4175 15.4824 73.4056C16.1591 76.7967 17.3304 77.8411 20 79.9994C22.6244 80.6009 22.6244 80.6009 25.5312 80.517C27.1932 80.5359 27.1932 80.5359 28.8887 80.5552C30.0804 80.5471 31.2721 80.539 32.5 80.5306C34.3417 80.5364 34.3417 80.5364 36.2207 80.5422C38.8164 80.545 41.4122 80.5376 44.0078 80.5209C47.985 80.4995 51.9604 80.5207 55.9375 80.5463C58.4583 80.5436 60.9792 80.5385 63.5 80.5306C64.6917 80.5387 65.8835 80.5468 67.1113 80.5552C68.2193 80.5426 69.3272 80.53 70.4688 80.517C71.4426 80.5138 72.4165 80.5106 73.4199 80.5073C76.7339 79.8549 77.9283 78.6153 80 75.9994C80.6103 73.3714 80.6103 73.3714 80.5312 70.4994C80.5364 69.4475 80.5416 68.3956 80.5469 67.3119C80.5237 65.6722 80.5237 65.6722 80.5 63.9994C80.5155 62.9063 80.5309 61.8131 80.5469 60.6869C80.5391 59.1091 80.5391 59.1091 80.5312 57.4994C80.5267 56.5403 80.5222 55.5813 80.5176 54.5931C79.8409 51.2021 78.6696 50.1576 76 47.9994C73.3756 47.3979 73.3756 47.3979 70.4688 47.4818C68.8068 47.4629 68.8068 47.4629 67.1113 47.4436C65.9196 47.4517 64.7279 47.4598 63.5 47.4681C62.2722 47.4643 61.0443 47.4605 59.7793 47.4565C57.1836 47.4538 54.5878 47.4612 51.9922 47.4779C48.015 47.4993 44.0396 47.4781 40.0625 47.4525C37.5417 47.4552 35.0208 47.4603 32.5 47.4681C31.3083 47.46 30.1165 47.4519 28.8887 47.4436C27.7807 47.4562 26.6728 47.4688 25.5312 47.4818C24.5574 47.485 23.5835 47.4882 22.5801 47.4915C19.2661 48.1439 18.0717 49.3835 16 51.9994Z" fill="black"/>
<path d="M52 8C58.6 8 65.2 8 72 8C72 14.6 72 21.2 72 28C70.02 26.35 68.04 24.7 66 23C62.3193 24.5364 60.0122 26.7815 57.25 29.625C56.0512 30.8509 56.0512 30.8509 54.8281 32.1016C54.2248 32.728 53.6216 33.3545 53 34C49.548 32.5228 47.3504 30.5621 44.75 27.875C44.0436 27.1505 43.3372 26.4261 42.6094 25.6797C42.0783 25.1254 41.5472 24.5711 41 24C38.0319 25.3292 35.9944 26.7786 33.75 29.125C32.8425 30.0738 31.935 31.0225 31 32C28.1156 30.707 26.1278 29.3406 24 27C25.3212 24.0677 26.7464 22.0134 29.0391 19.7656C29.6191 19.192 30.1992 18.6184 30.7969 18.0273C31.4002 17.4408 32.0034 16.8543 32.625 16.25C33.236 15.648 33.847 15.046 34.4766 14.4258C35.9799 12.9459 37.4893 11.4724 39 10C42.452 11.4772 44.6496 13.4379 47.25 16.125C47.9564 16.8495 48.6628 17.5739 49.3906 18.3203C50.1873 19.1518 50.1873 19.1518 51 20C54.3675 18.4805 55.6084 17.479 57 14C55.35 12.02 53.7 10.04 52 8Z" fill="black"/>
<path d="M53 51.9992C56.1258 53.6713 58.3928 55.7848 60 58.9992C60.5151 63.0908 60.9437 67.2351 58.9531 70.9562C56.555 73.8551 54.6035 75.7973 50.8281 76.2726C43.0112 76.5806 43.0112 76.5806 39.4375 73.6242C35.6942 69.593 35.6096 66.9044 35.6406 61.55C36.2196 57.4405 37.9991 55.7857 41 52.9992C44.7247 51.1368 48.945 51.4279 53 51.9992Z" fill="black"/>
<path d="M68 59.875C71 60 71 60 72 61C72.125 64 72.125 64 72 67C71 68 71 68 68 68.125C65 68 65 68 64 67C63.875 64 63.875 64 64 61C65 60 65 60 68 59.875Z" fill="black"/>
<path d="M28 59.875C31 60 31 60 32 61C32.125 64 32.125 64 32 67C31 68 31 68 28 68.125C25 68 25 68 24 67C23.875 64 23.875 64 24 61C25 60 25 60 28 59.875Z" fill="black"/>
</svg>
