<svg width="17" height="17" viewBox="0 0 17 17" fill="none" xmlns="http://www.w3.org/2000/svg">
<path d="M7.60397 0.808334C7.97131 0.0669833 9.02869 0.0669817 9.39603 0.808333L11.2026 4.45429C11.3484 4.74861 11.6295 4.95254 11.9546 4.99987L15.9898 5.58743C16.8109 5.70699 17.1376 6.71687 16.5421 7.29469L13.6287 10.1216C13.3917 10.3515 13.2835 10.6835 13.3395 11.0089L14.0276 15.0052C14.1681 15.8216 13.3119 16.4451 12.578 16.0607L8.96406 14.1674C8.67342 14.0151 8.32658 14.0151 8.03594 14.1674L4.422 16.0607C3.68815 16.4451 2.83188 15.8216 2.97244 15.0052L3.66048 11.0089C3.7165 10.6835 3.6083 10.3515 3.37134 10.1216L0.457888 7.29469C-0.137625 6.71687 0.189059 5.70699 1.01016 5.58743L5.04544 4.99987C5.37048 4.95254 5.65155 4.74861 5.79739 4.45429L7.60397 0.808334Z" fill="#FECD04"/>
</svg>
