<svg width="41" height="40" viewBox="0 0 41 40" fill="none" xmlns="http://www.w3.org/2000/svg">
<path d="M30.0802 3.33301H10.759C9.79815 3.33301 8.8767 3.71469 8.1973 4.39408C7.51791 5.07347 7.13623 5.99493 7.13623 6.95574V34.7457C7.13602 35.1458 7.23522 35.5397 7.42492 35.892C7.61463 36.2443 7.88889 36.544 8.22306 36.764C8.55723 36.9841 8.94085 37.1177 9.33943 37.1528C9.73801 37.1879 10.1391 37.1235 10.5066 36.9652L14.6763 35.1695L19.3629 37.4132C19.6971 37.5715 20.0629 37.6516 20.4326 37.6474C20.8023 37.6432 21.1662 37.5549 21.4967 37.3891L26.4574 34.8761L30.2009 36.7696C30.569 36.955 30.9783 37.0432 31.39 37.0258C31.8018 37.0083 32.2022 36.8858 32.5532 36.6699C32.9042 36.4539 33.1941 36.1518 33.3954 35.7921C33.5966 35.4325 33.7025 35.0274 33.7029 34.6153V6.95574C33.7029 5.99493 33.3212 5.07347 32.6418 4.39408C31.9624 3.71469 31.041 3.33301 30.0802 3.33301ZM31.2877 34.6153L27.5443 32.7218C27.2057 32.5509 26.8318 32.4619 26.4526 32.4619C26.0734 32.4619 25.6995 32.5509 25.361 32.7218L20.399 35.2347L15.7148 32.9923C15.404 32.8432 15.0648 32.7624 14.72 32.7553C14.3753 32.7482 14.0331 32.815 13.7163 32.9512L9.55138 34.7457V6.95574C9.55138 6.63547 9.67861 6.32831 9.90507 6.10185C10.1315 5.87539 10.4387 5.74816 10.759 5.74816H30.0802C30.4004 5.74816 30.7076 5.87539 30.9341 6.10185C31.1605 6.32831 31.2877 6.63547 31.2877 6.95574V34.6177V34.6153Z" fill="#636366"/>
<path d="M26.4579 9.37109H14.3821C14.0619 9.37109 13.7547 9.49832 13.5283 9.72478C13.3018 9.95125 13.1746 10.2584 13.1746 10.5787C13.1746 10.8989 13.3018 11.2061 13.5283 11.4326C13.7547 11.659 14.0619 11.7862 14.3821 11.7862H26.4579C26.7782 11.7862 27.0853 11.659 27.3118 11.4326C27.5382 11.2061 27.6655 10.8989 27.6655 10.5787C27.6655 10.2584 27.5382 9.95125 27.3118 9.72478C27.0853 9.49832 26.7782 9.37109 26.4579 9.37109ZM26.4579 15.409H14.3821C14.0619 15.409 13.7547 15.5362 13.5283 15.7627C13.3018 15.9891 13.1746 16.2963 13.1746 16.6165C13.1746 16.9368 13.3018 17.244 13.5283 17.4704C13.7547 17.6969 14.0619 17.8241 14.3821 17.8241H26.4579C26.7782 17.8241 27.0853 17.6969 27.3118 17.4704C27.5382 17.244 27.6655 16.9368 27.6655 16.6165C27.6655 16.2963 27.5382 15.9891 27.3118 15.7627C27.0853 15.5362 26.7782 15.409 26.4579 15.409ZM21.1748 21.4469H14.3821C14.0619 21.4469 13.7547 21.5741 13.5283 21.8005C13.3018 22.027 13.1746 22.3342 13.1746 22.6544C13.1746 22.9747 13.3018 23.2819 13.5283 23.5083C13.7547 23.7348 14.0619 23.862 14.3821 23.862H21.1748C21.495 23.862 21.8022 23.7348 22.0286 23.5083C22.2551 23.2819 22.3823 22.9747 22.3823 22.6544C22.3823 22.3342 22.2551 22.027 22.0286 21.8005C21.8022 21.5741 21.495 21.4469 21.1748 21.4469Z" fill="#636366"/>
</svg>
