<svg width="428" height="926" viewBox="0 0 428 926" fill="none" xmlns="http://www.w3.org/2000/svg">
<g clip-path="url(#clip0_5411_3939)">
<g filter="url(#filter0_d_5411_3939)">
<rect x="374.187" y="255.028" width="73.184" height="73.184" rx="14.0353" transform="rotate(-15.1618 374.187 255.028)" fill="#B1A9D1"/>
</g>
<path opacity="0.7" d="M19.2996 185C19.2996 185 106.887 156.75 159.3 173C223.131 192.79 217.723 272.407 281.3 293C338.822 311.632 435.3 277 435.3 277" stroke="#F1633E" stroke-width="2"/>
<path d="M142.3 -15C142.3 -15 142.946 33.5456 153.3 55C174.549 99.0328 226.649 84.5308 260.3 120C292.541 153.984 276.287 204.277 318.3 225C355.156 243.18 423.3 218 423.3 218" stroke="white" stroke-opacity="0.74" stroke-width="2"/>
<path d="M-79.4488 201C-79.4488 201 -30.4771 144.976 46.7526 126.521C130.946 106.402 175.872 133.786 253.889 98.6728C309.664 73.5702 329.687 24.7886 336.694 -2.99974" stroke="#78CDD2" stroke-width="2"/>
<g filter="url(#filter1_d_5411_3939)">
<circle cx="-26.2004" cy="135.5" r="109.5" fill="#F7EFE7"/>
</g>
<g filter="url(#filter2_d_5411_3939)">
<circle cx="-28.7004" cy="155" r="22" fill="#FDB830"/>
</g>
<g filter="url(#filter3_d_5411_3939)">
<rect x="308.134" y="33.6553" width="25.3922" height="25.3922" rx="6" transform="rotate(33.9447 308.134 33.6553)" fill="#EF7760"/>
</g>
<path opacity="0.5" d="M211.3 -2C220.966 47.6667 275.1 149.1 414.3 157.5" stroke="#C7BAA7" stroke-width="1.5"/>
<rect x="242.935" y="841.445" width="80.8415" height="80.8415" rx="14" transform="rotate(22.1093 242.935 841.445)" fill="#B1A9D1"/>
<path opacity="0.5" d="M-96.7483 866.938C-96.7483 866.938 -47.7766 810.913 29.4531 792.458C113.646 772.339 158.572 799.723 236.589 764.61C316.509 728.64 323.023 642 323.023 642" stroke="#78CDD2" stroke-width="2"/>
<circle cx="272.978" cy="735.978" r="32" transform="rotate(-7.65708 272.978 735.978)" fill="#45B99D"/>
<g opacity="0.5" filter="url(#filter4_d_5411_3939)">
<path d="M428 728.938C368.667 762.938 248 858.938 240 970.938" stroke="#F59278" stroke-width="2"/>
</g>
<circle cx="49.5" cy="830.438" r="105.5" fill="#F7EFE7"/>
<path d="M327.554 606.845L304 639.717L324.417 641.562L344.834 643.407L327.554 606.845Z" fill="#008951"/>
</g>
<defs>
<filter id="filter0_d_5411_3939" x="343.367" y="205.068" width="151.416" height="151.417" filterUnits="userSpaceOnUse" color-interpolation-filters="sRGB">
<feFlood flood-opacity="0" result="BackgroundImageFix"/>
<feColorMatrix in="SourceAlpha" type="matrix" values="0 0 0 0 0 0 0 0 0 0 0 0 0 0 0 0 0 0 127 0" result="hardAlpha"/>
<feOffset/>
<feGaussianBlur stdDeviation="17.0429"/>
<feColorMatrix type="matrix" values="0 0 0 0 0.94902 0 0 0 0 0.388235 0 0 0 0 0.243137 0 0 0 0.1 0"/>
<feBlend mode="normal" in2="BackgroundImageFix" result="effect1_dropShadow_5411_3939"/>
<feBlend mode="normal" in="SourceGraphic" in2="effect1_dropShadow_5411_3939" result="shape"/>
</filter>
<filter id="filter1_d_5411_3939" x="-169.7" y="-8" width="287" height="287" filterUnits="userSpaceOnUse" color-interpolation-filters="sRGB">
<feFlood flood-opacity="0" result="BackgroundImageFix"/>
<feColorMatrix in="SourceAlpha" type="matrix" values="0 0 0 0 0 0 0 0 0 0 0 0 0 0 0 0 0 0 127 0" result="hardAlpha"/>
<feOffset/>
<feGaussianBlur stdDeviation="17"/>
<feColorMatrix type="matrix" values="0 0 0 0 0.94902 0 0 0 0 0.388235 0 0 0 0 0.243137 0 0 0 0.1 0"/>
<feBlend mode="normal" in2="BackgroundImageFix" result="effect1_dropShadow_5411_3939"/>
<feBlend mode="normal" in="SourceGraphic" in2="effect1_dropShadow_5411_3939" result="shape"/>
</filter>
<filter id="filter2_d_5411_3939" x="-84.7004" y="99" width="112" height="112" filterUnits="userSpaceOnUse" color-interpolation-filters="sRGB">
<feFlood flood-opacity="0" result="BackgroundImageFix"/>
<feColorMatrix in="SourceAlpha" type="matrix" values="0 0 0 0 0 0 0 0 0 0 0 0 0 0 0 0 0 0 127 0" result="hardAlpha"/>
<feOffset/>
<feGaussianBlur stdDeviation="17"/>
<feColorMatrix type="matrix" values="0 0 0 0 0.94902 0 0 0 0 0.388235 0 0 0 0 0.243137 0 0 0 0.1 0"/>
<feBlend mode="normal" in2="BackgroundImageFix" result="effect1_dropShadow_5411_3939"/>
<feBlend mode="normal" in="SourceGraphic" in2="effect1_dropShadow_5411_3939" result="shape"/>
</filter>
<filter id="filter3_d_5411_3939" x="286.282" y="29.9824" width="50.5891" height="50.5889" filterUnits="userSpaceOnUse" color-interpolation-filters="sRGB">
<feFlood flood-opacity="0" result="BackgroundImageFix"/>
<feColorMatrix in="SourceAlpha" type="matrix" values="0 0 0 0 0 0 0 0 0 0 0 0 0 0 0 0 0 0 127 0" result="hardAlpha"/>
<feOffset dy="4"/>
<feGaussianBlur stdDeviation="5"/>
<feColorMatrix type="matrix" values="0 0 0 0 0.968627 0 0 0 0 0.937255 0 0 0 0 0.905882 0 0 0 1 0"/>
<feBlend mode="normal" in2="BackgroundImageFix" result="effect1_dropShadow_5411_3939"/>
<feBlend mode="normal" in="SourceGraphic" in2="effect1_dropShadow_5411_3939" result="shape"/>
</filter>
<filter id="filter4_d_5411_3939" x="205.002" y="694.07" width="257.495" height="310.938" filterUnits="userSpaceOnUse" color-interpolation-filters="sRGB">
<feFlood flood-opacity="0" result="BackgroundImageFix"/>
<feColorMatrix in="SourceAlpha" type="matrix" values="0 0 0 0 0 0 0 0 0 0 0 0 0 0 0 0 0 0 127 0" result="hardAlpha"/>
<feOffset/>
<feGaussianBlur stdDeviation="17"/>
<feColorMatrix type="matrix" values="0 0 0 0 0.94902 0 0 0 0 0.388235 0 0 0 0 0.243137 0 0 0 1 0"/>
<feBlend mode="normal" in2="BackgroundImageFix" result="effect1_dropShadow_5411_3939"/>
<feBlend mode="normal" in="SourceGraphic" in2="effect1_dropShadow_5411_3939" result="shape"/>
</filter>
<clipPath id="clip0_5411_3939">
<rect width="428" height="926" fill="white"/>
</clipPath>
</defs>
</svg>
