<svg width="72" height="72" viewBox="0 0 72 72" fill="none" xmlns="http://www.w3.org/2000/svg">
<path d="M49.0351 6.59246C50.5313 7.42919 51.6477 7.74743 53.37 7.76634C56.0089 7.81023 58.2937 8.96572 60.2248 10.7388C62.0453 12.6605 63.1906 15.1925 63.2248 17.841C63.2819 19.2027 63.7344 20.1671 64.345 21.3707C66.4697 25.5864 67.4131 30.3514 67.4179 35.0456C67.418 35.1698 67.4182 35.294 67.4184 35.4218C67.414 39.9038 66.5311 44.2127 64.827 48.3638C64.7669 48.3638 64.707 48.3638 64.6451 48.3638C64.6077 48.1313 64.5702 47.8987 64.5315 47.6593C64.208 46.2225 63.4331 44.9645 62.283 44.0413C61.7162 43.6953 61.106 43.5027 60.4704 43.3183C60.348 43.2433 60.2257 43.1684 60.0997 43.0911C59.9857 42.5314 59.9857 42.5314 59.9179 42.0002C59.818 41.9982 59.7182 41.9964 59.6153 41.9944C58.5802 41.9749 57.5449 41.954 56.5099 41.9324C56.1231 41.9245 55.7364 41.9169 55.3495 41.9096C54.7949 41.8993 54.2402 41.8876 53.6857 41.8758C53.5115 41.8727 53.3375 41.8698 53.1582 41.8665C52.998 41.8631 52.8379 41.8594 52.6729 41.8556C52.5311 41.8529 52.3895 41.85 52.2435 41.8471C51.9179 41.8184 51.9179 41.8183 51.736 41.6365C51.7202 41.3525 51.7166 41.0678 51.7182 40.7834C51.7189 40.6118 51.7195 40.4402 51.72 40.2633C51.7217 40.0827 51.7231 39.9022 51.7248 39.716C51.7255 39.5347 51.7264 39.3534 51.7271 39.1667C51.7293 38.7173 51.7324 38.2678 51.736 37.8183C52.1511 37.6107 52.3969 37.6085 52.8586 37.5991C53.0151 37.5954 53.1717 37.592 53.3329 37.5882C53.5866 37.5836 53.5866 37.5836 53.8455 37.5789C54.0184 37.5753 54.1915 37.5714 54.3697 37.5674C54.9237 37.5556 55.4775 37.5449 56.0315 37.5342C56.4066 37.5264 56.7815 37.5183 57.1566 37.5103C58.077 37.4909 58.9973 37.4725 59.9179 37.4547C59.935 34.9116 59.9477 32.3684 59.9555 29.8253C59.9593 28.6442 59.9644 27.4631 59.9728 26.282C59.9806 25.1409 59.9849 23.9998 59.9869 22.8585C59.9882 22.4245 59.9908 21.9905 59.9948 21.5567C60.0222 18.4173 60.0044 15.649 57.7233 13.2388C56.0542 11.6569 54.402 11.2456 52.1549 11.2461C51.998 11.2454 51.8411 11.2448 51.6795 11.2441C51.1548 11.2421 50.6302 11.2414 50.1055 11.2407C49.7289 11.2395 49.3522 11.2383 48.9755 11.237C47.7397 11.2332 46.5039 11.2313 45.268 11.2295C44.842 11.2288 44.416 11.228 43.9899 11.2273C41.9884 11.2238 39.9869 11.2212 37.9855 11.2197C35.6775 11.2179 33.3693 11.2132 31.0613 11.2058C29.2757 11.2003 27.49 11.1976 25.7044 11.197C24.6386 11.1966 23.5729 11.195 22.5071 11.1904C21.5042 11.1862 20.5012 11.1854 19.4981 11.1873C19.131 11.1874 18.7639 11.1862 18.3968 11.1837C15.6391 11.166 13.3584 11.4184 11.2424 13.3801C9.36084 15.4149 9.13595 17.7348 9.16724 20.3824C9.16913 20.6605 9.1708 20.9386 9.17233 21.2166C9.17577 21.8153 9.18017 22.414 9.18515 23.0127C9.19271 23.972 9.1954 24.9313 9.19702 25.8907C9.19746 26.1356 9.19746 26.1356 9.19791 26.3854C9.19849 26.7196 9.19907 27.0538 9.19964 27.388C9.20357 29.6174 9.21015 31.8467 9.23107 34.076C9.2492 36.0707 9.25644 38.0651 9.24882 40.0598C9.24824 40.2224 9.24764 40.3851 9.24704 40.5527C9.21747 46.6229 8.44784 52.2958 6.9084 58.1707C6.80764 58.5705 6.80764 58.5705 6.82695 59.0911C7.71862 58.9989 8.34218 58.5576 9.06558 58.0684C9.33286 57.8945 9.60015 57.7209 9.86744 57.5473C10.5198 57.1203 11.1508 56.6734 11.7777 56.2102C14.5939 54.2007 16.7833 53.7944 20.1906 53.8758C20.6531 53.8769 21.1157 53.8767 21.5782 53.8753C22.6582 53.8751 23.7375 53.8867 24.8173 53.9045C26.05 53.9242 27.2824 53.928 28.5151 53.9307C31.0435 53.9365 33.5715 53.9616 36.0997 54.0002C36.1011 53.8802 36.1026 53.7604 36.1042 53.6367C36.1197 52.3922 36.1379 51.1476 36.1573 49.9031C36.1644 49.4382 36.1708 48.9733 36.1764 48.5084C36.1846 47.8413 36.1951 47.1742 36.2062 46.5073C36.2084 46.2983 36.2104 46.0894 36.2126 45.8742C36.2162 45.6813 36.2199 45.4883 36.2235 45.2896C36.2259 45.1193 36.2284 44.9489 36.2309 44.7733C36.2815 44.3638 36.2815 44.3638 36.6451 44.0002C37.0144 43.9531 37.0144 43.9531 37.4633 43.9518C37.6246 43.9514 37.7859 43.9509 37.952 43.9504C38.1208 43.9518 38.2895 43.9533 38.4633 43.9547C38.632 43.9533 38.8008 43.9518 38.9748 43.9504C39.2166 43.9511 39.2166 43.9511 39.4633 43.9518C39.6115 43.9522 39.7595 43.9527 39.9122 43.9531C40.2815 44.0002 40.2815 44.0002 40.6451 44.3638C40.6853 44.852 40.7042 45.3231 40.7077 45.812C40.7102 45.9554 40.713 46.0989 40.7157 46.2467C40.7242 46.7062 40.7304 47.1656 40.736 47.6251C40.7435 48.2291 40.7533 48.8329 40.7644 49.4369C40.7659 49.6458 40.7659 49.6458 40.7673 49.8587C40.7802 50.5462 40.8 50.8689 41.1906 51.4547C41.8422 51.5002 41.8422 51.5002 42.4633 51.4547C42.7546 50.8724 42.6815 50.2369 42.6899 49.5967C42.6959 49.2929 42.7019 48.9893 42.708 48.6854C42.7166 48.2054 42.7248 47.7254 42.7319 47.2454C42.7389 46.7829 42.7484 46.3205 42.758 45.858C42.7597 45.714 42.7611 45.5698 42.7628 45.4213C42.7857 44.4049 42.7857 44.4049 43.1906 44.0002C43.6426 43.9638 44.0739 43.9493 44.5259 43.9518C44.6577 43.9514 44.7895 43.9511 44.9251 43.9507C45.204 43.9505 45.4828 43.9513 45.7615 43.9527C46.1889 43.9547 46.6162 43.9527 47.0435 43.9504C47.3142 43.9507 47.5848 43.9511 47.8553 43.9518C47.9835 43.9511 48.1119 43.9504 48.2439 43.9496C49.1488 43.9584 49.1488 43.9583 49.5542 44.3638C49.5944 44.8673 49.6133 45.354 49.6168 45.858C49.6193 46.006 49.622 46.154 49.6248 46.3064C49.636 46.9407 49.6433 47.5751 49.6509 48.2094C49.6569 48.6718 49.6653 49.1343 49.6735 49.5967C49.6749 49.8129 49.6749 49.8129 49.6764 50.0334C49.6604 50.8291 49.6604 50.8291 50.0997 51.4547C50.6269 51.5104 51.1393 51.5476 51.6679 51.5684C51.8137 51.5753 51.9595 51.5824 52.1097 51.5896C52.4699 51.6067 52.8302 51.6218 53.1906 51.6365C53.1906 51.8165 53.1906 51.9965 53.1906 52.182C52.9108 52.4369 52.9108 52.4369 52.5315 52.716C51.4306 53.6311 50.761 54.9689 50.4633 56.3638C50.4359 56.8922 50.4168 57.4173 50.4059 57.9462C50.402 58.0985 50.3982 58.2507 50.3944 58.4078C50.3824 58.8931 50.3717 59.3783 50.3611 59.8638C50.3531 60.1933 50.3453 60.5229 50.3373 60.8524C50.3179 61.6593 50.2993 62.466 50.2815 63.2729C48.6937 64.0378 47.1184 64.7573 45.4406 65.3069C45.1646 65.3982 45.1646 65.3982 44.8829 65.4913C43.0773 66.0687 41.2475 66.4569 39.3724 66.7274C39.1826 66.7551 39.1826 66.7551 38.9889 66.7834C35.6502 67.2136 32.1159 67.0722 28.8269 66.3638C28.6862 66.3334 28.5455 66.3033 28.4004 66.2722C23.5389 65.1862 19.0529 63.0802 14.9834 60.2354C14.5117 59.9073 14.0334 59.5898 13.5542 59.2729C12.9636 59.6353 12.3732 59.9978 11.7829 60.3607C11.4626 60.5574 11.1422 60.7538 10.8217 60.9502C9.73688 61.6158 8.65695 62.2878 7.58618 62.976C7.39142 63.1004 7.19666 63.2249 6.99598 63.3531C6.62526 63.5905 6.25564 63.8296 5.88731 64.0709C4.23647 65.1242 4.23648 65.1242 3.19059 65.0911C2.79662 64.8665 2.79662 64.8665 2.46331 64.5456C2.14096 63.194 2.64195 61.5904 2.91502 60.2644C2.98645 59.9064 3.05788 59.5482 3.12929 59.1902C3.22924 58.6913 3.3308 58.1929 3.43233 57.6944C3.5578 57.0771 3.68173 56.4594 3.80564 55.8418C3.84199 55.6607 3.84199 55.6607 3.87907 55.476C4.09205 54.4145 4.30362 53.3529 4.51446 52.2911C4.5992 51.8665 4.6848 51.4422 4.77142 51.018C4.88417 50.4647 4.99346 49.9109 5.1018 49.3567C5.13507 49.1978 5.16835 49.0391 5.20262 48.8754C5.42253 47.722 5.27931 46.9531 4.75024 45.8893C4.385 45.1045 4.18084 44.3158 3.97468 43.4774C3.93801 43.336 3.90135 43.1945 3.86357 43.0487C3.27629 40.6678 3.12675 38.3038 3.13319 35.8636C3.13377 35.4122 3.12948 34.9609 3.12489 34.5094C3.11374 31.7376 3.45441 29.0338 4.25877 26.3751C4.30073 26.2269 4.34267 26.0787 4.38589 25.926C4.63322 25.0814 4.93646 24.31 5.31133 23.5136C5.86564 22.2124 5.8408 20.9871 5.82695 19.591C5.85484 16.1075 6.5082 13.4542 8.97467 10.8524C10.7889 9.12557 13.3541 7.7683 15.91 7.81192C18.2111 7.81132 19.7938 7.53679 21.7684 6.36865C29.7231 1.88611 41.1299 2.1652 49.0351 6.59246Z" fill="#CBE7F5"/>
<path d="M62.8837 53.2513C64.0748 53.7198 64.9805 54.4383 65.5693 55.582C66.0893 56.7843 66.0192 58.025 66.008 59.3124C66.0081 59.5778 66.0083 59.8432 66.0088 60.1086C66.0091 60.6615 66.0068 61.2143 66.0027 61.7672C65.9975 62.4759 65.998 63.1843 66.0003 63.893C66.0016 64.4395 66.0002 64.986 65.9979 65.5326C65.9971 65.794 65.997 66.0554 65.9977 66.3168C65.9983 66.681 65.9949 67.0451 65.9913 67.4093C65.9903 67.6163 65.9893 67.8233 65.9883 68.0367C65.9178 68.5468 65.9178 68.5468 65.7146 68.886C65.2035 69.1941 64.781 69.163 64.1871 69.1657C64.0675 69.167 63.9481 69.1682 63.8249 69.1695C63.43 69.1728 63.0351 69.1721 62.6401 69.1711C62.3655 69.1719 62.0908 69.1729 61.8161 69.174C61.2403 69.1756 60.6646 69.1752 60.0889 69.1733C59.3513 69.1713 58.6138 69.1749 57.8763 69.1803C57.309 69.1836 56.7417 69.1835 56.1744 69.1825C55.9025 69.1825 55.6306 69.1836 55.3587 69.1858C54.9782 69.1885 54.598 69.1866 54.2176 69.1835C53.893 69.1834 53.893 69.1834 53.5619 69.1834C53.0087 69.0923 53.0087 69.0923 52.5754 68.792C52.2 68.2467 52.1893 67.9194 52.1874 67.2598C52.1851 67.0364 52.1828 66.813 52.1804 66.5828C52.1817 66.3393 52.1832 66.0957 52.1849 65.8522C52.1844 65.6008 52.1837 65.3494 52.1828 65.0979C52.1817 64.5706 52.1833 64.0434 52.1867 63.5161C52.1908 62.8448 52.1884 62.1738 52.1841 61.5025C52.1814 60.9828 52.1823 60.463 52.1842 59.9433C52.1849 59.5769 52.1827 59.2105 52.1804 58.8442C52.197 57.2073 52.4257 55.811 53.4292 54.4786C54.0054 53.9158 54.4541 53.6028 55.1906 53.2741C55.7801 53.2888 56.1342 53.4725 56.6678 53.7286C58.0417 54.3306 59.403 54.2739 60.8021 53.8039C61.2222 53.6415 61.2222 53.6415 61.6565 53.2968C62.1856 53.0526 62.334 53.098 62.8837 53.2513Z" fill="#008951"/>
<path d="M60.8532 45.3937C61.7624 46.0464 62.4442 46.8833 62.6451 47.9995C62.6613 49.2601 62.3633 50.2426 61.4839 51.1764C60.6079 51.965 59.6808 52.2857 58.5024 52.2495C57.3972 52.0624 56.3971 51.5263 55.7247 50.6245C55.1735 49.6465 55.0608 48.7477 55.1906 47.6359C55.5258 46.5632 56.0895 45.8974 57.0088 45.2723C58.2882 44.6752 59.6264 44.7007 60.8532 45.3937Z" fill="#008951"/>
<path d="M44.1372 37.5859C44.2655 37.5867 44.3937 37.5874 44.5258 37.5882C44.6576 37.5878 44.7894 37.5875 44.9252 37.5871C45.204 37.5869 45.4827 37.5875 45.7615 37.5891C46.1889 37.591 46.6162 37.5891 47.0436 37.5867C47.3142 37.587 47.5847 37.5875 47.8553 37.5882C47.9836 37.5874 48.1118 37.5867 48.2439 37.5859C49.1488 37.5947 49.1488 37.5947 49.5542 38.0001C49.6013 38.3527 49.6013 38.3527 49.6025 38.7785C49.6032 39.0081 49.6032 39.0081 49.6039 39.2423C49.6025 39.4024 49.6011 39.5624 49.5997 39.7274C49.6018 39.9675 49.6018 39.9675 49.6039 40.2125C49.6035 40.3655 49.603 40.5186 49.6025 40.6762C49.6021 40.8167 49.6017 40.9572 49.6013 41.102C49.5542 41.4546 49.5542 41.4546 49.1906 41.8183C48.7386 41.8546 48.3074 41.8692 47.8553 41.8666C47.7235 41.8669 47.5917 41.8673 47.4559 41.8676C47.1772 41.8679 46.8984 41.8672 46.6196 41.8657C46.1922 41.8637 45.765 41.8657 45.3376 41.868C45.067 41.8678 44.7964 41.8673 44.5258 41.8666C44.3976 41.8673 44.2694 41.868 44.1372 41.8688C43.2324 41.8601 43.2324 41.8601 42.8269 41.4546C42.7799 41.102 42.7799 41.102 42.7786 40.6762C42.7782 40.5232 42.7777 40.3701 42.7772 40.2125C42.7793 39.9723 42.7793 39.9723 42.7815 39.7274C42.7801 39.5673 42.7787 39.4072 42.7772 39.2423C42.7777 39.0892 42.7782 38.9362 42.7786 38.7785C42.7791 38.638 42.7795 38.4975 42.7799 38.3527C42.8887 37.5375 43.4446 37.5926 44.1372 37.5859Z" fill="#008951"/>
<path d="M37.4633 37.5893C37.6246 37.5888 37.7858 37.5884 37.952 37.5879C38.2051 37.59 38.2051 37.59 38.4633 37.5922C38.6321 37.5907 38.8008 37.5893 38.9747 37.5879C39.2166 37.5886 39.2166 37.5886 39.4633 37.5893C39.6115 37.5897 39.7596 37.5901 39.9122 37.5906C40.2815 37.6376 40.2815 37.6376 40.6452 38.0012C40.6893 38.3734 40.6893 38.3734 40.6871 38.8258C40.6867 38.9879 40.6864 39.15 40.686 39.3169C40.6827 39.5713 40.6827 39.5713 40.6792 39.8308C40.6791 40.0011 40.679 40.1713 40.6789 40.3468C40.6707 41.6121 40.6706 41.6121 40.4633 41.8194C39.832 41.8651 39.1984 41.8531 38.5656 41.8535C38.3874 41.8557 38.2091 41.858 38.0255 41.8603C37.8552 41.8606 37.6849 41.861 37.5095 41.8613C37.3526 41.8621 37.1957 41.8628 37.0341 41.8636C36.6452 41.8194 36.6452 41.8194 36.2815 41.4558C36.2345 41.1032 36.2345 41.1032 36.2332 40.6774C36.2328 40.5243 36.2323 40.3713 36.2318 40.2136C36.2339 39.9735 36.2339 39.9735 36.2361 39.7285C36.2347 39.5684 36.2333 39.4084 36.2318 39.2434C36.2323 39.0904 36.2327 38.9373 36.2332 38.7797C36.2336 38.6391 36.2341 38.4986 36.2345 38.3539C36.3362 37.5917 36.8103 37.5911 37.4633 37.5893Z" fill="#008951"/>
<path d="M20.4065 14.5911C20.8269 14.7274 20.8269 14.7274 21.0087 14.9092C21.0815 15.5606 21.0824 15.8918 20.7089 16.4411C20.5711 16.5801 20.4334 16.7191 20.2914 16.8624C20.1405 17.0147 19.9895 17.1671 19.834 17.324C19.6742 17.4797 19.5143 17.6353 19.3496 17.7956C19.194 17.9554 19.0384 18.1153 18.8781 18.28C18.7257 18.4309 18.5734 18.5819 18.4164 18.7374C18.2079 18.9441 18.2079 18.9441 17.9951 19.1549C17.4408 19.5318 17.1212 19.5362 16.4633 19.4547C15.7252 18.9501 15.017 18.2756 14.6692 17.4391C14.611 17.1024 14.611 17.1024 14.6451 16.5456C15.0087 16.182 15.0087 16.182 15.4292 16.0911C16.1776 16.2303 16.3862 16.6685 16.8269 17.2729C17.519 16.9945 17.8913 16.5725 18.3724 16.0115C19.6543 14.5211 19.6543 14.5211 20.4065 14.5911Z" fill="#008951"/>
<path d="M52.7716 43.9648C53.0401 43.9673 53.3086 43.9716 53.577 43.9776C53.7141 43.9793 53.8512 43.9809 53.9925 43.9826C54.3313 43.9869 54.6701 43.9934 55.0088 44.0004C54.8037 44.4341 54.6249 44.7507 54.3043 45.114C53.3293 46.4332 53.0701 47.843 53.0088 49.4549C52.5888 49.4549 52.1688 49.4549 51.7361 49.4549C51.7271 48.7365 51.7205 48.0182 51.7161 47.2998C51.7134 46.9351 51.7088 46.5703 51.7041 46.2056C51.7024 45.8628 51.7024 45.8628 51.7006 45.5131C51.6987 45.3018 51.6968 45.0904 51.6948 44.8726C51.7608 44.0602 51.9747 44.007 52.7716 43.9648Z" fill="#008951"/>
<path d="M46.0997 16.0015C46.5906 16.3288 46.9255 16.5622 47.1906 17.0924C47.2884 17.8258 47.2571 18.0954 46.8042 18.6947C46.2216 19.138 45.9198 19.2742 45.1906 19.2742C44.676 19.0521 44.377 18.8504 44.0315 18.4106C43.8582 17.7866 43.933 17.3509 44.0997 16.7288C44.7138 16.0445 45.1901 15.8499 46.0997 16.0015Z" fill="#008951"/>
<path d="M53.1906 16.0004C53.7773 16.4436 54.0485 16.7559 54.2815 17.4549C54.2815 18.1185 54.1499 18.3957 53.7361 18.9094C53.2568 19.286 52.9918 19.2731 52.3724 19.2731C51.736 19.0913 51.736 19.0913 51.2815 18.614C50.9477 17.8629 50.9447 17.5088 51.1906 16.7276C51.8006 16.0479 52.2856 15.8307 53.1906 16.0004Z" fill="#008951"/>
<path d="M39.1906 15.9991C39.7243 16.4142 40.0299 16.7336 40.2815 17.3627C40.2815 17.9777 40.1153 18.2461 39.7361 18.7264C39.2125 19.1509 38.9474 19.2718 38.2702 19.2718C37.588 19.0396 37.3677 18.8021 37.0088 18.1809C36.8888 17.4606 36.9424 17.1897 37.3497 16.5787C37.9469 15.9639 38.3414 15.8992 39.1906 15.9991Z" fill="#008951"/>
<path d="M32.0997 15.9991C32.6215 16.3621 32.9456 16.6304 33.0905 17.2669C33.1237 17.8788 33.0556 18.2897 32.7247 18.8059C32.1296 19.1874 31.7154 19.2718 31.0088 19.2718C30.4994 18.9507 30.1879 18.7208 29.9179 18.1809C29.8397 17.4769 29.8603 17.1764 30.2588 16.5787C30.8561 15.9639 31.2506 15.8992 32.0997 15.9991Z" fill="#008951"/>
<path d="M25.1906 16.1817C25.5651 16.4688 25.708 16.6711 25.9179 17.0908C25.9921 17.7588 25.9631 18.1004 25.6338 18.6931C25.0506 19.2164 24.697 19.2863 23.9179 19.2726C23.4085 18.9515 23.0969 18.7216 22.827 18.1817C22.781 17.4763 22.7716 16.9501 23.1906 16.3635C23.8385 15.8596 24.4256 16.0009 25.1906 16.1817Z" fill="#008951"/>
<path d="M26.4777 24.0718C26.043 23.2507 25.077 23.2024 25.077 23.2024C24.1594 23.2507 23.6764 24.0718 23.6764 24.0718L20.5853 30.4472L13.6303 31.5097C12.7127 31.6546 12.4229 32.524 12.4229 32.524C12.1331 33.4417 12.8093 34.1179 12.8093 34.1179L17.8323 39.0926L16.6248 46.1441C16.5282 47.0618 17.2527 47.6414 17.2527 47.6414C18.0255 48.1727 18.8949 47.738 18.8949 47.738L25.077 44.4537L31.3075 47.738C32.1286 48.1727 32.9014 47.6414 32.9014 47.6414C33.6741 47.0618 33.5293 46.1441 33.5293 46.1441L32.3701 39.0926L37.3931 34.1179C38.021 33.4417 37.7795 32.524 37.7795 32.524C37.4414 31.6546 36.5237 31.5097 36.5237 31.5097L29.5688 30.4472L26.4777 24.0718Z" fill="#FF9525"/>
</svg>
