<svg width="41" height="40" viewBox="0 0 41 40" fill="none" xmlns="http://www.w3.org/2000/svg">
<path d="M20.1362 18.3333C21.0529 18.3333 21.8376 18.0069 22.4904 17.3542C23.1432 16.7014 23.4696 15.9167 23.4696 15C23.4696 14.0833 23.1432 13.2986 22.4904 12.6458C21.8376 11.9931 21.0529 11.6667 20.1362 11.6667C19.2196 11.6667 18.4348 11.9931 17.7821 12.6458C17.1293 13.2986 16.8029 14.0833 16.8029 15C16.8029 15.9167 17.1293 16.7014 17.7821 17.3542C18.4348 18.0069 19.2196 18.3333 20.1362 18.3333ZM11.8029 18V11.6667H8.46956V13.3333C8.46956 14.3889 8.77512 15.3403 9.38623 16.1875C9.99734 17.0347 10.8029 17.6389 11.8029 18ZM28.4696 18C29.4696 17.6389 30.2751 17.0347 30.8862 16.1875C31.4973 15.3403 31.8029 14.3889 31.8029 13.3333V11.6667H28.4696V18ZM18.4696 31.6667V26.5C17.1085 26.1944 15.8932 25.6181 14.8237 24.7708C13.7543 23.9236 12.9696 22.8611 12.4696 21.5833C10.3862 21.3333 8.64318 20.4236 7.2404 18.8542C5.83762 17.2847 5.13623 15.4444 5.13623 13.3333V11.6667C5.13623 10.75 5.46262 9.96528 6.1154 9.3125C6.76818 8.65972 7.5529 8.33333 8.46956 8.33333H11.8029C11.8029 7.41667 12.1293 6.63194 12.7821 5.97917C13.4348 5.32639 14.2196 5 15.1362 5H25.1362C26.0529 5 26.8376 5.32639 27.4904 5.97917C28.1432 6.63194 28.4696 7.41667 28.4696 8.33333H31.8029C32.7196 8.33333 33.5043 8.65972 34.1571 9.3125C34.8098 9.96528 35.1362 10.75 35.1362 11.6667V13.3333C35.1362 15.4444 34.4348 17.2847 33.0321 18.8542C31.6293 20.4236 29.8862 21.3333 27.8029 21.5833C27.3029 22.8611 26.5182 23.9236 25.4487 24.7708C24.3793 25.6181 23.164 26.1944 21.8029 26.5V31.6667H26.8029C27.2751 31.6667 27.671 31.8264 27.9904 32.1458C28.3098 32.4653 28.4696 32.8611 28.4696 33.3333C28.4696 33.8056 28.3098 34.2014 27.9904 34.5208C27.671 34.8403 27.2751 35 26.8029 35H13.4696C12.9973 35 12.6015 34.8403 12.2821 34.5208C11.9626 34.2014 11.8029 33.8056 11.8029 33.3333C11.8029 32.8611 11.9626 32.4653 12.2821 32.1458C12.6015 31.8264 12.9973 31.6667 13.4696 31.6667H18.4696Z" fill="#636366"/>
</svg>
