<svg width="64" height="56" viewBox="0 0 64 56" fill="none" xmlns="http://www.w3.org/2000/svg">
<path d="M27.9483 7.41211H15.0519C12.8272 7.41211 11.0217 9.5084 11.0217 12.0913V43.9101C11.0217 46.493 12.8272 48.5893 15.0519 48.5893H27.9483C30.173 48.5893 31.9785 46.493 31.9785 43.9101V12.0913C31.9785 9.5084 30.173 7.41211 27.9483 7.41211ZM21.5001 46.7176C20.1621 46.7176 18.7828 45.4636 18.7828 43.9101C18.7828 42.3566 20.1621 41.1026 21.5001 41.1026C22.8381 41.1026 24.2822 42.3566 24.2822 43.9101C24.2822 45.4636 22.8381 46.7176 21.5001 46.7176ZM29.5952 39.8649H13.4398V11.5056H29.5952V39.8649Z" fill="#777777"/>
<path d="M36.9786 41.3327C44.3424 41.3327 50.3119 35.3631 50.3119 27.9993C50.3119 20.6356 44.3424 14.666 36.9786 14.666C29.6148 14.666 23.6453 20.6356 23.6453 27.9993C23.6453 35.3631 29.6148 41.3327 36.9786 41.3327Z" fill="white" fill-opacity="0.18" stroke="#008951" stroke-width="2" stroke-linecap="round" stroke-linejoin="round"/>
<path d="M36.9785 20V28L42.3118 30.6667" stroke="#008951" stroke-width="2" stroke-linecap="round" stroke-linejoin="round"/>
</svg>
