<svg width="96" height="96" viewBox="0 0 96 96" fill="none" xmlns="http://www.w3.org/2000/svg">
<g clip-path="url(#clip0_206_6919)">
<path d="M52.08 79.7202V87.8002C60.12 87.0002 67.44 83.8002 73.36 78.9602L67.68 73.2402C63.24 76.6802 57.92 79.0002 52.08 79.7202Z" fill="#636366"/>
<path d="M16.12 48.0002C16.12 31.8002 28.24 18.3602 43.92 16.2802V8.2002C23.8 10.3202 8.12 27.3602 8.12 48.0002C8.12 68.6402 23.8 85.6802 43.92 87.8002V79.7202C28.24 77.6402 16.12 64.2002 16.12 48.0002Z" fill="#636366"/>
<path d="M79.7999 43.9997H87.8799C87.0799 35.9597 83.8799 28.6397 79.0399 22.7197L73.3199 28.4397C76.7599 32.8397 79.0799 38.1597 79.7999 43.9997Z" fill="#636366"/>
<path d="M73.36 17.0402C67.44 12.2002 60.08 9.0002 52.08 8.2002V16.2802C57.92 17.0002 63.24 19.3202 67.68 22.7602L73.36 17.0402Z" fill="#636366"/>
<path d="M73.3199 67.6L79.0399 73.28C83.8799 67.36 87.0799 60.04 87.8799 52H79.7999C79.0799 57.84 76.7599 63.16 73.3199 67.6Z" fill="#636366"/>
<path d="M64 44.4C64 34.44 56.4 28 48 28C39.6 28 32 34.44 32 44.4C32 51.04 37.32 58.92 48 68C58.68 58.92 64 51.04 64 44.4ZM48 48C45.64 48 43.72 46.08 43.72 43.72C43.72 41.36 45.64 39.44 48 39.44C50.36 39.44 52.28 41.36 52.28 43.72C52.28 46.08 50.36 48 48 48Z" fill="#636366"/>
</g>
<defs>
<clipPath id="clip0_206_6919">
<rect width="96" height="96" fill="white"/>
</clipPath>
</defs>
</svg>
