<svg width="21" height="19" viewBox="0 0 21 19" fill="none" xmlns="http://www.w3.org/2000/svg">
<path d="M9.70781 0.918202C10.0777 0.1863 11.1229 0.1863 11.4928 0.918202L13.7024 5.29004C13.8497 5.58158 14.1302 5.78277 14.4535 5.82893L19.3567 6.52887C20.184 6.64696 20.5101 7.66743 19.9046 8.24338L16.3887 11.5879C16.1461 11.8187 16.0351 12.1556 16.093 12.4854L16.9267 17.2325C17.0696 18.0463 16.2199 18.6725 15.4849 18.295L11.0572 16.0209C10.7704 15.8736 10.4302 15.8736 10.1434 16.0209L5.71572 18.295C4.98073 18.6725 4.131 18.0463 4.27392 17.2325L5.10757 12.4854C5.16549 12.1556 5.05448 11.8187 4.81187 11.5879L1.29598 8.24338C0.69052 7.66743 1.01663 6.64696 1.84389 6.52887L6.74706 5.82893C7.07043 5.78277 7.35088 5.58158 7.49822 5.29004L9.70781 0.918202Z" fill="#AAA6A6"/>
</svg>
