<svg width="18" height="17" viewBox="0 0 18 17" fill="none" xmlns="http://www.w3.org/2000/svg">
<path d="M8.22001 0.783446C8.58886 0.0476011 9.6391 0.0476022 10.008 0.783447L11.8305 4.41933C11.9772 4.71203 12.2579 4.91437 12.582 4.96101L16.6336 5.54418C17.4583 5.66288 17.7847 6.67894 17.1834 7.25568L14.2729 10.0471C14.0327 10.2776 13.9229 10.6125 13.98 10.9404L14.6693 14.8982C14.8112 15.7131 13.9588 16.3382 13.2243 15.9578L9.57384 14.0674C9.28545 13.918 8.94251 13.918 8.65412 14.0674L5.00369 15.9578C4.26917 16.3382 3.41673 15.7131 3.55866 14.8982L4.24799 10.9404C4.30511 10.6125 4.19528 10.2776 3.95503 10.0471L1.04461 7.25568C0.443293 6.67893 0.769655 5.66288 1.59435 5.54418L5.64596 4.96101C5.97004 4.91437 6.25075 4.71203 6.39747 4.41933L8.22001 0.783446Z" fill="#FF9525"/>
</svg>
