<svg width="40" height="32" viewBox="0 0 40 32" fill="none" xmlns="http://www.w3.org/2000/svg">
<circle cx="32" cy="24" r="8" fill="#008951"/>
<circle cx="8" cy="24" r="8" fill="#008951"/>
<circle cx="26" cy="3" r="3" fill="#008951"/>
<path d="M12.8365 14.1041L20.6731 4.88464C20.8531 4.67281 21.1714 4.64854 21.3815 4.83062L28.0942 10.6483C28.3135 10.8384 28.6374 10.9732 28.8815 10.8163C29.3008 10.5468 30.0933 10.0048 31.5 9C34.1192 7.12914 34.6092 8.61257 34.5251 9.76689C34.5143 9.91509 34.4268 10.045 34.3002 10.1229L28.3165 13.8052C28.1286 13.9209 27.8871 13.8997 27.7223 13.7531L23.8714 10.3301C23.6659 10.1475 23.3515 10.165 23.1676 10.3694L19.3366 14.6261C19.151 14.8322 19.1687 15.15 19.376 15.3342L23.3322 18.8508C23.4389 18.9457 23.4915 19.0814 23.4515 19.2185C23.3053 19.7191 22.7968 21.0822 21.5 24C19.5 28.5 20.5 27 22 29C22.708 29.9441 21.0394 31.1852 20.1494 31.0406C20.0495 31.0244 19.9712 30.9548 19.908 30.8759C19.4644 30.3219 18.2399 29.2399 17.5 28.5C16.7 27.7 17.1667 26.1667 17.5 25.5L19.3763 20.3403C19.4501 20.1373 19.3852 19.9098 19.2153 19.7763L12.9086 14.821C12.6855 14.6458 12.6528 14.3202 12.8365 14.1041Z" fill="#008951"/>
</svg>
