<svg width="26" height="16" viewBox="0 0 26 16" fill="none" xmlns="http://www.w3.org/2000/svg">
<path d="M23.5882 0.5H2.41176C1.63207 0.5 1 1.21634 1 2.1V13.3C1 14.1837 1.63207 14.9 2.41176 14.9H23.5882C24.3679 14.9 25 14.1837 25 13.3V2.1C25 1.21634 24.3679 0.5 23.5882 0.5Z" fill="white" stroke="black"/>
<path d="M13 12.4999C15.6509 12.4999 17.8 10.3509 17.8 7.6999C17.8 5.04894 15.6509 2.8999 13 2.8999C10.349 2.8999 8.19995 5.04894 8.19995 7.6999C8.19995 10.3509 10.349 12.4999 13 12.4999Z" fill="white" stroke="black"/>
<path d="M13.3782 11.8598V10.8121C14.4867 10.6291 15.0809 9.8662 15.0809 9.00172C15.0809 8.09644 14.5771 7.54732 13.4488 7.12012C12.5927 6.77419 12.2299 6.54028 12.2299 6.12332C12.2299 5.7774 12.4818 5.41131 13.1868 5.41131C13.5883 5.41131 13.9895 5.50028 14.3909 5.67836C14.4117 5.68762 14.4343 5.69231 14.4572 5.69211C14.48 5.69191 14.5025 5.68683 14.5232 5.6772C14.5439 5.66758 14.5624 5.65364 14.5772 5.63631C14.5921 5.61899 14.6031 5.59868 14.6095 5.57675L14.7887 4.96044C14.7999 4.92196 14.7962 4.88069 14.7784 4.84479C14.7607 4.80888 14.73 4.78095 14.6927 4.76652C14.2414 4.59163 13.8234 4.49803 13.4387 4.48571V3.53979H12.6127V4.53659C11.5953 4.71963 10.9908 5.39099 10.9908 6.26571C10.9908 7.21164 11.6757 7.6998 12.7335 8.08636C13.4792 8.36092 13.8317 8.65595 13.8317 9.11355C13.8317 9.60188 13.3986 9.91708 12.7639 9.91708C12.3906 9.91708 11.9227 9.79324 11.3599 9.54572C11.3389 9.53649 11.3163 9.53186 11.2934 9.53214C11.2705 9.53241 11.248 9.53758 11.2273 9.5473C11.2066 9.55702 11.1882 9.57106 11.1734 9.58848C11.1586 9.6059 11.1477 9.62629 11.1414 9.64828L10.959 10.2892C10.9482 10.3271 10.9518 10.3675 10.9689 10.4029C10.9861 10.4383 11.0157 10.4661 11.0521 10.4811C11.6575 10.7299 12.1574 10.8606 12.5524 10.8731V11.8598H13.3782Z" fill="black"/>
</svg>
