<?xml version="1.0" encoding="utf-8"?>
<!-- Generator: Adobe Illustrator 27.0.0, SVG Export Plug-In . SVG Version: 6.00 Build 0)  -->
<svg version="1.1" id="Layer_1" xmlns="http://www.w3.org/2000/svg" xmlns:xlink="http://www.w3.org/1999/xlink" x="0px" y="0px"
	 viewBox="0 0 179.8 173.8" style="enable-background:new 0 0 179.8 173.8;" xml:space="preserve">
<style type="text/css">
	.st0{fill:#149359;}
	.st1{fill:#5CA904;}
	.st2{enable-background:new    ;}
	.st3{fill:#FFFFFF;}
	.st4{fill:#EAFF00;}
</style>
<g>
	<path class="st0" d="M147.9,87.8V163c0,2.1-1.7,3.7-3.7,3.7H35.7c-2.1,0-3.7-1.7-3.7-3.7V87.8l51.8-40.9c3.5-3,8.7-3,12.3,0
		L147.9,87.8z"/>
	<path class="st1" d="M165.9,90.4L89.8,30l-23,18.3V41c0-1.6-1.3-2.9-2.9-2.9h-4.7c-1.6,0-2.9,1.3-2.9,2.9v15.7L13.8,90.4
		c-2.4,1.9-2.4,4.9,0,6.7c1.2,0.9,2.7,1.4,4.2,1.4c1.5,0,3.1-0.5,4.2-1.4L83,48.8c3.8-3,9.8-3,13.6,0l60.8,48.3
		c2.4,1.8,6.1,1.8,8.5,0c1.2-0.9,1.8-2.1,1.8-3.4C167.6,92.6,167.1,91.4,165.9,90.4z"/>
	<g class="st2">
		<path class="st3" d="M41.8,137.7v-12.9h2.6v5.1h5.1v-5.1H52v12.9h-2.6v-5.6h-5.1v5.6H41.8z"/>
		<path class="st3" d="M60,134.8l2.5,0.4c-0.3,0.9-0.8,1.6-1.5,2.1s-1.5,0.7-2.6,0.7c-1.6,0-2.8-0.5-3.6-1.6
			c-0.6-0.8-0.9-1.9-0.9-3.2c0-1.5,0.4-2.8,1.2-3.6c0.8-0.9,1.8-1.3,3.1-1.3c1.4,0,2.5,0.5,3.3,1.4s1.2,2.3,1.1,4.2h-6.2
			c0,0.7,0.2,1.3,0.6,1.7c0.4,0.4,0.9,0.6,1.4,0.6c0.4,0,0.7-0.1,1-0.3C59.8,135.6,60,135.2,60,134.8z M60.2,132.3
			c0-0.7-0.2-1.3-0.6-1.6s-0.8-0.6-1.3-0.6s-1,0.2-1.3,0.6s-0.5,0.9-0.5,1.6H60.2z"/>
		<path class="st3" d="M64.6,137.7v-12.9h2.5v12.9H64.6z"/>
		<path class="st3" d="M69.5,128.4h2.3v1.4c0.3-0.5,0.7-0.8,1.2-1.1s1.1-0.4,1.7-0.4c1.1,0,2,0.4,2.8,1.3c0.8,0.8,1.1,2,1.1,3.5
			c0,1.6-0.4,2.8-1.1,3.6c-0.8,0.9-1.7,1.3-2.8,1.3c-0.5,0-1-0.1-1.4-0.3s-0.9-0.6-1.3-1.1v4.7h-2.5
			C69.5,141.3,69.5,128.4,69.5,128.4z M72,132.9c0,1,0.2,1.8,0.6,2.3s0.9,0.8,1.5,0.8s1-0.2,1.4-0.7s0.6-1.2,0.6-2.3
			c0-1-0.2-1.7-0.6-2.2s-0.9-0.7-1.5-0.7s-1.1,0.2-1.5,0.7S72,132,72,132.9z"/>
		<path class="st3" d="M96.5,137.7h-2.8l-1.1-2.9h-5.2l-1.1,2.9h-2.8l5-12.9h2.9L96.5,137.7z M91.8,132.6l-1.8-4.8l-1.7,4.8H91.8z"
			/>
		<path class="st3" d="M97.8,137.7v-12.9h2.5v4.6c0.8-0.9,1.7-1.3,2.7-1.3c1.1,0,2.1,0.4,2.8,1.2c0.7,0.8,1.1,2,1.1,3.5
			c0,1.6-0.4,2.8-1.1,3.7c-0.8,0.9-1.7,1.3-2.8,1.3c-0.5,0-1.1-0.1-1.6-0.4c-0.5-0.3-1-0.7-1.3-1.2v1.4h-2.3V137.7z M100.2,132.9
			c0,1,0.2,1.7,0.5,2.1c0.4,0.7,1,1,1.7,1c0.5,0,1-0.2,1.4-0.7s0.6-1.2,0.6-2.2c0-1.1-0.2-1.8-0.6-2.3s-0.9-0.7-1.5-0.7
			s-1.1,0.2-1.5,0.7C100.4,131.2,100.2,131.9,100.2,132.9z"/>
		<path class="st3" d="M108.3,132.9c0-0.8,0.2-1.6,0.6-2.4c0.4-0.8,1-1.3,1.7-1.8c0.7-0.4,1.6-0.6,2.5-0.6c1.4,0,2.6,0.5,3.5,1.4
			s1.3,2.1,1.3,3.5s-0.5,2.6-1.4,3.5s-2.1,1.4-3.4,1.4c-0.9,0-1.7-0.2-2.4-0.6c-0.8-0.4-1.4-1-1.8-1.7
			C108.5,134.9,108.3,134,108.3,132.9z M110.8,133.1c0,0.9,0.2,1.6,0.7,2.1s1,0.7,1.6,0.7s1.2-0.2,1.6-0.7s0.7-1.2,0.7-2.1
			c0-0.9-0.2-1.6-0.7-2.1c-0.4-0.5-1-0.7-1.6-0.7s-1.2,0.2-1.6,0.7C111,131.4,110.8,132.2,110.8,133.1z"/>
		<path class="st3" d="M128.4,137.7H126v-1.4c-0.4,0.5-0.8,0.9-1.3,1.2s-1,0.4-1.6,0.4c-1.1,0-2-0.4-2.7-1.3
			c-0.8-0.9-1.1-2.1-1.1-3.6c0-1.6,0.4-2.8,1.1-3.6s1.7-1.2,2.8-1.2c1,0,1.9,0.4,2.7,1.3v-4.6h2.5L128.4,137.7L128.4,137.7z
			 M121.8,132.9c0,1,0.1,1.7,0.4,2.2c0.4,0.6,1,1,1.7,1c0.6,0,1-0.2,1.4-0.7s0.6-1.2,0.6-2.2c0-1.1-0.2-1.8-0.6-2.3
			s-0.9-0.7-1.5-0.7s-1.1,0.2-1.5,0.7C122,131.3,121.8,132,121.8,132.9z"/>
		<path class="st3" d="M136.2,134.8l2.5,0.4c-0.3,0.9-0.8,1.6-1.5,2.1s-1.5,0.7-2.6,0.7c-1.6,0-2.8-0.5-3.6-1.6
			c-0.6-0.8-0.9-1.9-0.9-3.2c0-1.5,0.4-2.8,1.2-3.6c0.8-0.9,1.8-1.3,3.1-1.3c1.4,0,2.5,0.5,3.3,1.4s1.2,2.3,1.1,4.2h-6.2
			c0,0.7,0.2,1.3,0.6,1.7s0.9,0.6,1.4,0.6c0.4,0,0.7-0.1,1-0.3C135.8,135.6,136.1,135.2,136.2,134.8z M136.3,132.3
			c0-0.7-0.2-1.3-0.6-1.6c-0.4-0.4-0.8-0.6-1.3-0.6s-1,0.2-1.3,0.6s-0.5,0.9-0.5,1.6H136.3z"/>
	</g>
	<g>
		<g>
			<path class="st1" d="M76.5,18.3c-0.1-0.7-0.1-1.4-0.4-2c-0.6,1.9-1.9,3.5-3.4,4.7c-2.3,1.8-5.1,2.7-7.4,4.5
				c-2.1,1.7-3.5,4.1-4,6.7c-0.1,0.7-0.2,1.3-0.2,2c0,0.4-0.1,1.6,0.2,1.8c0.1,0.1,0.8,0.1,1.1,0.1c0.4,0,0.8,0,1.2,0
				c0.8,0,1.5-0.1,2.3-0.2c1.2-0.2,2.2-0.5,3.2-1.1c2.1-1.2,3.9-3,5.1-5.1s1.8-4.5,2.2-7C76.6,21.3,76.6,19.8,76.5,18.3z M74,25.9
				L74,25.9L74,25.9C74,26,73.9,26,74,25.9z"/>
			<path class="st1" d="M55.5,7.9c-0.5-0.3-1.2-0.6-1.8-0.8c1.1,1.5,1.6,3.4,1.6,5.3c0,2.7-0.9,5.4-0.8,8.2c0.1,2.5,1.2,5.1,2.8,6.9
				c0.5,0.5,0.9,0.9,1.4,1.3c0.3,0.2,1.2,1,1.5,0.9c0.2-0.1,0.5-0.6,0.7-0.8c0.2-0.3,0.5-0.6,0.7-0.9c0.5-0.6,0.8-1.2,1.2-1.9
				c0.5-1,0.8-2,1-3.1c0.4-2.3-0.1-4.7-1-6.8s-2.4-4-4-5.7C57.8,9.6,56.7,8.6,55.5,7.9z M59.8,14.3L59.8,14.3
				C59.9,14.2,59.9,14.2,59.8,14.3C59.9,14.3,59.9,14.3,59.8,14.3z"/>
			<path class="st1" d="M50.7,27.8c0.2,1.5,0.6,3,1.4,4.4c0.8,1.3,1.8,2.5,3.1,3.2c0.6,0.3,1.3,0.5,2,0.7c0.5,0.1,1,0.1,1.4,0.1
				c0.2,0,0.5,0,0.8,0c0.1,0,0.5,0.1,0.7-0.1c0.2-0.1,0.1-0.9,0.1-1.2c0-0.4-0.1-0.8-0.1-1.2c-0.3-1.6-1.2-3.1-2.5-4.2
				c-1.4-1.2-3.2-1.7-4.7-2.8c-1-0.8-1.8-1.8-2.1-3c-0.1,0.4-0.1,0.8-0.2,1.2C50.5,25.9,50.5,26.9,50.7,27.8z M52.2,29.8
				C52.2,29.8,52.2,29.7,52.2,29.8C52.2,29.7,52.2,29.7,52.2,29.8L52.2,29.8z"/>
		</g>
	</g>
	<g>
		<path class="st3" d="M101.3,101.8h-7.4c-1,0-1.9-0.9-1.9-1.9v-7.4c0-1,0.9-1.9,1.9-1.9h7.4c1,0,1.9,0.9,1.9,1.9v7.4
			C103.2,101,102.3,101.8,101.3,101.8z"/>
		<path class="st3" d="M86.3,101.8h-7.7c-1,0-1.9-0.9-1.9-1.9v-7.4c0-1,0.9-1.9,1.9-1.9h7.7c1,0,1.9,0.9,1.9,1.9v7.4
			C88.2,101,87.3,101.8,86.3,101.8z"/>
		<path class="st3" d="M86.5,116h-8.1c-0.9,0-1.7-0.8-1.7-1.7V107c0-0.9,0.8-1.7,1.7-1.7h8.1c0.9,0,1.7,0.8,1.7,1.7v7.3
			C88.2,115.2,87.4,116,86.5,116z"/>
		<path class="st3" d="M101.5,116h-7.9c-0.9,0-1.7-0.8-1.7-1.7V107c0-0.9,0.8-1.7,1.7-1.7h7.9c0.9,0,1.7,0.8,1.7,1.7v7.3
			C103.2,115.2,102.4,116,101.5,116z"/>
	</g>
	<path class="st4" d="M54.4,144.9c0,0,33.8,36.9,71.2,0.8c0.5-0.8-0.3-2.5-1.5-1.5c-1.4,0-35.1,22.3-68.5-0.5
		C55.4,143.8,53.9,143.1,54.4,144.9z"/>
</g>
</svg>
