<?xml version="1.0" encoding="utf-8"?>
<!-- Generator: Adobe Illustrator 27.0.0, SVG Export Plug-In . SVG Version: 6.00 Build 0)  -->
<svg version="1.1" id="Layer_1" xmlns="http://www.w3.org/2000/svg" xmlns:xlink="http://www.w3.org/1999/xlink" x="0px" y="0px"
	 viewBox="0 0 58.8 60.8" enable-background="new 0 0 58.8 60.8" xml:space="preserve">
<path fill="#149359" d="M48.4,30.7v24.6c0,0.7-0.5,1.2-1.2,1.2H11.7c-0.7,0-1.2-0.5-1.2-1.2V30.7l17-13.4c1.2-1,2.9-1,4,0L48.4,30.7
	z"/>
<path fill="#5CA904" d="M54.3,31.5L29.4,11.8l-7.6,6v-2.4c0-0.5-0.4-1-1-1h-1.5c-0.5,0-1,0.4-1,1v5.1l-13.9,11
	c-0.8,0.6-0.8,1.6,0,2.2c0.4,0.3,0.9,0.5,1.4,0.5c0.5,0,1-0.2,1.4-0.5l19.9-15.8c1.2-1,3.2-1,4.4,0l19.9,15.8c0.8,0.6,2,0.6,2.8,0
	c0.4-0.3,0.6-0.7,0.6-1.1C54.9,32.2,54.7,31.8,54.3,31.5z"/>
<text transform="matrix(1 0 0 1 13.2155 47.0179)" fill="#FFFFFF" font-family="'Arial-BoldMT'" font-size="5.878px">Help Abode</text>
<g>
	<g>
		<path fill="#5CA904" d="M25,7.9c0-0.2-0.1-0.4-0.1-0.7c-0.2,0.6-0.6,1.2-1.1,1.5c-0.8,0.6-1.7,0.9-2.4,1.5
			c-0.7,0.6-1.1,1.4-1.3,2.2c0,0.2-0.1,0.4-0.1,0.7c0,0.1,0,0.5,0.1,0.6c0.1,0,0.3,0,0.4,0c0.1,0,0.3,0,0.4,0c0.3,0,0.5,0,0.8-0.1
			c0.4-0.1,0.7-0.2,1.1-0.4c0.7-0.4,1.3-1,1.7-1.7c0.4-0.7,0.6-1.5,0.7-2.3C25.1,8.9,25.1,8.4,25,7.9z M24.2,10.4
			C24.2,10.4,24.2,10.4,24.2,10.4C24.2,10.4,24.2,10.4,24.2,10.4C24.2,10.4,24.2,10.4,24.2,10.4z"/>
		<path fill="#5CA904" d="M18.1,4.5c-0.2-0.1-0.4-0.2-0.6-0.3c0.4,0.5,0.5,1.1,0.5,1.8c0,0.9-0.3,1.8-0.3,2.7c0,0.8,0.4,1.6,0.9,2.3
			c0.1,0.2,0.3,0.3,0.5,0.4c0.1,0.1,0.4,0.3,0.5,0.3c0.1,0,0.2-0.2,0.2-0.3c0.1-0.1,0.2-0.2,0.2-0.3c0.1-0.2,0.3-0.4,0.4-0.6
			c0.2-0.3,0.3-0.7,0.3-1c0.1-0.7,0-1.5-0.3-2.2s-0.8-1.3-1.3-1.8C18.9,5.1,18.5,4.8,18.1,4.5z M19.6,6.6
			C19.6,6.6,19.6,6.6,19.6,6.6C19.6,6.6,19.6,6.6,19.6,6.6C19.6,6.6,19.6,6.6,19.6,6.6z"/>
		<path fill="#5CA904" d="M16.6,11c0.1,0.5,0.2,1,0.4,1.4c0.2,0.4,0.6,0.8,1,1c0.2,0.1,0.4,0.2,0.7,0.2c0.2,0,0.3,0,0.5,0.1
			c0.1,0,0.2,0,0.2,0c0,0,0.2,0,0.2,0c0.1-0.1,0-0.3,0-0.4c0-0.1,0-0.3,0-0.4c-0.1-0.5-0.4-1-0.8-1.4c-0.5-0.4-1-0.6-1.5-0.9
			c-0.3-0.2-0.6-0.6-0.7-1c0,0.1-0.1,0.3-0.1,0.4C16.5,10.4,16.5,10.7,16.6,11z M17.1,11.7C17.1,11.7,17.1,11.7,17.1,11.7
			C17.1,11.7,17.1,11.7,17.1,11.7C17.1,11.7,17.1,11.7,17.1,11.7z"/>
	</g>
</g>
<g>
	<path fill="#FFFFFF" d="M33.1,35.3h-2.4c-0.4,0-0.7-0.3-0.7-0.7v-2.3c0-0.4,0.3-0.7,0.7-0.7h2.4c0.4,0,0.7,0.3,0.7,0.7v2.3
		C33.8,35,33.5,35.3,33.1,35.3z"/>
	<path fill="#FFFFFF" d="M28.1,35.3h-2.3c-0.4,0-0.7-0.3-0.7-0.7v-2.2c0-0.4,0.3-0.7,0.7-0.7h2.3c0.4,0,0.7,0.3,0.7,0.7v2.2
		C28.9,34.9,28.5,35.3,28.1,35.3z"/>
	<path fill="#FFFFFF" d="M28,39.9h-2.1c-0.5,0-0.8-0.4-0.8-0.8v-1.8c0-0.5,0.4-0.8,0.8-0.8H28c0.5,0,0.8,0.4,0.8,0.8V39
		C28.9,39.5,28.5,39.9,28,39.9z"/>
	<path fill="#FFFFFF" d="M33,39.9h-2.1c-0.4,0-0.8-0.4-0.8-0.8v-1.9c0-0.4,0.4-0.8,0.8-0.8H33c0.4,0,0.8,0.4,0.8,0.8l0,1.9
		C33.8,39.5,33.4,39.9,33,39.9z"/>
</g>
<path fill="#EAFF00" d="M17.8,49.4c0,0,11.1,12.1,23.3,0.3c0.2-0.3-0.1-0.8-0.5-0.5c-0.5,0-11.5,7.3-22.4-0.1
	C18.1,49,17.6,48.8,17.8,49.4z"/>
</svg>
