<svg width="24" height="24" viewBox="0 0 24 24" fill="none" xmlns="http://www.w3.org/2000/svg">
<path d="M17.7664 2H6.17364C5.59715 2 5.04428 2.22901 4.63664 2.63664C4.22901 3.04428 4 3.59715 4 4.17364V20.8476C3.99987 21.0877 4.05939 21.324 4.17322 21.5354C4.28704 21.7468 4.45159 21.9266 4.6521 22.0586C4.8526 22.1906 5.08277 22.2708 5.32192 22.2919C5.56107 22.3129 5.8017 22.2743 6.02221 22.1793L8.52406 21.1019L11.336 22.4481C11.5365 22.5431 11.756 22.5911 11.9778 22.5886C12.1997 22.5861 12.418 22.5331 12.6163 22.4336L15.5927 20.9259L17.8388 22.0619C18.0596 22.1732 18.3052 22.2261 18.5523 22.2156C18.7993 22.2052 19.0396 22.1317 19.2502 22.0021C19.4608 21.8725 19.6347 21.6913 19.7555 21.4755C19.8762 21.2597 19.9397 21.0166 19.94 20.7694V4.17364C19.94 3.59715 19.711 3.04428 19.3034 2.63664C18.8957 2.22901 18.3428 2 17.7664 2ZM18.4909 20.7694L16.2448 19.6333C16.0417 19.5307 15.8174 19.4773 15.5898 19.4773C15.3623 19.4773 15.138 19.5307 14.9348 19.6333L11.9577 21.141L9.14717 19.7956C8.96064 19.7061 8.75711 19.6576 8.55028 19.6534C8.34344 19.6491 8.1381 19.6892 7.94805 19.7709L5.44909 20.8476V4.17364C5.44909 3.98147 5.52543 3.79718 5.66131 3.66131C5.79718 3.52543 5.98147 3.44909 6.17364 3.44909H17.7664C17.9585 3.44909 18.1428 3.52543 18.2787 3.66131C18.4146 3.79718 18.4909 3.98147 18.4909 4.17364V20.7708V20.7694Z" fill="black"/>
<path d="M15.593 5.62256H8.34759C8.15543 5.62256 7.97114 5.69889 7.83526 5.83477C7.69938 5.97065 7.62305 6.15494 7.62305 6.3471C7.62305 6.53927 7.69938 6.72356 7.83526 6.85943C7.97114 6.99531 8.15543 7.07165 8.34759 7.07165H15.593C15.7852 7.07165 15.9695 6.99531 16.1054 6.85943C16.2413 6.72356 16.3176 6.53927 16.3176 6.3471C16.3176 6.15494 16.2413 5.97065 16.1054 5.83477C15.9695 5.69889 15.7852 5.62256 15.593 5.62256ZM15.593 9.24529H8.34759C8.15543 9.24529 7.97114 9.32162 7.83526 9.4575C7.69938 9.59338 7.62305 9.77767 7.62305 9.96983C7.62305 10.162 7.69938 10.3463 7.83526 10.4822C7.97114 10.618 8.15543 10.6944 8.34759 10.6944H15.593C15.7852 10.6944 15.9695 10.618 16.1054 10.4822C16.2413 10.3463 16.3176 10.162 16.3176 9.96983C16.3176 9.77767 16.2413 9.59338 16.1054 9.4575C15.9695 9.32162 15.7852 9.24529 15.593 9.24529ZM12.4232 12.868H8.34759C8.15543 12.868 7.97114 12.9443 7.83526 13.0802C7.69938 13.2161 7.62305 13.4004 7.62305 13.5926C7.62305 13.7847 7.69938 13.969 7.83526 14.1049C7.97114 14.2408 8.15543 14.3171 8.34759 14.3171H12.4232C12.6153 14.3171 12.7996 14.2408 12.9355 14.1049C13.0714 13.969 13.1477 13.7847 13.1477 13.5926C13.1477 13.4004 13.0714 13.2161 12.9355 13.0802C12.7996 12.9443 12.6153 12.868 12.4232 12.868Z" fill="black"/>
</svg>
